<?xml version="1.0" encoding="UTF-8" standalone="no"?>
<svg
   id="Layer_1"
   viewBox="0 0 161 43.000001"
   version="1.1"
   sodipodi:docname="aniversario_web_curvas.svg"
   inkscape:version="1.2.2 (b0a8486541, 2022-12-01, custom)"
   width="161"
   height="43"
   xmlns:inkscape="http://www.inkscape.org/namespaces/inkscape"
   xmlns:sodipodi="http://sodipodi.sourceforge.net/DTD/sodipodi-0.dtd"
   xmlns="http://www.w3.org/2000/svg"
   xmlns:svg="http://www.w3.org/2000/svg">
  <sodipodi:namedview
     id="namedview4342"
     pagecolor="#ffffff"
     bordercolor="#000000"
     borderopacity="0.25"
     inkscape:showpageshadow="2"
     inkscape:pageopacity="0.0"
     inkscape:pagecheckerboard="0"
     inkscape:deskcolor="#d1d1d1"
     showgrid="false"
     inkscape:zoom="0.75133987"
     inkscape:cx="612.23957"
     inkscape:cy="239.57201"
     inkscape:window-width="1920"
     inkscape:window-height="1011"
     inkscape:window-x="0"
     inkscape:window-y="32"
     inkscape:window-maximized="1"
     inkscape:current-layer="g4740" />
  <defs
     id="defs4269">
    <style
       id="style4256">.cls-1{stroke-width:2px;}.cls-1,.cls-2,.cls-3,.cls-4,.cls-5{stroke:#fff;stroke-miterlimit:10;}.cls-1,.cls-5{fill:#fff;}.cls-6{filter:url(#drop-shadow-1);}.cls-2,.cls-7{fill:#325578;}.cls-2,.cls-4{stroke-width:7px;}.cls-3{fill:#233b54;stroke-width:5px;}.cls-4{fill:#e04000;}</style>
    <filter
       id="drop-shadow-1"
       filterUnits="userSpaceOnUse">
      <feOffset
         dx="5"
         dy="5"
         id="feOffset4258" />
      <feGaussianBlur
         result="blur"
         stdDeviation="8"
         id="feGaussianBlur4260" />
      <feFlood
         flood-color="#000"
         flood-opacity=".72"
         id="feFlood4262" />
      <feComposite
         in2="blur"
         operator="in"
         id="feComposite4264"
         result="result1" />
      <feComposite
         in="SourceGraphic"
         in2="result1"
         id="feComposite4266" />
    </filter>
  </defs>
  <g
     class="cls-6"
     id="g4317">
    <path
       class="cls-5"
       d="m 332.34,209.2 v 9.49 c 5,-7.71 12.76,-11.57 23.3,-11.57 9.64,0 17.29,3.17 22.96,9.49 5.67,6.33 8.5,14.91 8.5,25.74 0,10.83 -2.79,19.48 -8.37,25.94 -5.58,6.46 -13.1,9.68 -22.56,9.68 -9.46,0 -17.63,-3.68 -23.16,-11.05 v 35.23 H 321.63 V 209.2 Z m 21.56,7.15 c -6.61,0 -11.81,2.32 -15.6,6.96 -3.8,4.64 -5.69,11.03 -5.69,19.18 0,8.15 1.94,14.54 5.82,19.17 3.88,4.64 9.17,6.96 15.87,6.96 6.7,0 11.65,-2.34 15.4,-7.02 3.75,-4.68 5.62,-11.05 5.62,-19.11 0,-8.06 -1.9,-14.54 -5.69,-19.18 -3.8,-4.64 -9.04,-6.96 -15.73,-6.96 z"
       id="path4301" />
    <path
       class="cls-5"
       d="m 438.79,207.64 v 11.44 c -0.8,-0.08 -1.79,-0.13 -2.95,-0.13 -3.66,0 -6.83,0.54 -9.51,1.62 -2.68,1.08 -4.8,2.49 -6.36,4.23 -1.56,1.73 -2.83,3.9 -3.82,6.5 -0.98,2.6 -1.63,5.2 -1.94,7.8 -0.31,2.6 -0.47,5.55 -0.47,8.84 v 28.34 H 402.36 V 209.2 h 10.85 v 14.43 c 4.55,-10.66 13.08,-15.99 25.58,-15.99 z"
       id="path4303" />
    <path
       class="cls-5"
       d="m 452.18,216.87 c 6.07,-6.41 14.33,-9.62 24.77,-9.62 10.44,0 18.57,3.08 24.37,9.23 5.8,6.15 8.7,14.78 8.7,25.87 0,11.09 -2.9,20.2 -8.7,26.52 -5.8,6.33 -13.97,9.49 -24.5,9.49 -10.53,0 -18.79,-3.12 -24.77,-9.36 -5.98,-6.24 -8.97,-14.91 -8.97,-26 0,-11.09 3.03,-19.71 9.11,-26.13 z m 40.37,6.7 c -3.88,-4.72 -9.17,-7.08 -15.87,-7.08 -6.7,0 -12.01,2.38 -15.93,7.15 -3.93,4.77 -5.89,11.14 -5.89,19.11 0,7.97 1.94,14.67 5.82,19.3 3.88,4.64 9.31,6.96 16.27,6.96 6.96,0 11.94,-2.34 15.73,-7.02 3.79,-4.68 5.69,-11.14 5.69,-19.37 0,-8.23 -1.94,-14.32 -5.82,-19.04 z"
       id="path4305" />
    <path
       class="cls-5"
       d="m 536,209.2 v 10.4 c 5.71,-8.15 13.57,-12.22 23.57,-12.22 8.12,0 13.99,2.06 17.61,6.17 3.62,4.12 5.42,10.16 5.42,18.14 v 44.59 h -11.38 v -39.52 c 0,-3.29 -0.11,-5.87 -0.33,-7.73 -0.22,-1.86 -0.78,-3.86 -1.67,-5.98 -0.89,-2.12 -2.41,-3.66 -4.55,-4.62 -2.14,-0.95 -4.91,-1.43 -8.3,-1.43 -13.12,0 -19.68,8.06 -19.68,24.18 v 35.1 H 525.31 V 209.2 h 10.71 z"
       id="path4307" />
    <path
       class="cls-5"
       d="m 606.96,216.87 c 6.07,-6.41 14.33,-9.62 24.77,-9.62 10.44,0 18.57,3.08 24.37,9.23 5.8,6.15 8.7,14.78 8.7,25.87 0,11.09 -2.9,20.2 -8.7,26.52 -5.8,6.33 -13.97,9.49 -24.5,9.49 -10.53,0 -18.79,-3.12 -24.77,-9.36 -5.98,-6.24 -8.97,-14.91 -8.97,-26 0,-11.09 3.03,-19.71 9.11,-26.13 z m 40.37,6.7 c -3.88,-4.72 -9.17,-7.08 -15.87,-7.08 -6.7,0 -12.01,2.38 -15.93,7.15 -3.93,4.77 -5.89,11.14 -5.89,19.11 0,7.97 1.94,14.67 5.82,19.3 3.88,4.64 9.31,6.96 16.27,6.96 6.96,0 11.94,-2.34 15.73,-7.02 3.79,-4.68 5.69,-11.14 5.69,-19.37 0,-8.23 -1.94,-14.32 -5.82,-19.04 z"
       id="path4309" />
    <path
       class="cls-5"
       d="m 692.12,183.72 v 13.52 H 680.6 v -13.52 z m 0,25.48 v 67.08 H 680.6 V 209.2 Z"
       id="path4311" />
    <path
       class="cls-5"
       d="m 773.8,183.72 v 92.56 h -10.71 v -9.88 c -4.38,7.8 -11.96,11.7 -22.76,11.7 -9.82,0 -17.61,-3.18 -23.37,-9.55 -5.76,-6.37 -8.64,-15.01 -8.64,-25.93 0,-10.14 2.7,-18.57 8.1,-25.29 5.4,-6.72 13.19,-10.07 23.37,-10.07 10.18,0 17.45,3.64 22.63,10.92 v -34.45 h 11.38 z m -32.54,33.02 c -6.52,0 -11.67,2.3 -15.47,6.89 -3.8,4.59 -5.69,10.83 -5.69,18.72 0,7.89 1.94,14.62 5.82,19.44 3.88,4.81 9.08,7.21 15.6,7.21 6.52,0 11.78,-2.32 15.53,-6.96 3.75,-4.63 5.62,-11.07 5.62,-19.3 0,-7.37 -1.76,-13.54 -5.29,-18.52 -3.53,-4.98 -8.9,-7.48 -16.13,-7.48 z"
       id="path4313" />
    <path
       class="cls-5"
       d="m 851.73,255.09 c -3.48,15.6 -13.52,23.4 -30.13,23.4 -10.18,0 -18.14,-3.08 -23.9,-9.23 -5.76,-6.15 -8.64,-14.69 -8.64,-25.61 0,-10.92 2.97,-19.61 8.9,-26.33 5.94,-6.72 13.68,-10.07 23.23,-10.07 10.62,0 18.5,3.49 23.63,10.46 5.13,6.98 7.7,15.79 7.7,26.45 v 1.56 h -51.95 l -0.13,0.78 c 0,7.11 1.92,12.7 5.76,16.77 3.84,4.07 9.11,6.11 15.8,6.11 5,0 8.95,-1.12 11.85,-3.38 2.9,-2.25 5.16,-5.89 6.76,-10.92 h 11.11 z m -10.98,-18.33 c -0.54,-6.41 -2.54,-11.42 -6.03,-15.02 -3.48,-3.6 -8.08,-5.4 -13.79,-5.4 -5.71,0 -10.13,1.82 -13.79,5.46 -3.66,3.64 -5.85,8.62 -6.56,14.95 h 40.17 z"
       id="path4315" />
  </g>
  <g
     id="g4740">
    <g
       id="g4777"
       transform="scale(0.08951992)">
      <g
         id="g4293">
        <path
           class="cls-7"
           d="m 1009.51,388.01 v 11.75 c -3.09,1.18 -6.53,1.78 -10.32,1.78 -8.66,0 -13.11,-4.51 -13.35,-13.53 -8.66,9.73 -19.76,14.6 -33.29,14.6 -9.02,0 -16.17,-2.31 -21.45,-6.94 -5.28,-4.63 -7.92,-10.97 -7.92,-19.05 0,-16.38 10.86,-25.93 32.57,-28.66 1.42,-0.24 3.5,-0.47 6.23,-0.71 10.32,-1.18 16.67,-2.55 19.05,-4.09 2.73,-1.9 4.09,-5.16 4.09,-9.79 0,-10.08 -6.94,-15.13 -20.83,-15.13 -7.12,0 -12.52,1.45 -16.2,4.36 -3.68,2.91 -5.87,7.68 -6.59,14.33 h -14.77 c 0.24,-9.85 3.74,-17.5 10.5,-22.96 6.76,-5.46 16.08,-8.19 27.95,-8.19 12.93,0 22.54,2.97 28.84,8.9 2.02,1.9 3.5,4.39 4.45,7.48 0.95,3.09 1.48,5.61 1.6,7.56 0.12,1.96 0.18,4.9 0.18,8.81 0,4.51 -0.12,11.33 -0.36,20.47 -0.24,9.14 -0.36,15.96 -0.36,20.47 0,3.32 0.45,5.67 1.34,7.03 0.89,1.37 2.52,2.05 4.89,2.05 0.95,0 2.19,-0.18 3.74,-0.53 z m -24.39,-35.6 c -1.07,0.83 -2.2,1.54 -3.38,2.14 -1.19,0.6 -2.7,1.07 -4.54,1.42 -1.84,0.36 -3.09,0.62 -3.74,0.8 -0.65,0.18 -2.23,0.42 -4.72,0.71 -2.49,0.3 -3.8,0.44 -3.92,0.44 -3.68,0.48 -6.08,0.8 -7.21,0.98 -1.13,0.18 -3.26,0.68 -6.41,1.51 -3.15,0.83 -5.37,1.78 -6.68,2.85 -1.31,1.07 -2.58,2.64 -3.83,4.72 -1.25,2.08 -1.87,4.54 -1.87,7.39 0,4.75 1.63,8.49 4.89,11.21 3.26,2.73 7.74,4.09 13.44,4.09 7.24,0 13.71,-2.14 19.4,-6.41 5.7,-4.27 8.54,-9.31 8.54,-15.13 V 352.4 Z"
           id="path4271" />
        <path
           class="cls-7"
           d="m 1040.3,308.27 v 14.24 c 7.59,-11.15 18.04,-16.73 31.33,-16.73 10.8,0 18.6,2.82 23.41,8.46 4.81,5.64 7.21,13.91 7.21,24.83 v 61.05 h -15.13 v -54.11 c 0,-4.51 -0.15,-8.04 -0.45,-10.59 -0.3,-2.55 -1.04,-5.28 -2.22,-8.19 -1.19,-2.91 -3.2,-5.01 -6.05,-6.32 -2.85,-1.3 -6.53,-1.96 -11.04,-1.96 -17.44,0 -26.17,11.04 -26.17,33.11 v 48.06 h -15.13 v -91.85 z"
           id="path4273" />
        <path
           class="cls-7"
           d="m 1143.36,273.38 v 18.51 h -15.31 v -18.51 z m 0,34.89 v 91.85 h -15.31 v -91.85 z"
           id="path4275" />
        <path
           class="cls-7"
           d="m 1160.27,308.27 h 16.91 l 25.99,77.07 25.28,-77.07 h 15.84 l -33.64,91.85 h -16.2 z"
           id="path4277" />
        <path
           class="cls-7"
           d="m 1338.98,371.1 c -4.63,21.36 -17.98,32.04 -40.05,32.04 -13.53,0 -24.12,-4.21 -31.77,-12.64 -7.65,-8.42 -11.48,-20.11 -11.48,-35.07 0,-14.96 3.94,-26.85 11.84,-36.04 7.89,-9.19 18.18,-13.79 30.88,-13.79 14.12,0 24.59,4.78 31.42,14.33 6.82,9.55 10.24,21.63 10.24,36.22 v 2.14 H 1271 l -0.18,1.07 c 0,9.73 2.55,17.39 7.65,22.96 5.1,5.58 12.1,8.37 21,8.37 6.64,0 11.9,-1.54 15.75,-4.63 3.85,-3.08 6.85,-8.07 8.99,-14.95 h 14.77 z m -14.6,-25.1 c -0.71,-8.78 -3.38,-15.63 -8.01,-20.56 -4.63,-4.92 -10.74,-7.39 -18.33,-7.39 -7.59,0 -13.47,2.49 -18.33,7.48 -4.87,4.98 -7.77,11.81 -8.72,20.47 h 53.4 z"
           id="path4279" />
        <path
           class="cls-7"
           d="m 1406.26,306.13 v 15.66 c -1.07,-0.12 -2.38,-0.18 -3.92,-0.18 -4.87,0 -9.08,0.74 -12.64,2.22 -3.56,1.49 -6.38,3.41 -8.46,5.79 -2.08,2.38 -3.77,5.34 -5.07,8.9 -1.31,3.56 -2.17,7.12 -2.58,10.68 -0.42,3.56 -0.62,7.6 -0.62,12.1 v 38.8 h -15.13 v -91.85 h 14.42 v 19.76 c 6.05,-14.6 17.38,-21.89 34,-21.89 z"
           id="path4281" />
        <path
           class="cls-7"
           d="m 1488.14,334.97 h -15.13 c -0.95,-11.15 -8.43,-16.73 -22.43,-16.73 -5.82,0 -10.38,1.13 -13.71,3.38 -3.32,2.26 -4.98,5.28 -4.98,9.08 0,1.07 0.12,2.11 0.36,3.11 0.24,1.01 0.68,1.9 1.33,2.67 0.65,0.77 1.25,1.45 1.78,2.05 0.53,0.59 1.42,1.16 2.67,1.69 1.25,0.53 2.19,0.98 2.85,1.33 0.65,0.36 1.84,0.74 3.56,1.16 1.72,0.42 2.94,0.71 3.65,0.89 0.71,0.18 2.11,0.51 4.18,0.98 2.07,0.48 3.41,0.77 4,0.89 4.39,0.95 7.68,1.72 9.88,2.31 2.19,0.59 5.22,1.69 9.08,3.29 3.85,1.6 6.79,3.26 8.81,4.98 2.02,1.72 3.83,4.09 5.43,7.12 1.6,3.03 2.4,6.44 2.4,10.24 0,8.9 -3.47,16.05 -10.41,21.45 -6.94,5.4 -16.17,8.1 -27.68,8.1 -12.46,0 -22.04,-2.73 -28.75,-8.19 -6.71,-5.46 -10.3,-13.35 -10.77,-23.67 h 14.95 c 0.83,12.94 9.14,19.4 24.92,19.4 6.76,0 12.19,-1.39 16.29,-4.18 4.09,-2.79 6.14,-6.5 6.14,-11.12 0,-3.08 -1.07,-5.63 -3.2,-7.65 -2.14,-2.02 -4.51,-3.47 -7.12,-4.36 -2.61,-0.89 -6.35,-1.93 -11.21,-3.11 -0.71,-0.12 -1.25,-0.24 -1.6,-0.36 -1.07,-0.24 -3.35,-0.74 -6.85,-1.51 -3.5,-0.77 -6.02,-1.39 -7.56,-1.87 -1.54,-0.47 -3.77,-1.22 -6.68,-2.23 -2.91,-1.01 -5.07,-2.07 -6.5,-3.2 -1.42,-1.13 -3,-2.55 -4.72,-4.27 -1.72,-1.72 -2.94,-3.74 -3.65,-6.05 -0.71,-2.31 -1.07,-4.95 -1.07,-7.92 0,-8.3 3.17,-14.89 9.52,-19.76 6.35,-4.86 14.86,-7.3 25.54,-7.3 10.68,0 19.61,2.55 26.43,7.65 6.82,5.1 10.24,12.34 10.24,21.72 z"
           id="path4283" />
        <path
           class="cls-7"
           d="m 1592.63,388.01 v 11.75 c -3.09,1.18 -6.53,1.78 -10.32,1.78 -8.66,0 -13.11,-4.51 -13.35,-13.53 -8.66,9.73 -19.76,14.6 -33.29,14.6 -9.02,0 -16.17,-2.31 -21.45,-6.94 -5.28,-4.63 -7.92,-10.97 -7.92,-19.05 0,-16.38 10.86,-25.93 32.57,-28.66 1.42,-0.24 3.5,-0.47 6.23,-0.71 10.32,-1.18 16.67,-2.55 19.05,-4.09 2.73,-1.9 4.09,-5.16 4.09,-9.79 0,-10.08 -6.94,-15.13 -20.83,-15.13 -7.12,0 -12.52,1.45 -16.2,4.36 -3.68,2.91 -5.87,7.68 -6.59,14.33 h -14.77 c 0.24,-9.85 3.74,-17.5 10.5,-22.96 6.76,-5.46 16.08,-8.19 27.95,-8.19 12.93,0 22.54,2.97 28.84,8.9 2.02,1.9 3.5,4.39 4.45,7.48 0.95,3.09 1.48,5.61 1.6,7.56 0.12,1.96 0.18,4.9 0.18,8.81 0,4.51 -0.12,11.33 -0.36,20.47 -0.24,9.14 -0.36,15.96 -0.36,20.47 0,3.32 0.45,5.67 1.34,7.03 0.89,1.37 2.52,2.05 4.89,2.05 0.95,0 2.19,-0.18 3.74,-0.53 z m -24.39,-35.6 c -1.07,0.83 -2.2,1.54 -3.38,2.14 -1.19,0.6 -2.7,1.07 -4.54,1.42 -1.84,0.36 -3.09,0.62 -3.74,0.8 -0.65,0.18 -2.23,0.42 -4.72,0.71 -2.49,0.3 -3.8,0.44 -3.92,0.44 -3.68,0.48 -6.08,0.8 -7.21,0.98 -1.13,0.18 -3.26,0.68 -6.41,1.51 -3.15,0.83 -5.37,1.78 -6.68,2.85 -1.31,1.07 -2.58,2.64 -3.83,4.72 -1.25,2.08 -1.87,4.54 -1.87,7.39 0,4.75 1.63,8.49 4.89,11.21 3.26,2.73 7.74,4.09 13.44,4.09 7.24,0 13.71,-2.14 19.4,-6.41 5.7,-4.27 8.54,-9.31 8.54,-15.13 V 352.4 Z"
           id="path4285" />
        <path
           class="cls-7"
           d="m 1657.06,306.13 v 15.66 c -1.07,-0.12 -2.38,-0.18 -3.92,-0.18 -4.87,0 -9.08,0.74 -12.64,2.22 -3.56,1.49 -6.38,3.41 -8.46,5.79 -2.08,2.38 -3.77,5.34 -5.07,8.9 -1.31,3.56 -2.17,7.12 -2.58,10.68 -0.42,3.56 -0.62,7.6 -0.62,12.1 v 38.8 h -15.13 v -91.85 h 14.42 v 19.76 c 6.05,-14.6 17.38,-21.89 34,-21.89 z"
           id="path4287" />
        <path
           class="cls-7"
           d="m 1686.78,273.38 v 18.51 h -15.31 v -18.51 z m 0,34.89 v 91.85 h -15.31 v -91.85 z"
           id="path4289" />
        <path
           class="cls-7"
           d="m 1719.89,318.77 c 8.07,-8.78 19.05,-13.17 32.93,-13.17 13.88,0 24.68,4.21 32.4,12.64 7.71,8.43 11.57,20.23 11.57,35.42 0,15.19 -3.86,27.65 -11.57,36.31 -7.71,8.66 -18.57,12.99 -32.57,12.99 -14,0 -24.98,-4.27 -32.93,-12.82 -7.95,-8.54 -11.93,-20.41 -11.93,-35.6 0,-15.19 4.03,-27 12.1,-35.78 z m 53.67,9.17 c -5.16,-6.47 -12.19,-9.7 -21.09,-9.7 -8.9,0 -15.96,3.26 -21.18,9.79 -5.22,6.53 -7.83,15.25 -7.83,26.17 0,10.92 2.58,20.09 7.74,26.43 5.16,6.35 12.37,9.52 21.63,9.52 9.26,0 15.87,-3.2 20.92,-9.61 5.04,-6.41 7.56,-15.25 7.56,-26.52 0,-11.27 -2.58,-19.61 -7.74,-26.08 z"
           id="path4291" />
      </g>
      <circle
         class="cls-2"
         cx="592.44"
         cy="240.17"
         r="236.67"
         id="circle4295" />
      <circle
         class="cls-4"
         cx="677.92999"
         cy="218.67"
         r="190.94"
         id="circle4297" />
      <circle
         class="cls-3"
         cx="449.17001"
         cy="253.28"
         r="143.11"
         id="circle4299" />
      <g
         id="g4337">
        <path
           class="cls-1"
           d="m 1003.56,233.68 v 13.71 h -82.24 c 0.36,-7 1.42,-13.11 3.2,-18.33 1.78,-5.22 4.54,-9.94 8.28,-14.15 3.74,-4.21 7.39,-7.68 10.95,-10.41 3.56,-2.73 8.6,-6.11 15.13,-10.15 10.21,-6.41 16.91,-11.21 20.11,-14.42 6.64,-6.52 9.97,-13.76 9.97,-21.72 0,-7 -2.26,-12.73 -6.76,-17.18 -4.51,-4.45 -10.39,-6.67 -17.62,-6.67 -8.66,0 -14.86,3 -18.6,8.99 -3.74,5.99 -5.73,13.56 -5.96,22.69 h -15.31 v -3.38 c 0,-12.46 3.71,-22.49 11.12,-30.08 7.42,-7.59 17.24,-11.39 29.46,-11.39 12.22,0 21.54,3.32 28.66,9.97 7.12,6.65 10.68,15.55 10.68,26.7 0,4.75 -0.8,9.23 -2.4,13.44 -1.6,4.21 -3.38,7.74 -5.34,10.59 -1.96,2.85 -4.93,5.87 -8.9,9.08 -3.98,3.2 -7.27,5.67 -9.88,7.39 -2.61,1.72 -6.35,4.07 -11.21,7.03 -9.73,5.82 -16.2,10.32 -19.4,13.53 -4.51,4.51 -7.42,9.43 -8.72,14.77 h 64.79 z"
           id="path4319" />
        <path
           class="cls-1"
           d="m 1068.35,121.19 c 7.59,0 14.09,1.4 19.49,4.18 5.4,2.79 9.52,6.2 12.37,10.23 2.85,4.04 5.1,9.29 6.76,15.75 1.66,6.47 2.67,12.28 3.03,17.44 0.36,5.16 0.53,11.36 0.53,18.6 0,6.65 -0.27,12.64 -0.8,17.98 -0.53,5.34 -1.66,10.92 -3.38,16.73 -1.72,5.82 -4.07,10.65 -7.03,14.51 -2.97,3.86 -7,7.03 -12.1,9.52 -5.1,2.49 -11.16,3.74 -18.16,3.74 -7.36,0 -13.74,-1.28 -19.13,-3.83 -5.4,-2.55 -9.58,-5.72 -12.55,-9.52 -2.97,-3.8 -5.31,-8.63 -7.03,-14.51 -1.72,-5.87 -2.82,-11.45 -3.29,-16.73 -0.48,-5.28 -0.71,-11.36 -0.71,-18.24 0,-5.93 0.15,-11.09 0.45,-15.49 0.29,-4.39 0.89,-9.34 1.78,-14.86 0.89,-5.52 2.28,-10.2 4.18,-14.06 1.9,-3.85 4.33,-7.5 7.3,-10.95 2.96,-3.44 6.85,-6.05 11.66,-7.83 4.81,-1.78 10.35,-2.67 16.64,-2.67 z m 9.79,15.58 c -2.85,-1.36 -6.11,-2.05 -9.79,-2.05 -3.68,0 -6.94,0.68 -9.79,2.05 -2.85,1.37 -5.16,2.94 -6.94,4.72 -1.78,1.78 -3.32,4.42 -4.63,7.92 -1.31,3.5 -2.23,6.44 -2.76,8.81 -0.53,2.38 -0.98,5.79 -1.33,10.24 -0.36,4.45 -0.53,7.6 -0.53,9.43 v 9.17 c 0,4.15 0.06,7.6 0.18,10.32 0.12,2.73 0.41,6.29 0.89,10.68 0.47,4.39 1.3,8.04 2.49,10.95 1.18,2.91 2.67,5.82 4.45,8.72 1.78,2.91 4.24,5.1 7.39,6.59 3.14,1.49 6.79,2.23 10.95,2.23 3.56,0 6.73,-0.65 9.52,-1.96 2.79,-1.3 5.07,-2.85 6.85,-4.63 1.78,-1.78 3.29,-4.3 4.54,-7.56 1.25,-3.26 2.16,-6.11 2.76,-8.54 0.59,-2.43 1.04,-5.7 1.33,-9.79 0.29,-4.09 0.47,-7.12 0.53,-9.08 0.06,-1.96 0.09,-4.83 0.09,-8.63 v -8.9 c 0,-1.78 -0.18,-4.86 -0.53,-9.26 -0.36,-4.39 -0.8,-7.77 -1.33,-10.15 -0.53,-2.37 -1.45,-5.28 -2.76,-8.72 -1.31,-3.44 -2.85,-6.05 -4.63,-7.83 -1.78,-1.78 -4.09,-3.35 -6.94,-4.72 z"
           id="path4321" />
        <path
           class="cls-1"
           d="m 1170.52,121.19 c 7.59,0 14.09,1.4 19.49,4.18 5.4,2.79 9.52,6.2 12.37,10.23 2.85,4.04 5.1,9.29 6.76,15.75 1.66,6.47 2.67,12.28 3.03,17.44 0.36,5.16 0.53,11.36 0.53,18.6 0,6.65 -0.27,12.64 -0.8,17.98 -0.53,5.34 -1.66,10.92 -3.38,16.73 -1.72,5.82 -4.07,10.65 -7.03,14.51 -2.97,3.86 -7,7.03 -12.1,9.52 -5.1,2.49 -11.16,3.74 -18.16,3.74 -7.36,0 -13.74,-1.28 -19.13,-3.83 -5.4,-2.55 -9.58,-5.72 -12.55,-9.52 -2.97,-3.8 -5.31,-8.63 -7.03,-14.51 -1.72,-5.87 -2.82,-11.45 -3.29,-16.73 -0.48,-5.28 -0.71,-11.36 -0.71,-18.24 0,-5.93 0.15,-11.09 0.45,-15.49 0.29,-4.39 0.89,-9.34 1.78,-14.86 0.89,-5.52 2.28,-10.2 4.18,-14.06 1.9,-3.85 4.33,-7.5 7.3,-10.95 2.96,-3.44 6.85,-6.05 11.66,-7.83 4.81,-1.78 10.35,-2.67 16.64,-2.67 z m 9.79,15.58 c -2.85,-1.36 -6.11,-2.05 -9.79,-2.05 -3.68,0 -6.94,0.68 -9.79,2.05 -2.85,1.37 -5.16,2.94 -6.94,4.72 -1.78,1.78 -3.32,4.42 -4.63,7.92 -1.31,3.5 -2.23,6.44 -2.76,8.81 -0.53,2.38 -0.98,5.79 -1.33,10.24 -0.36,4.45 -0.53,7.6 -0.53,9.43 v 9.17 c 0,4.15 0.06,7.6 0.18,10.32 0.12,2.73 0.41,6.29 0.89,10.68 0.47,4.39 1.3,8.04 2.49,10.95 1.18,2.91 2.67,5.82 4.45,8.72 1.78,2.91 4.24,5.1 7.39,6.59 3.14,1.49 6.79,2.23 10.95,2.23 3.56,0 6.73,-0.65 9.52,-1.96 2.79,-1.3 5.07,-2.85 6.85,-4.63 1.78,-1.78 3.29,-4.3 4.54,-7.56 1.25,-3.26 2.16,-6.11 2.76,-8.54 0.59,-2.43 1.04,-5.7 1.33,-9.79 0.29,-4.09 0.47,-7.12 0.53,-9.08 0.06,-1.96 0.09,-4.83 0.09,-8.63 v -8.9 c 0,-1.78 -0.18,-4.86 -0.53,-9.26 -0.36,-4.39 -0.8,-7.77 -1.33,-10.15 -0.53,-2.37 -1.45,-5.28 -2.76,-8.72 -1.31,-3.44 -2.85,-6.05 -4.63,-7.83 -1.78,-1.78 -4.09,-3.35 -6.94,-4.72 z"
           id="path4323" />
        <path
           class="cls-1"
           d="m 1231.58,162.13 c 0.36,-13.05 4,-23.14 10.95,-30.26 6.94,-7.12 16.64,-10.68 29.1,-10.68 11.15,0 20.11,3.03 26.88,9.08 6.76,6.05 10.15,14 10.15,23.85 0,5.94 -1.51,11.24 -4.54,15.93 -3.03,4.69 -7.27,8.16 -12.73,10.41 7.12,1.66 12.75,5.22 16.91,10.68 4.15,5.46 6.23,12.05 6.23,19.76 0.12,11.63 -3.89,21.03 -12.01,28.21 -8.13,7.18 -18.66,10.77 -31.59,10.77 -12.93,0 -23.05,-3.53 -30.71,-10.59 -7.65,-7.06 -11.48,-16.58 -11.48,-28.57 v -2.31 h 14.95 c 0.36,9.02 2.91,15.96 7.65,20.83 4.74,4.87 11.33,7.3 19.76,7.3 8.43,0 14.62,-2.28 19.67,-6.85 5.04,-4.57 7.57,-10.47 7.57,-17.71 0,-7.24 -2.52,-13.23 -7.57,-17.62 -5.04,-4.39 -11.84,-6.59 -20.38,-6.59 -2.14,0 -4.87,0.24 -8.19,0.71 v -12.82 c 1.66,0.12 3.38,0.18 5.16,0.18 7.83,0 14.03,-1.87 18.6,-5.61 4.57,-3.74 6.85,-8.81 6.85,-15.22 0,-6.41 -1.99,-11.15 -5.96,-14.95 -3.98,-3.8 -9.29,-5.7 -15.93,-5.7 -7.6,0 -13.53,2.4 -17.8,7.21 -4.27,4.81 -6.53,11.66 -6.76,20.56 h -14.77 z"
           id="path4325" />
        <path
           class="cls-1"
           d="m 1386.08,190.43 v 14.95 h -51.8 v -14.95 z"
           id="path4327" />
        <path
           class="cls-1"
           d="m 1484.69,233.68 v 13.71 h -82.24 c 0.36,-7 1.42,-13.11 3.2,-18.33 1.78,-5.22 4.54,-9.94 8.28,-14.15 3.74,-4.21 7.39,-7.68 10.95,-10.41 3.56,-2.73 8.6,-6.11 15.13,-10.15 10.21,-6.41 16.91,-11.21 20.11,-14.42 6.64,-6.52 9.97,-13.76 9.97,-21.72 0,-7 -2.26,-12.73 -6.76,-17.18 -4.51,-4.45 -10.39,-6.67 -17.62,-6.67 -8.66,0 -14.86,3 -18.6,8.99 -3.74,5.99 -5.73,13.56 -5.96,22.69 h -15.31 v -3.38 c 0,-12.46 3.71,-22.49 11.12,-30.08 7.42,-7.59 17.24,-11.39 29.46,-11.39 12.22,0 21.54,3.32 28.66,9.97 7.12,6.65 10.68,15.55 10.68,26.7 0,4.75 -0.8,9.23 -2.4,13.44 -1.6,4.21 -3.38,7.74 -5.34,10.59 -1.96,2.85 -4.93,5.87 -8.9,9.08 -3.98,3.2 -7.27,5.67 -9.88,7.39 -2.61,1.72 -6.35,4.07 -11.21,7.03 -9.73,5.82 -16.2,10.32 -19.4,13.53 -4.51,4.51 -7.42,9.43 -8.72,14.77 h 64.79 z"
           id="path4329" />
        <path
           class="cls-1"
           d="m 1549.48,121.19 c 7.59,0 14.09,1.4 19.49,4.18 5.4,2.79 9.52,6.2 12.37,10.23 2.85,4.04 5.1,9.29 6.76,15.75 1.66,6.47 2.67,12.28 3.03,17.44 0.36,5.16 0.53,11.36 0.53,18.6 0,6.65 -0.27,12.64 -0.8,17.98 -0.53,5.34 -1.66,10.92 -3.38,16.73 -1.72,5.82 -4.07,10.65 -7.03,14.51 -2.97,3.86 -7,7.03 -12.1,9.52 -5.1,2.49 -11.16,3.74 -18.16,3.74 -7.36,0 -13.74,-1.28 -19.13,-3.83 -5.4,-2.55 -9.58,-5.72 -12.55,-9.52 -2.97,-3.8 -5.31,-8.63 -7.03,-14.51 -1.72,-5.87 -2.82,-11.45 -3.29,-16.73 -0.48,-5.28 -0.71,-11.36 -0.71,-18.24 0,-5.93 0.15,-11.09 0.45,-15.49 0.29,-4.39 0.89,-9.34 1.78,-14.86 0.89,-5.52 2.28,-10.2 4.18,-14.06 1.9,-3.85 4.33,-7.5 7.3,-10.95 2.96,-3.44 6.85,-6.05 11.66,-7.83 4.81,-1.78 10.35,-2.67 16.64,-2.67 z m 9.79,15.58 c -2.85,-1.36 -6.11,-2.05 -9.79,-2.05 -3.68,0 -6.94,0.68 -9.79,2.05 -2.85,1.37 -5.16,2.94 -6.94,4.72 -1.78,1.78 -3.32,4.42 -4.63,7.92 -1.31,3.5 -2.23,6.44 -2.76,8.81 -0.53,2.38 -0.98,5.79 -1.33,10.24 -0.36,4.45 -0.53,7.6 -0.53,9.43 v 9.17 c 0,4.15 0.06,7.6 0.18,10.32 0.12,2.73 0.41,6.29 0.89,10.68 0.47,4.39 1.3,8.04 2.49,10.95 1.18,2.91 2.67,5.82 4.45,8.72 1.78,2.91 4.24,5.1 7.39,6.59 3.14,1.49 6.79,2.23 10.95,2.23 3.56,0 6.73,-0.65 9.52,-1.96 2.79,-1.3 5.07,-2.85 6.85,-4.63 1.78,-1.78 3.29,-4.3 4.54,-7.56 1.25,-3.26 2.16,-6.11 2.76,-8.54 0.59,-2.43 1.04,-5.7 1.33,-9.79 0.29,-4.09 0.47,-7.12 0.53,-9.08 0.06,-1.96 0.09,-4.83 0.09,-8.63 v -8.9 c 0,-1.78 -0.18,-4.86 -0.53,-9.26 -0.36,-4.39 -0.8,-7.77 -1.33,-10.15 -0.53,-2.37 -1.45,-5.28 -2.76,-8.72 -1.31,-3.44 -2.85,-6.05 -4.63,-7.83 -1.78,-1.78 -4.09,-3.35 -6.94,-4.72 z"
           id="path4331" />
        <path
           class="cls-1"
           d="m 1689.03,233.68 v 13.71 h -82.24 c 0.36,-7 1.42,-13.11 3.2,-18.33 1.78,-5.22 4.54,-9.94 8.28,-14.15 3.74,-4.21 7.39,-7.68 10.95,-10.41 3.56,-2.73 8.6,-6.11 15.13,-10.15 10.21,-6.41 16.91,-11.21 20.11,-14.42 6.64,-6.52 9.97,-13.76 9.97,-21.72 0,-7 -2.26,-12.73 -6.76,-17.18 -4.51,-4.45 -10.39,-6.67 -17.62,-6.67 -8.66,0 -14.86,3 -18.6,8.99 -3.74,5.99 -5.73,13.56 -5.96,22.69 h -15.31 v -3.38 c 0,-12.46 3.71,-22.49 11.12,-30.08 7.42,-7.59 17.24,-11.39 29.46,-11.39 12.22,0 21.54,3.32 28.66,9.97 7.12,6.65 10.68,15.55 10.68,26.7 0,4.75 -0.8,9.23 -2.4,13.44 -1.6,4.21 -3.38,7.74 -5.34,10.59 -1.96,2.85 -4.93,5.87 -8.9,9.08 -3.98,3.2 -7.27,5.67 -9.88,7.39 -2.61,1.72 -6.35,4.07 -11.21,7.03 -9.73,5.82 -16.2,10.32 -19.4,13.53 -4.51,4.51 -7.42,9.43 -8.72,14.77 h 64.79 z"
           id="path4333" />
        <path
           class="cls-1"
           d="m 1712.71,162.13 c 0.36,-13.05 4,-23.14 10.95,-30.26 6.94,-7.12 16.64,-10.68 29.1,-10.68 11.15,0 20.11,3.03 26.88,9.08 6.76,6.05 10.15,14 10.15,23.85 0,5.94 -1.51,11.24 -4.54,15.93 -3.03,4.69 -7.27,8.16 -12.73,10.41 7.12,1.66 12.75,5.22 16.91,10.68 4.15,5.46 6.23,12.05 6.23,19.76 0.12,11.63 -3.89,21.03 -12.01,28.21 -8.13,7.18 -18.66,10.77 -31.59,10.77 -12.93,0 -23.05,-3.53 -30.71,-10.59 -7.65,-7.06 -11.48,-16.58 -11.48,-28.57 v -2.31 h 14.95 c 0.36,9.02 2.91,15.96 7.65,20.83 4.74,4.87 11.33,7.3 19.76,7.3 8.43,0 14.62,-2.28 19.67,-6.85 5.04,-4.57 7.57,-10.47 7.57,-17.71 0,-7.24 -2.52,-13.23 -7.57,-17.62 -5.04,-4.39 -11.84,-6.59 -20.38,-6.59 -2.14,0 -4.87,0.24 -8.19,0.71 v -12.82 c 1.66,0.12 3.38,0.18 5.16,0.18 7.83,0 14.03,-1.87 18.6,-5.61 4.57,-3.74 6.85,-8.81 6.85,-15.22 0,-6.41 -1.99,-11.15 -5.96,-14.95 -3.98,-3.8 -9.29,-5.7 -15.93,-5.7 -7.6,0 -13.53,2.4 -17.8,7.21 -4.27,4.81 -6.53,11.66 -6.76,20.56 h -14.77 z"
           id="path4335" />
      </g>
      <path
         class="cls-7"
         d="m 300.99,427.2 v 51.66 H 0 c 1.3,-26.38 5.21,-49.41 11.73,-69.1 6.51,-19.67 16.61,-37.45 30.29,-53.33 13.68,-15.87 27.04,-28.95 40.07,-39.24 13.03,-10.28 31.49,-23.03 55.38,-38.24 37.35,-24.15 61.89,-42.26 73.62,-54.34 24.32,-24.59 36.48,-51.88 36.48,-81.84 0,-26.38 -8.26,-47.97 -24.76,-64.74 -16.51,-16.77 -38.01,-25.16 -64.5,-25.16 -31.71,0 -54.4,11.3 -68.08,33.88 -13.68,22.59 -20.96,51.1 -21.83,85.53 H 12.38 V 159.53 C 12.38,112.57 25.95,74.78 53.1,46.16 80.24,17.54 116.18,3.22 160.92,3.22 c 44.74,0 78.83,12.53 104.89,37.57 26.06,25.05 39.09,58.59 39.09,100.63 0,17.89 -2.93,34.78 -8.79,50.65 -5.86,15.88 -12.38,29.18 -19.55,39.92 -7.17,10.73 -18.03,22.14 -32.57,34.21 -14.56,12.08 -26.61,21.36 -36.16,27.84 -9.56,6.49 -23.24,15.32 -41.04,26.5 -35.62,21.92 -59.29,38.91 -71.01,50.98 -16.51,17 -27.15,35.56 -31.92,55.68 h 237.15 z"
         id="path4339" />
      <g
         aria-label="pronoide"
         transform="matrix(1.0171801,0,0,0.98755348,-17.443179,-364.25351)"
         id="text22"
         style="font-size:120px;font-family:HelveticaNeueCyr-Roman, HelveticaNeueCyr;fill:#ffffff;stroke:#ffffff;stroke-width:1.01489;stroke-miterlimit:10"
         class="cls-1">
        <path
           d="m 344.6312,648.57825 v 34.80468 H 333.79135 V 592.797 h 10.83985 v 9.96093 q 3.39843,-5.85937 8.55468,-8.67187 5.21485,-2.87109 12.42188,-2.87109 11.95312,0 19.39453,9.49218 7.5,9.49219 7.5,24.96094 0,15.46875 -7.5,24.96094 -7.44141,9.49219 -19.39453,9.49219 -7.20703,0 -12.42188,-2.8125 -5.15625,-2.8711 -8.55468,-8.73047 z m 36.67968,-22.91016 q 0,-11.89453 -4.92187,-18.63281 -4.86328,-6.79688 -13.41797,-6.79688 -8.55469,0 -13.47656,6.79688 -4.86328,6.73828 -4.86328,18.63281 0,11.89453 4.86328,18.69141 4.92187,6.73828 13.47656,6.73828 8.55469,0 13.41797,-6.73828 4.92187,-6.79688 4.92187,-18.69141 z"
           style="letter-spacing:0.01em"
           id="path3824" />
        <path
           d="m 452.18182,602.87512 q -1.8164,-1.05469 -3.98437,-1.52344 -2.10938,-0.52734 -4.6875,-0.52734 -9.14063,0 -14.0625,5.97656 -4.86328,5.91797 -4.86328,17.05078 V 658.422 h -10.83985 v -65.625 h 10.83985 v 10.19531 q 3.39843,-5.97656 8.84765,-8.84766 5.44922,-2.92968 13.24219,-2.92968 1.11328,0 2.46094,0.17578 1.34765,0.11718 2.98828,0.41015 z"
           style="letter-spacing:0em"
           id="path3826" />
        <path
           d="m 482.85904,600.35559 q -8.67188,0 -13.71094,6.79688 -5.03906,6.73828 -5.03906,18.51562 0,11.77734 4.98047,18.57422 5.03906,6.73828 13.76953,6.73828 8.61328,0 13.65234,-6.79687 5.03907,-6.79688 5.03907,-18.51563 0,-11.66016 -5.03907,-18.45703 -5.03906,-6.85547 -13.65234,-6.85547 z m 0,-9.14062 q 14.0625,0 22.08984,9.14062 8.02735,9.14063 8.02735,25.3125 0,16.11328 -8.02735,25.3125 -8.02734,9.14063 -22.08984,9.14063 -14.12109,0 -22.14844,-9.14063 -7.96875,-9.19922 -7.96875,-25.3125 0,-16.17187 7.96875,-25.3125 8.02735,-9.14062 22.14844,-9.14062 z"
           style="letter-spacing:0.01em"
           id="path3828" />
        <path
           d="M 586.5981,618.81262 V 658.422 h -10.78125 v -39.25782 q 0,-9.3164 -3.63281,-13.94531 -3.63282,-4.6289 -10.89844,-4.6289 -8.73047,0 -13.76953,5.5664 -5.03906,5.56641 -5.03906,15.17578 V 658.422 h -10.83985 v -65.625 h 10.83985 v 10.19531 q 3.86718,-5.91797 9.08203,-8.84766 5.27343,-2.92968 12.1289,-2.92968 11.3086,0 17.10938,7.03125 5.80078,6.97265 5.80078,20.5664 z"
           style="letter-spacing:0.01em"
           id="path3830" />
        <path
           d="m 634.73169,600.35559 q -8.67188,0 -13.71094,6.79688 -5.03906,6.73828 -5.03906,18.51562 0,11.77734 4.98047,18.57422 5.03906,6.73828 13.76953,6.73828 8.61328,0 13.65234,-6.79687 5.03907,-6.79688 5.03907,-18.51563 0,-11.66016 -5.03907,-18.45703 -5.03906,-6.85547 -13.65234,-6.85547 z m 0,-9.14062 q 14.0625,0 22.08984,9.14062 8.02735,9.14063 8.02735,25.3125 0,16.11328 -8.02735,25.3125 -8.02734,9.14063 -22.08984,9.14063 -14.12109,0 -22.14844,-9.14063 -7.96875,-9.19922 -7.96875,-25.3125 0,-16.17187 7.96875,-25.3125 8.02735,-9.14062 22.14844,-9.14062 z"
           style="letter-spacing:0.01em"
           id="path3832" />
        <path
           d="m 683.91998,592.797 h 10.78125 v 65.625 h -10.78125 z m 0,-25.54688 h 10.78125 v 13.65235 h -10.78125 z"
           style="letter-spacing:0.01em"
           id="path3834" />
        <path
           d="m 761.6434,602.75793 v -35.50781 h 10.78125 V 658.422 H 761.6434 v -9.84375 q -3.39844,5.85937 -8.61328,8.73047 -5.15625,2.8125 -12.42187,2.8125 -11.89454,0 -19.39454,-9.49219 -7.4414,-9.49219 -7.4414,-24.96094 0,-15.46875 7.4414,-24.96094 7.5,-9.49218 19.39454,-9.49218 7.26562,0 12.42187,2.87109 5.21484,2.8125 8.61328,8.67187 z m -36.73828,22.91016 q 0,11.89453 4.86328,18.69141 4.92188,6.73828 13.47656,6.73828 8.55469,0 13.47657,-6.73828 4.92187,-6.79688 4.92187,-18.69141 0,-11.89453 -4.92187,-18.63281 -4.92188,-6.79688 -13.47657,-6.79688 -8.55468,0 -13.47656,6.79688 -4.86328,6.73828 -4.86328,18.63281 z"
           style="letter-spacing:0.01em"
           id="path3836" />
        <path
           d="m 851.96451,622.91418 v 5.27344 H 802.3942 q 0.70312,11.13281 6.67968,16.99219 6.03516,5.80078 16.75782,5.80078 6.21093,0 12.01171,-1.52344 5.85938,-1.52343 11.60157,-4.57031 v 10.19531 q -5.80078,2.46094 -11.89453,3.75 -6.09375,1.28907 -12.36329,1.28907 -15.70312,0 -24.90234,-9.14063 -9.14062,-9.14062 -9.14062,-24.72656 0,-16.11328 8.67187,-25.54688 8.73047,-9.49218 23.49609,-9.49218 13.24219,0 20.91797,8.55468 7.73438,8.4961 7.73438,23.14453 z m -10.78125,-3.16406 q -0.11719,-8.84765 -4.98047,-14.12109 -4.80469,-5.27344 -12.77344,-5.27344 -9.02344,0 -14.47265,5.09766 -5.39063,5.09765 -6.21094,14.35547 z"
           style="letter-spacing:0.01em"
           id="path3838" />
      </g>
    </g>
  </g>
</svg>
