<?xml version="1.0" encoding="UTF-8" standalone="no"?>
<svg
   id="Layer_1"
   viewBox="0 0 163 42.999998"
   version="1.1"
   sodipodi:docname="aniversario_web_curvas.svg"
   inkscape:version="1.2.2 (b0a8486541, 2022-12-01, custom)"
   width="163"
   height="43"
   xmlns:inkscape="http://www.inkscape.org/namespaces/inkscape"
   xmlns:sodipodi="http://sodipodi.sourceforge.net/DTD/sodipodi-0.dtd"
   xmlns="http://www.w3.org/2000/svg"
   xmlns:svg="http://www.w3.org/2000/svg">
  <sodipodi:namedview
     id="namedview425"
     pagecolor="#ffffff"
     bordercolor="#000000"
     borderopacity="0.25"
     inkscape:showpageshadow="2"
     inkscape:pageopacity="0.0"
     inkscape:pagecheckerboard="0"
     inkscape:deskcolor="#d1d1d1"
     showgrid="false"
     inkscape:zoom="7.791411"
     inkscape:cx="81.5"
     inkscape:cy="21.562205"
     inkscape:window-width="1920"
     inkscape:window-height="1011"
     inkscape:window-x="0"
     inkscape:window-y="32"
     inkscape:window-maximized="1"
     inkscape:current-layer="text422" />
  <defs
     id="defs396">
    <style
       id="style383">.cls-1{font-size:670.85px;}.cls-1,.cls-2,.cls-3{fill:#325578;}.cls-1,.cls-3,.cls-4,.cls-5{font-family:HelveticaNeueCyr-Roman, HelveticaNeueCyr;}.cls-6{letter-spacing:0em;}.cls-2,.cls-4,.cls-7,.cls-8,.cls-5{stroke:#fff;stroke-miterlimit:10;}.cls-2,.cls-8{stroke-width:7px;}.cls-9{letter-spacing:.01em;}.cls-3{letter-spacing:.01em;}.cls-3,.cls-4{font-size:178px;}.cls-4{letter-spacing:.02em;stroke-width:2px;}.cls-4,.cls-5{fill:#fff;}.cls-7{fill:#233b54;stroke-width:5px;}.cls-8{fill:#e04000;}.cls-5{filter:url(#drop-shadow-1);font-size:130px;}</style>
    <filter
       id="drop-shadow-1"
       filterUnits="userSpaceOnUse">
      <feOffset
         dx="5"
         dy="5"
         id="feOffset385" />
      <feGaussianBlur
         result="blur"
         stdDeviation="8"
         id="feGaussianBlur387" />
      <feFlood
         flood-color="#000"
         flood-opacity=".72"
         id="feFlood389" />
      <feComposite
         in2="blur"
         operator="in"
         id="feComposite391"
         result="result1" />
      <feComposite
         in="SourceGraphic"
         in2="result1"
         id="feComposite393" />
    </filter>
  </defs>
  <g
     id="g643"
     transform="matrix(0.08610566,0,0,0.08610566,-3.8099799,-6.2266051)">
    <g
       aria-label="aniversario"
       transform="translate(933.06,491.48)"
       id="text400"
       class="cls-3"
       style="font-size:178px;font-family:HelveticaNeueCyr-Roman, HelveticaNeueCyr;letter-spacing:0.01em;fill:#325578">
      <path
         d="m 61.013672,-48.932617 q -19.381836,0 -26.856445,4.432617 -7.47461,4.432617 -7.47461,15.123047 0,8.517578 5.5625,13.558594 5.649414,4.954101 15.296875,4.954101 13.297852,0 21.293945,-9.386719 8.083008,-9.473632 8.083008,-25.118164 v -3.563476 z m 31.897461,-6.605469 V 0 H 76.918945 v -14.775391 q -5.475586,8.8652348 -13.645508,13.1240238 -8.169921,4.171875 -19.990234,4.171875 -14.949219,0 -23.814453,-8.34375 -8.77832,-8.4306638 -8.77832,-22.5107418 0,-16.426758 10.951172,-24.770508 11.038085,-8.34375 32.853515,-8.34375 h 22.423828 v -1.564453 q 0,-11.038086 -7.300781,-17.035157 -7.213867,-6.083984 -20.337891,-6.083984 -8.34375,0 -16.252929,1.999024 -7.90918,1.999023 -15.209961,5.99707 v -14.775391 q 8.77832,-3.389648 17.035156,-5.041015 8.256836,-1.738282 16.079102,-1.738282 21.120117,0 31.549804,10.951172 10.429688,10.951172 10.429688,33.201172 z"
         id="path3459" />
      <path
         d="M 208.54855,-58.753906 V 0 h -15.99218 v -58.232422 q 0,-13.819336 -5.38868,-20.685547 -5.38867,-6.866211 -16.16601,-6.866211 -12.9502,0 -20.42481,8.256836 -7.47461,8.256836 -7.47461,22.510742 V 0 h -16.0791 v -97.34375 h 16.0791 v 15.123047 q 5.73633,-8.77832 13.47168,-13.124024 7.82227,-4.345703 17.99122,-4.345703 16.77441,0 25.3789,10.429688 8.60449,10.342773 8.60449,30.506836 z"
         id="path3461" />
      <path
         d="M 242.22601,-97.34375 H 258.2182 V 0 h -15.99219 z m 0,-37.89453 h 15.99219 v 20.25098 h -15.99219 z"
         id="path3463" />
      <path
         d="m 281.98746,-97.34375 h 16.94824 l 30.41992,81.699219 30.41992,-81.699219 h 16.94825 L 340.21988,0 h -21.72852 z"
         id="path3465" />
      <path
         d="m 483.84363,-52.669922 v 7.822266 h -73.5293 q 1.04297,16.513672 9.9082,25.205078 8.95215,8.604492 24.85743,8.604492 9.21289,0 17.81738,-2.259766 8.69141,-2.259765 17.20898,-6.779296 v 15.1230464 q -8.60449,3.6503907 -17.64355,5.56250004 -9.03906,1.91210936 -18.33887,1.91210936 -23.29297,0 -36.93848,-13.5585938 -13.55859,-13.558594 -13.55859,-36.677734 0,-23.901367 12.86328,-37.894532 12.9502,-14.080078 34.85254,-14.080078 19.64258,0 31.02832,12.689453 11.47266,12.60254 11.47266,34.331055 z m -15.99219,-4.693359 q -0.17383,-13.124024 -7.38769,-20.946289 -7.12696,-7.822266 -18.94727,-7.822266 -13.38477,0 -21.46777,7.561524 -7.9961,7.561523 -9.21289,21.293945 z"
         id="path3467" />
      <path
         d="m 568.2789,-82.394531 q -2.69434,-1.564453 -5.91016,-2.259766 -3.1289,-0.782226 -6.95312,-0.782226 -13.55859,0 -20.85938,8.865234 -7.21386,8.77832 -7.21386,25.291992 V 0 h -16.0791 v -97.34375 h 16.0791 v 15.123047 q 5.04101,-8.865234 13.12402,-13.124024 8.08301,-4.345703 19.64258,-4.345703 1.65137,0 3.65039,0.260743 1.99902,0.173828 4.43262,0.608398 z"
         id="path3469" />
      <path
         d="m 648.88995,-94.475586 v 15.123047 q -6.77929,-3.476563 -14.08007,-5.214844 -7.30079,-1.738281 -15.12305,-1.738281 -11.90723,0 -17.9043,3.650391 -5.91015,3.65039 -5.91015,10.951171 0,5.5625 4.25878,8.778321 4.25879,3.128906 17.12207,5.99707 l 5.47559,1.216797 q 17.03516,3.650391 24.16211,10.342773 7.21387,6.605469 7.21387,18.512696 0,13.558593 -10.77735,21.4677731 -10.69043,7.9091797 -29.46386,7.9091797 -7.82227,0 -16.33985,-1.56445311 -8.43066,-1.47753906 -17.81738,-4.51953129 V -20.077148 q 8.86523,4.606445 17.46973,6.953125 8.60449,2.259765 17.03515,2.259765 11.29883,0 17.38282,-3.824219 6.08398,-3.911132 6.08398,-10.951171 0,-6.518555 -4.43262,-9.995118 -4.3457,-3.476562 -19.20801,-6.692382 l -5.5625,-1.303711 q -14.8623,-3.128907 -21.46777,-9.560547 -6.60547,-6.518555 -6.60547,-17.817383 0,-13.732422 9.73438,-21.207031 9.73437,-7.47461 27.63867,-7.47461 8.86523,0 16.6875,1.303711 7.82226,1.303711 14.42773,3.911133 z"
         id="path3471" />
      <path
         d="m 725.5899,-48.932617 q -19.38183,0 -26.85644,4.432617 -7.47461,4.432617 -7.47461,15.123047 0,8.517578 5.5625,13.558594 5.64941,4.954101 15.29688,4.954101 13.29785,0 21.29394,-9.386719 8.08301,-9.473632 8.08301,-25.118164 v -3.563476 z m 31.89747,-6.605469 V 0 h -15.99219 v -14.775391 q -5.47559,8.8652348 -13.64551,13.1240238 -8.16992,4.171875 -19.99023,4.171875 -14.94922,0 -23.81446,-8.34375 -8.77832,-8.4306638 -8.77832,-22.5107418 0,-16.426758 10.95117,-24.770508 11.03809,-8.34375 32.85352,-8.34375 h 22.42383 v -1.564453 q 0,-11.038086 -7.30078,-17.035157 -7.21387,-6.083984 -20.33789,-6.083984 -8.34375,0 -16.25293,1.999024 -7.90918,1.999023 -15.20996,5.99707 v -14.775391 q 8.77832,-3.389648 17.03515,-5.041015 8.25684,-1.738282 16.0791,-1.738282 21.12012,0 31.54981,10.951172 10.42969,10.951172 10.42969,33.201172 z"
         id="path3473" />
      <path
         d="m 848.61499,-82.394531 q -2.69434,-1.564453 -5.91016,-2.259766 -3.1289,-0.782226 -6.95312,-0.782226 -13.55859,0 -20.85938,8.865234 -7.21386,8.77832 -7.21386,25.291992 V 0 h -16.0791 v -97.34375 h 16.0791 v 15.123047 q 5.04101,-8.865234 13.12402,-13.124024 8.08301,-4.345703 19.64258,-4.345703 1.65137,0 3.65039,0.260743 1.99902,0.173828 4.43262,0.608398 z"
         id="path3475" />
      <path
         d="m 867.16943,-97.34375 h 15.99219 V 0 h -15.99219 z m 0,-37.89453 h 15.99219 v 20.25098 h -15.99219 z"
         id="path3477" />
      <path
         d="m 956.12421,-86.131836 q -12.86328,0 -20.33789,10.082031 -7.47461,9.995118 -7.47461,27.464844 0,17.469727 7.38769,27.551758 7.47461,9.995117 20.42481,9.995117 12.77636,0 20.25097,-10.082031 7.47461,-10.082031 7.47461,-27.464844 0,-17.295898 -7.47461,-27.37793 -7.47461,-10.168945 -20.25097,-10.168945 z m 0,-13.558594 q 20.85937,0 32.7666,13.558594 11.90719,13.558594 11.90719,37.546875 0,23.901367 -11.90719,37.546875 -11.90723,13.5585938 -32.7666,13.5585938 -20.94629,0 -32.85352,-13.5585938 -11.82031,-13.645508 -11.82031,-37.546875 0,-23.988281 11.82031,-37.546875 11.90723,-13.558594 32.85352,-13.558594 z"
         id="path3479" />
    </g>
    <circle
       class="cls-2"
       cx="608.72998"
       cy="331.53"
       r="236.67"
       id="circle402" />
    <circle
       class="cls-8"
       cx="694.21997"
       cy="310.03"
       r="190.94"
       id="circle404" />
    <circle
       class="cls-7"
       cx="465.45001"
       cy="344.64001"
       r="143.11"
       id="circle406" />
    <text
       class="cls-5"
       transform="matrix(1.03,0,0,1,329.34,367.64)"
       id="text414"><tspan
         class="cls-9"
         x="0"
         y="0"
         id="tspan408">p</tspan><tspan
         class="cls-6"
         x="78.779999"
         y="0"
         id="tspan410">r</tspan><tspan
         class="cls-9"
         x="121.42"
         y="0"
         id="tspan412">onoide</tspan></text>
    <g
       aria-label="2003-2023"
       transform="translate(933.16,338.75)"
       id="text418"
       class="cls-4"
       style="font-size:178px;font-family:HelveticaNeueCyr-Roman, HelveticaNeueCyr;letter-spacing:0.02em;fill:#ffffff;stroke:#ffffff;stroke-width:2px;stroke-miterlimit:10">
      <path
         d="M 34.157227,-14.775391 H 95.431641 V 0 H 13.037109 v -14.775391 q 9.995118,-10.342773 27.204102,-27.725586 17.295898,-17.469726 21.728516,-22.510742 8.430664,-9.473633 11.733398,-15.992187 3.389648,-6.605469 3.389648,-12.950196 0,-10.342778 -7.300781,-16.861328 -7.213867,-6.51855 -18.860351,-6.51855 -8.256836,0 -17.469727,2.86816 -9.125977,2.86816 -19.555664,8.69141 v -17.73047 q 10.603516,-4.25879 19.816406,-6.43164 9.212891,-2.17285 16.861328,-2.17285 20.164063,0 32.158203,10.08203 11.994141,10.08203 11.994141,26.943356 0,7.996093 -3.041992,15.209961 -2.955078,7.126953 -10.864258,16.861328 -2.172851,2.520508 -13.819336,14.601562 -11.646484,11.994141 -32.853515,33.635742 z"
         id="path3482" />
      <path
         d="m 173.39008,-118.20313 q -13.5586,0 -20.42481,13.38477 -6.7793,13.297852 -6.7793,40.067383 0,26.682618 6.7793,40.067383 6.86621,13.297852 20.42481,13.297852 13.6455,0 20.4248,-13.297852 6.86621,-13.384765 6.86621,-40.067383 0,-26.769531 -6.86621,-40.067383 -6.7793,-13.38477 -20.4248,-13.38477 z m 0,-13.90624 q 21.81543,0 33.28808,17.29589 11.55957,17.208988 11.55957,50.062503 0,32.766602 -11.55957,50.0625 -11.47265,17.2089848 -33.28808,17.2089848 -21.81543,0 -33.375,-17.2089848 -11.47266,-17.295898 -11.47266,-50.0625 0,-32.853515 11.47266,-50.062503 11.55957,-17.29589 33.375,-17.29589 z"
         id="path3484" />
      <path
         d="m 290.1991,-118.20313 q -13.5586,0 -20.42481,13.38477 -6.77929,13.297852 -6.77929,40.067383 0,26.682618 6.77929,40.067383 6.86621,13.297852 20.42481,13.297852 13.6455,0 20.4248,-13.297852 6.86621,-13.384765 6.86621,-40.067383 0,-26.769531 -6.86621,-40.067383 -6.7793,-13.38477 -20.4248,-13.38477 z m 0,-13.90624 q 21.81543,0 33.28808,17.29589 11.55957,17.208988 11.55957,50.062503 0,32.766602 -11.55957,50.0625 -11.47265,17.2089848 -33.28808,17.2089848 -21.81543,0 -33.375,-17.2089848 -11.47266,-17.295898 -11.47266,-50.0625 0,-32.853515 11.47266,-50.062503 11.55957,-17.29589 33.375,-17.29589 z"
         id="path3486" />
      <path
         d="m 422.65265,-69.96582 q 12.60254,2.694336 19.64258,11.211914 7.12695,8.517578 7.12695,21.033203 0,19.208008 -13.21094,29.7246093 -13.21093,10.5166015 -37.54687,10.5166015 -8.16992,0 -16.86133,-1.65136717 -8.60449,-1.56445313 -17.81738,-4.78027343 V -20.859375 q 7.30078,4.258789 15.99218,6.431641 8.69141,2.172851 18.16504,2.172851 16.51368,0 25.11817,-6.518554 8.6914,-6.518555 8.6914,-18.947266 0,-11.472656 -8.083,-17.904297 -7.9961,-6.518555 -22.33692,-6.518555 h -15.12305 v -14.427734 h 15.81836 q 12.9502,0 19.81641,-5.12793 6.86621,-5.214843 6.86621,-14.949218 0,-9.995113 -7.12695,-15.296873 -7.04004,-5.38867 -20.25098,-5.38867 -7.21387,0 -15.4707,1.56445 -8.25684,1.56445 -18.16504,4.86719 v -15.64454 q 9.99512,-2.78124 18.68652,-4.17187 8.77832,-1.39062 16.51367,-1.39062 19.99024,0 31.63672,9.12597 11.64649,9.03906 11.64649,24.509767 0,10.777344 -6.1709,18.251953 -6.1709,7.387696 -17.55664,10.25586 z"
         id="path3488" />
      <path
         d="m 475.92749,-55.885742 h 46.84668 v 14.253906 h -46.84668 z"
         id="path3490" />
      <path
         d="m 569.1828,-14.775391 h 61.27441 V 0 h -82.39453 v -14.775391 q 9.99512,-10.342773 27.2041,-27.725586 17.2959,-17.469726 21.72852,-22.510742 8.43066,-9.473633 11.7334,-15.992187 3.38965,-6.605469 3.38965,-12.950196 0,-10.342778 -7.30078,-16.861328 -7.21387,-6.51855 -18.86036,-6.51855 -8.25683,0 -17.46972,2.86816 -9.12598,2.86816 -19.55567,8.69141 v -17.73047 q 10.60352,-4.25879 19.81641,-6.43164 9.21289,-2.17285 16.86133,-2.17285 20.16406,0 32.1582,10.08203 11.99414,10.08203 11.99414,26.943356 0,7.996093 -3.04199,15.209961 -2.95508,7.126953 -10.86426,16.861328 -2.17285,2.520508 -13.81933,14.601562 -11.64649,11.994141 -32.85352,33.635742 z"
         id="path3492" />
      <path
         d="m 708.41565,-118.20313 q -13.55859,0 -20.42481,13.38477 -6.77929,13.297852 -6.77929,40.067383 0,26.682618 6.77929,40.067383 6.86622,13.297852 20.42481,13.297852 13.64551,0 20.4248,-13.297852 6.86622,-13.384765 6.86622,-40.067383 0,-26.769531 -6.86622,-40.067383 -6.77929,-13.38477 -20.4248,-13.38477 z m 0,-13.90624 q 21.81543,0 33.28809,17.29589 11.55957,17.208988 11.55957,50.062503 0,32.766602 -11.55957,50.0625 -11.47266,17.2089848 -33.28809,17.2089848 -21.81543,0 -33.375,-17.2089848 -11.47266,-17.295898 -11.47266,-50.0625 0,-32.853515 11.47266,-50.062503 11.55957,-17.29589 33.375,-17.29589 z"
         id="path3494" />
      <path
         d="m 802.80084,-14.775391 h 61.27442 V 0 h -82.39453 v -14.775391 q 9.99511,-10.342773 27.2041,-27.725586 17.2959,-17.469726 21.72851,-22.510742 8.43067,-9.473633 11.7334,-15.992187 3.38965,-6.605469 3.38965,-12.950196 0,-10.342778 -7.30078,-16.861328 -7.21387,-6.51855 -18.86035,-6.51855 -8.25684,0 -17.46973,2.86816 -9.12598,2.86816 -19.55566,8.69141 v -17.73047 q 10.60351,-4.25879 19.8164,-6.43164 9.21289,-2.17285 16.86133,-2.17285 20.16406,0 32.1582,10.08203 11.99414,10.08203 11.99414,26.943356 0,7.996093 -3.04199,15.209961 -2.95508,7.126953 -10.86426,16.861328 -2.17285,2.520508 -13.81933,14.601562 -11.64649,11.994141 -32.85352,33.635742 z"
         id="path3496" />
      <path
         d="m 957.67822,-69.96582 q 12.60254,2.694336 19.64258,11.211914 7.12695,8.517578 7.12695,21.033203 0,19.208008 -13.21093,29.7246093 -13.21094,10.5166015 -37.54688,10.5166015 -8.16992,0 -16.86133,-1.65136717 -8.60449,-1.56445313 -17.81738,-4.78027343 V -20.859375 q 7.30078,4.258789 15.99219,6.431641 8.6914,2.172851 18.16504,2.172851 16.51367,0 25.11816,-6.518554 8.69141,-6.518555 8.69141,-18.947266 0,-11.472656 -8.08301,-17.904297 -7.99609,-6.518555 -22.33691,-6.518555 h -15.12305 v -14.427734 h 15.81836 q 12.95019,0 19.8164,-5.12793 6.86622,-5.214843 6.86622,-14.949218 0,-9.995113 -7.12696,-15.296873 -7.04004,-5.38867 -20.25097,-5.38867 -7.21387,0 -15.47071,1.56445 -8.25683,1.56445 -18.16504,4.86719 v -15.64454 q 9.99512,-2.78124 18.68653,-4.17187 8.77832,-1.39062 16.51367,-1.39062 19.99023,0 31.63672,9.12597 11.64648,9.03906 11.64648,24.509767 0,10.777344 -6.1709,18.251953 -6.1709,7.387696 -17.55664,10.25586 z"
         id="path3498" />
    </g>
    <g
       aria-label="2"
       transform="matrix(0.97,0,0,1,0,570.21)"
       id="text422"
       class="cls-1"
       style="font-size:670.85px;font-family:HelveticaNeueCyr-Roman, HelveticaNeueCyr;fill:#325578">
      <path
         d="M 128.73244,-55.685789 H 359.66468 V 0 H 49.13452 v -55.685789 q 37.669798,-38.980052 102.52736,-104.492741 65.18513,-65.84026 81.89087,-84.83894 31.77366,-35.70442 44.22107,-60.27168 12.77497,-24.89482 12.77497,-48.80696 0,-38.98005 -27.51533,-63.54731 -27.18777,-24.56726 -71.08127,-24.56726 -31.11853,0 -65.84026,10.8096 -34.39416,10.80959 -73.701776,32.75634 v -66.82294 q 39.962743,-16.05061 74.684466,-24.2397 34.72173,-8.18909 63.54732,-8.18909 75.99472,0 121.19848,37.99737 45.20376,37.99736 45.20376,101.54467 0,30.13584 -11.46472,57.32361 -11.13716,26.8602 -40.94544,63.54731 -8.18908,9.49934 -52.08259,55.03066 -43.8935,45.20376 -123.81899,126.767061 z"
         id="path3585" />
    </g>
    <g
       aria-label="pronoide"
       transform="scale(1.0148892,0.98532924)"
       id="text22"
       style="font-size:120px;font-family:HelveticaNeueCyr-Roman, HelveticaNeueCyr;fill:#ffffff;stroke:#ffffff;stroke-width:1.01489;stroke-miterlimit:10"
       class="cls-1">
      <path
         d="m 345.96246,373.03314 v 34.80469 h -10.83984 v -90.58594 h 10.83984 v 9.96094 q 3.39844,-5.85938 8.55469,-8.67188 5.21484,-2.87109 12.42188,-2.87109 11.95312,0 19.39453,9.49219 7.5,9.49219 7.5,24.96094 0,15.46875 -7.5,24.96093 -7.44141,9.49219 -19.39453,9.49219 -7.20704,0 -12.42188,-2.8125 -5.15625,-2.87109 -8.55469,-8.73047 z m 36.67969,-22.91015 q 0,-11.89454 -4.92187,-18.63282 -4.86329,-6.79687 -13.41797,-6.79687 -8.55469,0 -13.47657,6.79687 -4.86328,6.73828 -4.86328,18.63282 0,11.89453 4.86328,18.6914 4.92188,6.73828 13.47657,6.73828 8.55468,0 13.41797,-6.73828 4.92187,-6.79687 4.92187,-18.6914 z"
         style="letter-spacing:0.01em"
         id="path3501" />
      <path
         d="m 453.51309,327.33002 q -1.8164,-1.05469 -3.98437,-1.52344 -2.10938,-0.52734 -4.6875,-0.52734 -9.14063,0 -14.0625,5.97656 -4.86328,5.91797 -4.86328,17.05078 v 34.57031 h -10.83985 v -65.625 h 10.83985 v 10.19531 q 3.39843,-5.97656 8.84765,-8.84765 5.44922,-2.92969 13.24219,-2.92969 1.11328,0 2.46094,0.17578 1.34765,0.11719 2.98828,0.41016 z"
         id="path3503" />
      <path
         d="m 484.19031,324.81049 q -8.67188,0 -13.71094,6.79687 -5.03906,6.73828 -5.03906,18.51563 0,11.77734 4.98047,18.57421 5.03906,6.73829 13.76953,6.73829 8.61328,0 13.65234,-6.79688 5.03906,-6.79687 5.03906,-18.51562 0,-11.66016 -5.03906,-18.45704 -5.03906,-6.85546 -13.65234,-6.85546 z m 0,-9.14063 q 14.0625,0 22.08984,9.14063 8.02735,9.14062 8.02735,25.3125 0,16.11328 -8.02735,25.3125 -8.02734,9.14062 -22.08984,9.14062 -14.1211,0 -22.14844,-9.14062 -7.96875,-9.19922 -7.96875,-25.3125 0,-16.17188 7.96875,-25.3125 8.02734,-9.14063 22.14844,-9.14063 z"
         style="letter-spacing:0.01em"
         id="path3505" />
      <path
         d="m 587.92937,343.26752 v 39.60937 h -10.78125 v -39.25781 q 0,-9.31641 -3.63282,-13.94531 -3.63281,-4.62891 -10.89843,-4.62891 -8.73047,0 -13.76953,5.56641 -5.03907,5.5664 -5.03907,15.17578 v 37.08984 h -10.83984 v -65.625 h 10.83984 v 10.19531 q 3.86719,-5.91796 9.08203,-8.84765 5.27344,-2.92969 12.12891,-2.92969 11.30859,0 17.10938,7.03125 5.80078,6.97266 5.80078,20.56641 z"
         style="letter-spacing:0.01em"
         id="path3507" />
      <path
         d="m 636.06296,324.81049 q -8.67188,0 -13.71094,6.79687 -5.03906,6.73828 -5.03906,18.51563 0,11.77734 4.98047,18.57421 5.03906,6.73829 13.76953,6.73829 8.61328,0 13.65234,-6.79688 5.03906,-6.79687 5.03906,-18.51562 0,-11.66016 -5.03906,-18.45704 -5.03906,-6.85546 -13.65234,-6.85546 z m 0,-9.14063 q 14.0625,0 22.08984,9.14063 8.02735,9.14062 8.02735,25.3125 0,16.11328 -8.02735,25.3125 -8.02734,9.14062 -22.08984,9.14062 -14.1211,0 -22.14844,-9.14062 -7.96875,-9.19922 -7.96875,-25.3125 0,-16.17188 7.96875,-25.3125 8.02734,-9.14063 22.14844,-9.14063 z"
         style="letter-spacing:0.01em"
         id="path3509" />
      <path
         d="m 685.25125,317.25189 h 10.78125 v 65.625 h -10.78125 z m 0,-25.54687 h 10.78125 v 13.65234 h -10.78125 z"
         style="letter-spacing:0.01em"
         id="path3511" />
      <path
         d="m 762.97467,327.21283 v -35.50781 h 10.78125 v 91.17187 h -10.78125 v -9.84375 q -3.39844,5.85938 -8.61328,8.73047 -5.15625,2.8125 -12.42188,2.8125 -11.89453,0 -19.39453,-9.49219 -7.4414,-9.49218 -7.4414,-24.96093 0,-15.46875 7.4414,-24.96094 7.5,-9.49219 19.39453,-9.49219 7.26563,0 12.42188,2.87109 5.21484,2.8125 8.61328,8.67188 z m -36.73828,22.91016 q 0,11.89453 4.86328,18.6914 4.92188,6.73828 13.47656,6.73828 8.55469,0 13.47657,-6.73828 4.92187,-6.79687 4.92187,-18.6914 0,-11.89454 -4.92187,-18.63282 -4.92188,-6.79687 -13.47657,-6.79687 -8.55468,0 -13.47656,6.79687 -4.86328,6.73828 -4.86328,18.63282 z"
         style="letter-spacing:0.01em"
         id="path3513" />
      <path
         d="m 853.29578,347.36908 v 5.27344 h -49.57032 q 0.70313,11.13281 6.67969,16.99218 6.03516,5.80079 16.75781,5.80079 6.21094,0 12.01172,-1.52344 5.85938,-1.52344 11.60157,-4.57031 v 10.19531 q -5.80079,2.46094 -11.89454,3.75 -6.09375,1.28906 -12.36328,1.28906 -15.70312,0 -24.90234,-9.14062 -9.14063,-9.14063 -9.14063,-24.72657 0,-16.11328 8.67188,-25.54687 8.73047,-9.49219 23.49609,-9.49219 13.24219,0 20.91797,8.55469 7.73438,8.49609 7.73438,23.14453 z m -10.78125,-3.16406 q -0.11719,-8.84766 -4.98047,-14.1211 -4.80469,-5.27343 -12.77344,-5.27343 -9.02344,0 -14.47266,5.09765 -5.39062,5.09766 -6.21093,14.35547 z"
         style="letter-spacing:0.01em"
         id="path3515" />
    </g>
  </g>
</svg>
