<?xml version="1.0" encoding="UTF-8" standalone="no"?>
<svg
   id="Layer_1"
   viewBox="0 0 161.00001 43"
   version="1.1"
   sodipodi:docname="anniversary_web_curvas.svg"
   width="161"
   height="43"
   inkscape:version="1.2.2 (b0a8486541, 2022-12-01, custom)"
   xmlns:inkscape="http://www.inkscape.org/namespaces/inkscape"
   xmlns:sodipodi="http://sodipodi.sourceforge.net/DTD/sodipodi-0.dtd"
   xmlns="http://www.w3.org/2000/svg"
   xmlns:svg="http://www.w3.org/2000/svg">
  <sodipodi:namedview
     id="namedview33"
     pagecolor="#ffffff"
     bordercolor="#000000"
     borderopacity="0.25"
     inkscape:showpageshadow="2"
     inkscape:pageopacity="0.0"
     inkscape:pagecheckerboard="0"
     inkscape:deskcolor="#d1d1d1"
     showgrid="false"
     inkscape:zoom="7.8881988"
     inkscape:cx="80.5"
     inkscape:cy="21.551181"
     inkscape:window-width="1920"
     inkscape:window-height="1011"
     inkscape:window-x="0"
     inkscape:window-y="32"
     inkscape:window-maximized="1"
     inkscape:current-layer="Layer_1" />
  <defs
     id="defs4">
    <style
       id="style2">.cls-1{font-size:130px;}.cls-1,.cls-2,.cls-3,.cls-4{font-family:HelveticaNeueCyr-Roman, HelveticaNeueCyr;}.cls-1,.cls-5,.cls-3,.cls-6,.cls-7{stroke:#fff;stroke-miterlimit:10;}.cls-1,.cls-3{fill:#fff;}.cls-2{font-size:670.85px;}.cls-2,.cls-5,.cls-4{fill:#325578;}.cls-8{letter-spacing:0em;}.cls-5,.cls-7{stroke-width:7px;}.cls-9{letter-spacing:.01em;}.cls-3{font-size:178px;letter-spacing:.02em;stroke-width:2px;}.cls-6{fill:#233b54;stroke-width:5px;}.cls-7{fill:#e04000;}.cls-4{font-size:168px;letter-spacing:.01em;}</style>
  </defs>
  <g
     id="g780"
     transform="matrix(0.08480974,0,0,0.08480974,-3.6044398,-29.327651)">
    <g
       aria-label="anniversary"
       id="text8"
       class="cls-4"
       style="font-size:168px;font-family:HelveticaNeueCyr-Roman, HelveticaNeueCyr;letter-spacing:0.01em;fill:#325578">
      <path
         d="m 989.00647,723.41888 q -18.29297,0 -25.34766,4.1836 -7.05468,4.18359 -7.05468,14.27344 0,8.03906 5.25,12.79687 5.33203,4.67578 14.4375,4.67578 12.55078,0 20.09765,-8.85937 7.62892,-8.94141 7.62892,-23.70703 v -3.36329 z m 30.10543,-6.23437 v 52.41797 h -15.0937 v -13.94531 q -5.16798,8.36718 -12.87892,12.38671 -7.71094,3.9375 -18.86719,3.9375 -14.10937,0 -22.47656,-7.875 -8.28515,-7.95703 -8.28515,-21.24609 0,-15.50391 10.33593,-23.37891 10.41797,-7.875 31.00782,-7.875 h 21.16407 v -1.47656 q 0,-10.41797 -6.89064,-16.07812 -6.80859,-5.74219 -19.19531,-5.74219 -7.875,0 -15.33984,1.88672 -7.46485,1.88672 -14.35547,5.66015 v -13.94531 q 8.28515,-3.19922 16.07812,-4.75781 7.79297,-1.64063 15.17578,-1.64063 19.9336,0 29.77736,10.33594 9.8437,10.33594 9.8437,31.33594 z"
         id="path3655" />
      <path
         d="m 1128.2529,714.14935 v 55.45313 h -15.0938 v -54.96094 q 0,-13.04297 -5.0859,-19.52344 -5.0859,-6.48047 -15.2578,-6.48047 -12.2227,0 -19.2774,7.79297 -7.0547,7.79297 -7.0547,21.2461 v 51.92578 h -15.1757 v -91.875 h 15.1757 v 14.27344 q 5.4141,-8.28516 12.7149,-12.38672 7.3828,-4.10157 16.9805,-4.10157 15.832,0 23.9531,9.84375 8.1211,9.76172 8.1211,28.79297 z"
         id="path3657" />
      <path
         d="m 1236.4094,714.14935 v 55.45313 h -15.0937 v -54.96094 q 0,-13.04297 -5.0859,-19.52344 -5.086,-6.48047 -15.2579,-6.48047 -12.2226,0 -19.2773,7.79297 -7.0547,7.79297 -7.0547,21.2461 v 51.92578 h -15.1758 v -91.875 h 15.1758 v 14.27344 q 5.4141,-8.28516 12.7149,-12.38672 7.3828,-4.10157 16.9804,-4.10157 15.8321,0 23.9531,9.84375 8.1211,9.76172 8.1211,28.79297 z"
         id="path3659" />
      <path
         d="m 1268.1949,677.72748 h 15.0938 v 91.875 h -15.0938 z m 0,-35.76563 h 15.0938 v 19.11328 h -15.0938 z"
         id="path3661" />
      <path
         d="m 1305.7226,677.72748 h 15.9961 l 28.7109,77.10937 28.7109,-77.10937 h 15.9961 l -34.4531,91.875 h -20.5078 z"
         id="path3663" />
      <path
         d="m 1496.2385,719.89154 v 7.38281 h -69.3984 q 0.9843,15.58594 9.3515,23.78907 8.4492,8.12109 23.461,8.12109 8.6953,0 16.8164,-2.13281 8.2031,-2.13282 16.2422,-6.39844 v 14.27344 q -8.1211,3.44531 -16.6524,5.25 -8.5312,1.80468 -17.3086,1.80468 -21.9844,0 -34.8633,-12.79687 -12.7968,-12.79688 -12.7968,-34.61719 0,-22.55859 12.1406,-35.76562 12.2226,-13.28907 32.8945,-13.28907 18.5391,0 29.2852,11.97657 10.8281,11.89453 10.8281,32.40234 z m -15.0938,-4.42969 q -0.164,-12.38672 -6.9726,-19.76953 -6.7266,-7.38281 -17.8828,-7.38281 -12.6328,0 -20.2617,7.13672 -7.5469,7.13672 -8.6954,20.09765 z"
         id="path3665" />
      <path
         d="m 1575.9302,691.83685 q -2.5429,-1.47656 -5.5781,-2.13281 -2.9531,-0.73828 -6.5625,-0.73828 -12.7969,0 -19.6875,8.36719 -6.8086,8.28515 -6.8086,23.87109 v 48.39844 h -15.1758 v -91.875 h 15.1758 v 14.27344 q 4.7578,-8.36719 12.3867,-12.38672 7.6289,-4.10157 18.5391,-4.10157 1.5586,0 3.4453,0.2461 1.8867,0.16406 4.1836,0.57422 z"
         id="path3667" />
      <path
         d="m 1652.0126,680.43451 v 14.27344 q -6.3985,-3.28125 -13.2891,-4.92188 -6.8906,-1.64062 -14.2734,-1.64062 -11.2383,0 -16.8985,3.44531 -5.5781,3.44531 -5.5781,10.33594 0,5.25 4.0195,8.28515 4.0196,2.95313 16.1602,5.66016 l 5.168,1.14844 q 16.0781,3.44531 22.8047,9.76172 6.8085,6.23437 6.8085,17.47265 0,12.79688 -10.1718,20.26172 -10.0899,7.46484 -27.8086,7.46484 -7.3828,0 -15.4219,-1.47656 -7.957,-1.39453 -16.8164,-4.26562 v -15.58594 q 8.3672,4.34766 16.4883,6.5625 8.1211,2.13281 16.0781,2.13281 10.6641,0 16.4063,-3.60937 5.7421,-3.69141 5.7421,-10.33594 0,-6.15234 -4.1836,-9.43359 -4.1015,-3.28125 -18.1289,-6.31641 l -5.25,-1.23047 q -14.0273,-2.95312 -20.2617,-9.02344 -6.2344,-6.15234 -6.2344,-16.8164 0,-12.96094 9.1875,-20.01563 9.1875,-7.05469 26.086,-7.05469 8.3672,0 15.75,1.23047 7.3828,1.23047 13.6172,3.69141 z"
         id="path3669" />
      <path
         d="m 1724.4035,723.41888 q -18.293,0 -25.3477,4.1836 -7.0546,4.18359 -7.0546,14.27344 0,8.03906 5.25,12.79687 5.332,4.67578 14.4375,4.67578 12.5507,0 20.0976,-8.85937 7.6289,-8.94141 7.6289,-23.70703 v -3.36329 z m 30.1055,-6.23437 v 52.41797 h -15.0938 v -13.94531 q -5.1679,8.36718 -12.8789,12.38671 -7.7109,3.9375 -18.8672,3.9375 -14.1093,0 -22.4765,-7.875 -8.2852,-7.95703 -8.2852,-21.24609 0,-15.50391 10.3359,-23.37891 10.418,-7.875 31.0079,-7.875 h 21.164 v -1.47656 q 0,-10.41797 -6.8906,-16.07812 -6.8086,-5.74219 -19.1953,-5.74219 -7.875,0 -15.3399,1.88672 -7.4648,1.88672 -14.3554,5.66015 v -13.94531 q 8.2851,-3.19922 16.0781,-4.75781 7.793,-1.64063 15.1758,-1.64063 19.9336,0 29.7773,10.33594 9.8438,10.33594 9.8438,31.33594 z"
         id="path3671" />
      <path
         d="m 1840.5171,691.83685 q -2.543,-1.47656 -5.5781,-2.13281 -2.9532,-0.73828 -6.5625,-0.73828 -12.7969,0 -19.6875,8.36719 -6.8086,8.28515 -6.8086,23.87109 v 48.39844 h -15.1758 v -91.875 h 15.1758 v 14.27344 q 4.7578,-8.36719 12.3867,-12.38672 7.6289,-4.10157 18.5391,-4.10157 1.5585,0 3.4453,0.2461 1.8867,0.16406 4.1836,0.57422 z"
         id="path3673" />
      <path
         d="m 1896.2557,778.13373 q -6.3985,16.40625 -12.4688,21.41015 -6.0703,5.00391 -16.2422,5.00391 h -12.0586 v -12.63281 h 8.8594 q 6.2344,0 9.6797,-2.95313 3.4453,-2.95312 7.6289,-13.94531 l 2.707,-6.89062 -37.1601,-90.39844 h 15.9961 l 28.7109,71.85937 28.711,-71.85937 h 15.9961 z"
         id="path3675" />
    </g>
    <circle
       class="cls-5"
       cx="607.09052"
       cy="612.65247"
       r="236.67"
       id="circle10" />
    <circle
       class="cls-7"
       cx="692.58051"
       cy="591.15247"
       r="190.94"
       id="circle12" />
    <circle
       class="cls-6"
       cx="463.81055"
       cy="625.76245"
       r="143.11"
       id="circle14" />
    <g
       aria-label="pronoide"
       transform="scale(1.0148892,0.98532928)"
       id="text22"
       style="font-size:120px;font-family:HelveticaNeueCyr-Roman, HelveticaNeueCyr;fill:#ffffff;stroke:#ffffff;stroke-width:1.01489;stroke-miterlimit:10"
       class="cls-1">
      <path
         d="m 344.6312,648.57825 v 34.80468 H 333.79135 V 592.797 h 10.83985 v 9.96093 q 3.39843,-5.85937 8.55468,-8.67187 5.21485,-2.87109 12.42188,-2.87109 11.95312,0 19.39453,9.49218 7.5,9.49219 7.5,24.96094 0,15.46875 -7.5,24.96094 -7.44141,9.49219 -19.39453,9.49219 -7.20703,0 -12.42188,-2.8125 -5.15625,-2.8711 -8.55468,-8.73047 z m 36.67968,-22.91016 q 0,-11.89453 -4.92187,-18.63281 -4.86328,-6.79688 -13.41797,-6.79688 -8.55469,0 -13.47656,6.79688 -4.86328,6.73828 -4.86328,18.63281 0,11.89453 4.86328,18.69141 4.92187,6.73828 13.47656,6.73828 8.55469,0 13.41797,-6.73828 4.92187,-6.79688 4.92187,-18.69141 z"
         style="letter-spacing:0.01em"
         id="path3697" />
      <path
         d="m 452.18182,602.87512 q -1.8164,-1.05469 -3.98437,-1.52344 -2.10938,-0.52734 -4.6875,-0.52734 -9.14063,0 -14.0625,5.97656 -4.86328,5.91797 -4.86328,17.05078 V 658.422 h -10.83985 v -65.625 h 10.83985 v 10.19531 q 3.39843,-5.97656 8.84765,-8.84766 5.44922,-2.92968 13.24219,-2.92968 1.11328,0 2.46094,0.17578 1.34765,0.11718 2.98828,0.41015 z"
         style="letter-spacing:0em"
         id="path3699" />
      <path
         d="m 482.85904,600.35559 q -8.67188,0 -13.71094,6.79688 -5.03906,6.73828 -5.03906,18.51562 0,11.77734 4.98047,18.57422 5.03906,6.73828 13.76953,6.73828 8.61328,0 13.65234,-6.79687 5.03907,-6.79688 5.03907,-18.51563 0,-11.66016 -5.03907,-18.45703 -5.03906,-6.85547 -13.65234,-6.85547 z m 0,-9.14062 q 14.0625,0 22.08984,9.14062 8.02735,9.14063 8.02735,25.3125 0,16.11328 -8.02735,25.3125 -8.02734,9.14063 -22.08984,9.14063 -14.12109,0 -22.14844,-9.14063 -7.96875,-9.19922 -7.96875,-25.3125 0,-16.17187 7.96875,-25.3125 8.02735,-9.14062 22.14844,-9.14062 z"
         style="letter-spacing:0.01em"
         id="path3701" />
      <path
         d="M 586.5981,618.81262 V 658.422 h -10.78125 v -39.25782 q 0,-9.3164 -3.63281,-13.94531 -3.63282,-4.6289 -10.89844,-4.6289 -8.73047,0 -13.76953,5.5664 -5.03906,5.56641 -5.03906,15.17578 V 658.422 h -10.83985 v -65.625 h 10.83985 v 10.19531 q 3.86718,-5.91797 9.08203,-8.84766 5.27343,-2.92968 12.1289,-2.92968 11.3086,0 17.10938,7.03125 5.80078,6.97265 5.80078,20.5664 z"
         style="letter-spacing:0.01em"
         id="path3703" />
      <path
         d="m 634.73169,600.35559 q -8.67188,0 -13.71094,6.79688 -5.03906,6.73828 -5.03906,18.51562 0,11.77734 4.98047,18.57422 5.03906,6.73828 13.76953,6.73828 8.61328,0 13.65234,-6.79687 5.03907,-6.79688 5.03907,-18.51563 0,-11.66016 -5.03907,-18.45703 -5.03906,-6.85547 -13.65234,-6.85547 z m 0,-9.14062 q 14.0625,0 22.08984,9.14062 8.02735,9.14063 8.02735,25.3125 0,16.11328 -8.02735,25.3125 -8.02734,9.14063 -22.08984,9.14063 -14.12109,0 -22.14844,-9.14063 -7.96875,-9.19922 -7.96875,-25.3125 0,-16.17187 7.96875,-25.3125 8.02735,-9.14062 22.14844,-9.14062 z"
         style="letter-spacing:0.01em"
         id="path3705" />
      <path
         d="m 683.91998,592.797 h 10.78125 v 65.625 h -10.78125 z m 0,-25.54688 h 10.78125 v 13.65235 h -10.78125 z"
         style="letter-spacing:0.01em"
         id="path3707" />
      <path
         d="m 761.6434,602.75793 v -35.50781 h 10.78125 V 658.422 H 761.6434 v -9.84375 q -3.39844,5.85937 -8.61328,8.73047 -5.15625,2.8125 -12.42187,2.8125 -11.89454,0 -19.39454,-9.49219 -7.4414,-9.49219 -7.4414,-24.96094 0,-15.46875 7.4414,-24.96094 7.5,-9.49218 19.39454,-9.49218 7.26562,0 12.42187,2.87109 5.21484,2.8125 8.61328,8.67187 z m -36.73828,22.91016 q 0,11.89453 4.86328,18.69141 4.92188,6.73828 13.47656,6.73828 8.55469,0 13.47657,-6.73828 4.92187,-6.79688 4.92187,-18.69141 0,-11.89453 -4.92187,-18.63281 -4.92188,-6.79688 -13.47657,-6.79688 -8.55468,0 -13.47656,6.79688 -4.86328,6.73828 -4.86328,18.63281 z"
         style="letter-spacing:0.01em"
         id="path3709" />
      <path
         d="m 851.96451,622.91418 v 5.27344 H 802.3942 q 0.70312,11.13281 6.67968,16.99219 6.03516,5.80078 16.75782,5.80078 6.21093,0 12.01171,-1.52344 5.85938,-1.52343 11.60157,-4.57031 v 10.19531 q -5.80078,2.46094 -11.89453,3.75 -6.09375,1.28907 -12.36329,1.28907 -15.70312,0 -24.90234,-9.14063 -9.14062,-9.14062 -9.14062,-24.72656 0,-16.11328 8.67187,-25.54688 8.73047,-9.49218 23.49609,-9.49218 13.24219,0 20.91797,8.55468 7.73438,8.4961 7.73438,23.14453 z m -10.78125,-3.16406 q -0.11719,-8.84765 -4.98047,-14.12109 -4.80469,-5.27344 -12.77344,-5.27344 -9.02344,0 -14.47265,5.09766 -5.39063,5.09765 -6.21094,14.35547 z"
         style="letter-spacing:0.01em"
         id="path3711" />
    </g>
    <g
       aria-label="2003-2023"
       id="text26"
       class="cls-3"
       style="font-size:178px;font-family:HelveticaNeueCyr-Roman, HelveticaNeueCyr;letter-spacing:0.02em;fill:#ffffff;stroke:#ffffff;stroke-width:2px;stroke-miterlimit:10">
      <path
         d="m 965.67773,605.10706 h 61.27437 v 14.77539 h -82.39448 v -14.77539 q 9.99511,-10.34278 27.2041,-27.72559 17.2959,-17.46973 21.72851,-22.51074 8.43067,-9.47364 11.73337,-15.99219 3.3897,-6.60547 3.3897,-12.9502 0,-10.34277 -7.3008,-16.86132 -7.21387,-6.51856 -18.86035,-6.51856 -8.25684,0 -17.46973,2.86817 -9.12597,2.86816 -19.55566,8.6914 v -17.73047 q 10.60351,-4.25879 19.8164,-6.43164 9.21289,-2.17285 16.86133,-2.17285 20.16411,0 32.15821,10.08203 11.9941,10.08203 11.9941,26.94336 0,7.9961 -3.042,15.20996 -2.955,7.12696 -10.8642,16.86133 -2.1729,2.52051 -13.81935,14.60156 -11.64648,11.99414 -32.85352,33.63575 z"
         id="path3678" />
      <path
         d="m 1104.9106,501.67932 q -13.5586,0 -20.4248,13.38477 -6.7793,13.29785 -6.7793,40.06738 0,26.68262 6.7793,40.06738 6.8662,13.29785 20.4248,13.29785 13.6455,0 20.4248,-13.29785 6.8662,-13.38476 6.8662,-40.06738 0,-26.76953 -6.8662,-40.06738 -6.7793,-13.38477 -20.4248,-13.38477 z m 0,-13.90625 q 21.8154,0 33.2881,17.2959 11.5595,17.20898 11.5595,50.0625 0,32.7666 -11.5595,50.0625 -11.4727,17.20898 -33.2881,17.20898 -21.8154,0 -33.375,-17.20898 -11.4727,-17.2959 -11.4727,-50.0625 0,-32.85352 11.4727,-50.0625 11.5596,-17.2959 33.375,-17.2959 z"
         id="path3680" />
      <path
         d="m 1221.7196,501.67932 q -13.5586,0 -20.4248,13.38477 -6.7793,13.29785 -6.7793,40.06738 0,26.68262 6.7793,40.06738 6.8662,13.29785 20.4248,13.29785 13.6455,0 20.4248,-13.29785 6.8662,-13.38476 6.8662,-40.06738 0,-26.76953 -6.8662,-40.06738 -6.7793,-13.38477 -20.4248,-13.38477 z m 0,-13.90625 q 21.8154,0 33.2881,17.2959 11.5596,17.20898 11.5596,50.0625 0,32.7666 -11.5596,50.0625 -11.4727,17.20898 -33.2881,17.20898 -21.8154,0 -33.375,-17.20898 -11.4727,-17.2959 -11.4727,-50.0625 0,-32.85352 11.4727,-50.0625 11.5596,-17.2959 33.375,-17.2959 z"
         id="path3682" />
      <path
         d="m 1354.1732,549.91663 q 12.6025,2.69433 19.6425,11.21191 7.127,8.51758 7.127,21.0332 0,19.20801 -13.2109,29.72461 -13.211,10.5166 -37.5469,10.5166 -8.1699,0 -16.8614,-1.65136 -8.6044,-1.56446 -17.8173,-4.78028 v -16.94824 q 7.3007,4.25879 15.9922,6.43164 8.6914,2.17285 18.165,2.17285 16.5137,0 25.1182,-6.51855 8.6914,-6.51856 8.6914,-18.94727 0,-11.47265 -8.083,-17.90429 -7.9961,-6.51856 -22.337,-6.51856 h -15.123 v -14.42773 h 15.8184 q 12.9501,0 19.8164,-5.12793 6.8662,-5.21485 6.8662,-14.94922 0,-9.99512 -7.127,-15.29688 -7.04,-5.38867 -20.251,-5.38867 -7.2138,0 -15.4707,1.56446 -8.2568,1.56445 -18.165,4.86718 v -15.64453 q 9.9951,-2.78125 18.6865,-4.17187 8.7783,-1.39063 16.5137,-1.39063 19.9902,0 31.6367,9.12598 11.6465,9.03906 11.6465,24.50976 0,10.77735 -6.1709,18.25196 -6.1709,7.38769 -17.5566,10.25586 z"
         id="path3684" />
      <path
         d="m 1407.448,563.9967 h 46.8467 v 14.25391 h -46.8467 z"
         id="path3686" />
      <path
         d="m 1500.7033,605.10706 h 61.2744 v 14.77539 h -82.3945 v -14.77539 q 9.9951,-10.34278 27.2041,-27.72559 17.2959,-17.46973 21.7285,-22.51074 8.4307,-9.47364 11.7334,-15.99219 3.3897,-6.60547 3.3897,-12.9502 0,-10.34277 -7.3008,-16.86132 -7.2139,-6.51856 -18.8604,-6.51856 -8.2568,0 -17.4697,2.86817 -9.126,2.86816 -19.5557,8.6914 v -17.73047 q 10.6035,-4.25879 19.8164,-6.43164 9.2129,-2.17285 16.8614,-2.17285 20.164,0 32.1582,10.08203 11.9941,10.08203 11.9941,26.94336 0,7.9961 -3.042,15.20996 -2.9551,7.12696 -10.8642,16.86133 -2.1729,2.52051 -13.8194,14.60156 -11.6465,11.99414 -32.8535,33.63575 z"
         id="path3688" />
      <path
         d="m 1639.9362,501.67932 q -13.5586,0 -20.4248,13.38477 -6.7793,13.29785 -6.7793,40.06738 0,26.68262 6.7793,40.06738 6.8662,13.29785 20.4248,13.29785 13.6455,0 20.4248,-13.29785 6.8662,-13.38476 6.8662,-40.06738 0,-26.76953 -6.8662,-40.06738 -6.7793,-13.38477 -20.4248,-13.38477 z m 0,-13.90625 q 21.8154,0 33.288,17.2959 11.5596,17.20898 11.5596,50.0625 0,32.7666 -11.5596,50.0625 -11.4726,17.20898 -33.288,17.20898 -21.8155,0 -33.375,-17.20898 -11.4727,-17.2959 -11.4727,-50.0625 0,-32.85352 11.4727,-50.0625 11.5595,-17.2959 33.375,-17.2959 z"
         id="path3690" />
      <path
         d="m 1734.3214,605.10706 h 61.2744 v 14.77539 h -82.3946 v -14.77539 q 9.9952,-10.34278 27.2041,-27.72559 17.2959,-17.46973 21.7286,-22.51074 8.4306,-9.47364 11.7333,-15.99219 3.3897,-6.60547 3.3897,-12.9502 0,-10.34277 -7.3008,-16.86132 -7.2139,-6.51856 -18.8603,-6.51856 -8.2569,0 -17.4698,2.86817 -9.1259,2.86816 -19.5556,8.6914 v -17.73047 q 10.6035,-4.25879 19.8164,-6.43164 9.2129,-2.17285 16.8613,-2.17285 20.1641,0 32.1582,10.08203 11.9942,10.08203 11.9942,26.94336 0,7.9961 -3.042,15.20996 -2.9551,7.12696 -10.8643,16.86133 -2.1728,2.52051 -13.8193,14.60156 -11.6465,11.99414 -32.8535,33.63575 z"
         id="path3692" />
      <path
         d="m 1889.1987,549.91663 q 12.6026,2.69433 19.6426,11.21191 7.127,8.51758 7.127,21.0332 0,19.20801 -13.211,29.72461 -13.2109,10.5166 -37.5469,10.5166 -8.1699,0 -16.8613,-1.65136 -8.6045,-1.56446 -17.8174,-4.78028 v -16.94824 q 7.3008,4.25879 15.9922,6.43164 8.6914,2.17285 18.1651,2.17285 16.5136,0 25.1181,-6.51855 8.6914,-6.51856 8.6914,-18.94727 0,-11.47265 -8.083,-17.90429 -7.9961,-6.51856 -22.3369,-6.51856 h -15.123 v -14.42773 h 15.8183 q 12.9502,0 19.8164,-5.12793 6.8662,-5.21485 6.8662,-14.94922 0,-9.99512 -7.1269,-15.29688 -7.04,-5.38867 -20.251,-5.38867 -7.2139,0 -15.4707,1.56446 -8.2568,1.56445 -18.165,4.86718 v -15.64453 q 9.9951,-2.78125 18.6865,-4.17187 8.7783,-1.39063 16.5137,-1.39063 19.9902,0 31.6367,9.12598 11.6465,9.03906 11.6465,24.50976 0,10.77735 -6.1709,18.25196 -6.1709,7.38769 -17.5567,10.25586 z"
         id="path3694" />
    </g>
    <g
       aria-label="2"
       transform="scale(0.98488578,1.0153462)"
       id="text30"
       style="font-size:670.85px;font-family:HelveticaNeueCyr-Roman, HelveticaNeueCyr;fill:#325578;stroke-width:0.984886"
       class="cls-2">
      <path
         d="M 127.06781,782.78931 H 358.00005 V 838.4751 H 47.46989 v -55.68579 q 37.669799,-38.98005 102.52736,-104.49275 65.18513,-65.84025 81.89087,-84.83893 31.77366,-35.70442 44.22107,-60.27168 12.77497,-24.89482 12.77497,-48.80696 0,-38.98005 -27.51533,-63.54731 -27.18777,-24.56726 -71.08127,-24.56726 -31.11853,0 -65.84026,10.80959 -34.394159,10.8096 -73.701775,32.75635 v -66.82295 q 39.962742,-16.05061 74.684465,-24.23969 34.72173,-8.18909 63.54732,-8.18909 75.99472,0 121.19848,37.99736 45.20376,37.99737 45.20376,101.54468 0,30.13584 -11.46472,57.3236 -11.13716,26.86021 -40.94544,63.54732 -8.18908,9.49934 -52.08259,55.03066 -43.8935,45.20376 -123.81899,126.76706 z"
         id="path3714" />
    </g>
  </g>
</svg>
