<?xml version="1.0" encoding="UTF-8" standalone="no"?>
<svg
   id="Layer_1"
   viewBox="0 0 162.00001 43"
   version="1.1"
   sodipodi:docname="anniversary_web_curvas.svg"
   inkscape:version="1.2.2 (b0a8486541, 2022-12-01, custom)"
   width="162"
   height="43"
   xmlns:inkscape="http://www.inkscape.org/namespaces/inkscape"
   xmlns:sodipodi="http://sodipodi.sourceforge.net/DTD/sodipodi-0.dtd"
   xmlns="http://www.w3.org/2000/svg"
   xmlns:svg="http://www.w3.org/2000/svg">
  <sodipodi:namedview
     id="namedview3927"
     pagecolor="#ffffff"
     bordercolor="#000000"
     borderopacity="0.25"
     inkscape:showpageshadow="2"
     inkscape:pageopacity="0.0"
     inkscape:pagecheckerboard="0"
     inkscape:deskcolor="#d1d1d1"
     showgrid="false"
     inkscape:zoom="7.8395062"
     inkscape:cx="81"
     inkscape:cy="21.55748"
     inkscape:window-width="1920"
     inkscape:window-height="1011"
     inkscape:window-x="0"
     inkscape:window-y="32"
     inkscape:window-maximized="1"
     inkscape:current-layer="Layer_1" />
  <defs
     id="defs3854">
    <style
       id="style3841">.cls-1,.cls-2{stroke-width:4px;}.cls-1,.cls-2,.cls-3,.cls-4,.cls-5{stroke:#fff;stroke-miterlimit:10;}.cls-1,.cls-6{fill:#325578;}.cls-2{fill:#233b54;}.cls-3{stroke-width:2px;}.cls-3,.cls-5{fill:#fff;}.cls-7{filter:url(#drop-shadow-1);}.cls-4{fill:#e04000;stroke-width:7px;}</style>
    <filter
       id="drop-shadow-1"
       filterUnits="userSpaceOnUse">
      <feOffset
         dx="5"
         dy="5"
         id="feOffset3843" />
      <feGaussianBlur
         result="blur"
         stdDeviation="8"
         id="feGaussianBlur3845" />
      <feFlood
         flood-color="#000"
         flood-opacity=".72"
         id="feFlood3847" />
      <feComposite
         in2="blur"
         operator="in"
         id="feComposite3849"
         result="result1" />
      <feComposite
         in="SourceGraphic"
         in2="result1"
         id="feComposite3851" />
    </filter>
  </defs>
  <g
     class="cls-7"
     id="g3902">
    <path
       class="cls-5"
       d="m 574.58,578.36 v 9.49 c 5,-7.71 12.76,-11.57 23.3,-11.57 9.64,0 17.29,3.17 22.96,9.49 5.67,6.33 8.5,14.91 8.5,25.74 0,10.83 -2.79,19.48 -8.37,25.94 -5.58,6.46 -13.1,9.68 -22.56,9.68 -9.46,0 -17.63,-3.68 -23.16,-11.05 v 35.23 h -11.38 v -92.95 z m 21.56,7.15 c -6.61,0 -11.81,2.32 -15.6,6.96 -3.8,4.64 -5.69,11.03 -5.69,19.18 0,8.15 1.94,14.54 5.82,19.17 3.88,4.64 9.17,6.96 15.87,6.96 6.7,0 11.65,-2.34 15.4,-7.02 3.75,-4.68 5.62,-11.05 5.62,-19.11 0,-8.06 -1.9,-14.54 -5.69,-19.18 -3.8,-4.64 -9.04,-6.96 -15.73,-6.96 z"
       id="path3886" />
    <path
       class="cls-5"
       d="m 681.02,576.8 v 11.44 c -0.8,-0.08 -1.79,-0.13 -2.95,-0.13 -3.66,0 -6.83,0.54 -9.51,1.62 -2.68,1.08 -4.8,2.49 -6.36,4.23 -1.56,1.73 -2.83,3.9 -3.82,6.5 -0.98,2.6 -1.63,5.2 -1.94,7.8 -0.31,2.6 -0.47,5.55 -0.47,8.84 v 28.34 h -11.38 v -67.08 h 10.85 v 14.43 c 4.55,-10.66 13.08,-15.99 25.58,-15.99 z"
       id="path3888" />
    <path
       class="cls-5"
       d="m 694.41,586.03 c 6.07,-6.41 14.33,-9.62 24.77,-9.62 10.44,0 18.57,3.08 24.37,9.23 5.8,6.15 8.7,14.78 8.7,25.87 0,11.09 -2.9,20.2 -8.7,26.52 -5.8,6.33 -13.97,9.49 -24.5,9.49 -10.53,0 -18.79,-3.12 -24.77,-9.36 -5.98,-6.24 -8.97,-14.91 -8.97,-26 0,-11.09 3.03,-19.71 9.11,-26.13 z m 40.37,6.7 c -3.88,-4.72 -9.17,-7.08 -15.87,-7.08 -6.7,0 -12.01,2.38 -15.93,7.15 -3.93,4.77 -5.89,11.14 -5.89,19.11 0,7.97 1.94,14.67 5.82,19.3 3.88,4.64 9.31,6.96 16.27,6.96 6.96,0 11.94,-2.34 15.73,-7.02 3.79,-4.68 5.69,-11.14 5.69,-19.37 0,-8.23 -1.94,-14.32 -5.82,-19.04 z"
       id="path3890" />
    <path
       class="cls-5"
       d="m 778.24,578.36 v 10.4 c 5.71,-8.15 13.57,-12.22 23.57,-12.22 8.12,0 13.99,2.06 17.61,6.17 3.62,4.12 5.42,10.16 5.42,18.14 v 44.59 h -11.38 v -39.52 c 0,-3.29 -0.11,-5.87 -0.33,-7.73 -0.22,-1.86 -0.78,-3.86 -1.67,-5.98 -0.89,-2.12 -2.41,-3.66 -4.55,-4.62 -2.14,-0.95 -4.91,-1.43 -8.3,-1.43 -13.12,0 -19.68,8.06 -19.68,24.18 v 35.1 h -11.38 v -67.08 h 10.71 z"
       id="path3892" />
    <path
       class="cls-5"
       d="m 849.2,586.03 c 6.07,-6.41 14.33,-9.62 24.77,-9.62 10.44,0 18.57,3.08 24.37,9.23 5.8,6.15 8.7,14.78 8.7,25.87 0,11.09 -2.9,20.2 -8.7,26.52 -5.8,6.33 -13.97,9.49 -24.5,9.49 -10.53,0 -18.79,-3.12 -24.77,-9.36 -5.98,-6.24 -8.97,-14.91 -8.97,-26 0,-11.09 3.03,-19.71 9.11,-26.13 z m 40.37,6.7 c -3.88,-4.72 -9.17,-7.08 -15.87,-7.08 -6.7,0 -12.01,2.38 -15.93,7.15 -3.93,4.77 -5.89,11.14 -5.89,19.11 0,7.97 1.94,14.67 5.82,19.3 3.88,4.64 9.31,6.96 16.27,6.96 6.96,0 11.94,-2.34 15.73,-7.02 3.79,-4.68 5.69,-11.14 5.69,-19.37 0,-8.23 -1.94,-14.32 -5.82,-19.04 z"
       id="path3894" />
    <path
       class="cls-5"
       d="m 934.36,552.88 v 13.52 h -11.52 v -13.52 z m 0,25.48 v 67.08 h -11.52 v -67.08 z"
       id="path3896" />
    <path
       class="cls-5"
       d="m 1016.04,552.88 v 92.56 h -10.71 v -9.88 c -4.38,7.8 -11.96,11.7 -22.76,11.7 -9.82,0 -17.61,-3.18 -23.37,-9.55 -5.76,-6.37 -8.64,-15.01 -8.64,-25.93 0,-10.14 2.7,-18.57 8.1,-25.29 5.4,-6.72 13.19,-10.07 23.37,-10.07 10.18,0 17.45,3.64 22.63,10.92 v -34.45 h 11.38 z M 983.5,585.9 c -6.52,0 -11.67,2.3 -15.47,6.89 -3.8,4.59 -5.69,10.83 -5.69,18.72 0,7.89 1.94,14.62 5.82,19.44 3.88,4.81 9.08,7.21 15.6,7.21 6.52,0 11.78,-2.32 15.53,-6.96 3.75,-4.63 5.62,-11.07 5.62,-19.3 0,-7.37 -1.76,-13.54 -5.29,-18.52 -3.53,-4.98 -8.9,-7.48 -16.13,-7.48 z"
       id="path3898" />
    <path
       class="cls-5"
       d="m 1093.97,624.25 c -3.48,15.6 -13.52,23.4 -30.13,23.4 -10.18,0 -18.14,-3.08 -23.9,-9.23 -5.76,-6.15 -8.64,-14.69 -8.64,-25.61 0,-10.92 2.97,-19.61 8.9,-26.33 5.94,-6.72 13.68,-10.07 23.23,-10.07 10.62,0 18.5,3.49 23.63,10.46 5.13,6.98 7.7,15.79 7.7,26.45 v 1.56 h -51.95 l -0.13,0.78 c 0,7.11 1.92,12.7 5.76,16.77 3.84,4.07 9.11,6.11 15.8,6.11 5,0 8.95,-1.12 11.85,-3.38 2.9,-2.25 5.16,-5.89 6.76,-10.92 h 11.11 z m -10.98,-18.33 c -0.54,-6.41 -2.54,-11.42 -6.03,-15.02 -3.48,-3.6 -8.08,-5.4 -13.79,-5.4 -5.71,0 -10.13,1.82 -13.79,5.46 -3.66,3.64 -5.85,8.62 -6.56,14.95 h 40.17 z"
       id="path3900" />
  </g>
  <g
     id="g4958"
     transform="matrix(0.09005986,0,0,0.09007877,-21.719691,-33.388599)">
    <g
       id="g3878">
      <path
         class="cls-6"
         d="m 1246.53,754.86 v 11.09 c -2.91,1.12 -6.16,1.68 -9.74,1.68 -8.18,0 -12.38,-4.25 -12.6,-12.77 -8.18,9.18 -18.65,13.78 -31.42,13.78 -8.51,0 -15.26,-2.18 -20.24,-6.55 -4.99,-4.37 -7.48,-10.36 -7.48,-17.98 0,-15.46 10.25,-24.47 30.74,-27.05 1.34,-0.22 3.3,-0.45 5.88,-0.67 9.74,-1.12 15.73,-2.41 17.98,-3.86 2.57,-1.79 3.86,-4.87 3.86,-9.24 0,-9.52 -6.55,-14.28 -19.66,-14.28 -6.72,0 -11.82,1.37 -15.29,4.12 -3.47,2.75 -5.54,7.25 -6.22,13.52 h -13.94 c 0.22,-9.29 3.53,-16.52 9.91,-21.67 6.38,-5.15 15.17,-7.73 26.38,-7.73 12.21,0 21.28,2.8 27.22,8.4 1.9,1.79 3.3,4.15 4.2,7.06 0.89,2.91 1.4,5.29 1.51,7.14 0.11,1.85 0.17,4.62 0.17,8.32 0,4.26 -0.11,10.7 -0.34,19.32 -0.23,8.63 -0.34,15.07 -0.34,19.32 0,3.14 0.42,5.35 1.26,6.64 0.84,1.29 2.38,1.93 4.62,1.93 0.9,0 2.07,-0.17 3.53,-0.5 z m -23.02,-33.6 c -1.01,0.79 -2.07,1.46 -3.19,2.02 -1.12,0.56 -2.55,1.01 -4.28,1.34 -1.74,0.34 -2.91,0.59 -3.53,0.76 -0.62,0.17 -2.1,0.39 -4.45,0.67 -2.35,0.28 -3.58,0.42 -3.7,0.42 -3.47,0.45 -5.74,0.76 -6.8,0.92 -1.07,0.17 -3.08,0.65 -6.05,1.43 -2.97,0.78 -5.07,1.68 -6.3,2.69 -1.23,1.01 -2.44,2.49 -3.61,4.45 -1.18,1.96 -1.76,4.28 -1.76,6.97 0,4.48 1.54,8.01 4.62,10.58 3.08,2.58 7.31,3.86 12.68,3.86 6.83,0 12.94,-2.02 18.31,-6.05 5.37,-4.03 8.06,-8.79 8.06,-14.28 v -15.79 z"
         id="path3856" />
      <path
         class="cls-6"
         d="m 1275.6,679.59 v 13.44 c 7.17,-10.53 17.02,-15.79 29.57,-15.79 10.19,0 17.56,2.66 22.09,7.98 4.54,5.32 6.8,13.13 6.8,23.44 v 57.62 h -14.28 v -51.07 c 0,-4.25 -0.14,-7.59 -0.42,-10 -0.28,-2.41 -0.98,-4.98 -2.1,-7.73 -1.12,-2.74 -3.02,-4.73 -5.71,-5.96 -2.69,-1.23 -6.16,-1.85 -10.42,-1.85 -16.46,0 -24.7,10.42 -24.7,31.25 v 45.36 h -14.28 v -86.69 h 13.44 z"
         id="path3858" />
      <path
         class="cls-6"
         d="m 1371.19,679.59 v 13.44 c 7.17,-10.53 17.02,-15.79 29.57,-15.79 10.19,0 17.56,2.66 22.09,7.98 4.54,5.32 6.8,13.13 6.8,23.44 v 57.62 h -14.28 v -51.07 c 0,-4.25 -0.14,-7.59 -0.42,-10 -0.28,-2.41 -0.98,-4.98 -2.1,-7.73 -1.12,-2.74 -3.02,-4.73 -5.71,-5.96 -2.69,-1.23 -6.16,-1.85 -10.42,-1.85 -16.46,0 -24.7,10.42 -24.7,31.25 v 45.36 h -14.28 v -86.69 h 13.44 z"
         id="path3860" />
      <path
         class="cls-6"
         d="m 1468.46,646.67 v 17.47 h -14.45 v -17.47 z m 0,32.93 v 86.69 h -14.45 V 679.6 Z"
         id="path3862" />
      <path
         class="cls-6"
         d="m 1484.42,679.59 h 15.96 l 24.53,72.74 23.86,-72.74 h 14.95 l -31.75,86.69 h -15.29 z"
         id="path3864" />
      <path
         class="cls-6"
         d="m 1653.09,738.9 c -4.37,20.16 -16.97,30.24 -37.8,30.24 -12.77,0 -22.76,-3.97 -29.99,-11.93 -7.22,-7.95 -10.84,-18.98 -10.84,-33.1 0,-14.12 3.72,-25.34 11.17,-34.02 7.45,-8.68 17.16,-13.02 29.15,-13.02 13.33,0 23.21,4.51 29.65,13.52 6.44,9.02 9.66,20.41 9.66,34.19 v 2.02 h -65.18 l -0.17,1.01 c 0,9.19 2.41,16.41 7.22,21.67 4.81,5.27 11.42,7.9 19.82,7.9 6.27,0 11.23,-1.45 14.87,-4.37 3.64,-2.91 6.47,-7.62 8.48,-14.11 h 13.94 z m -13.78,-23.69 c -0.67,-8.29 -3.19,-14.75 -7.56,-19.4 -4.37,-4.65 -10.14,-6.97 -17.3,-6.97 -7.16,0 -12.71,2.35 -17.3,7.06 -4.59,4.7 -7.34,11.15 -8.23,19.32 h 50.4 z"
         id="path3866" />
      <path
         class="cls-6"
         d="m 1716.59,677.58 v 14.78 c -1.01,-0.11 -2.24,-0.17 -3.7,-0.17 -4.59,0 -8.57,0.7 -11.93,2.1 -3.36,1.4 -6.02,3.22 -7.98,5.46 -1.96,2.24 -3.56,5.04 -4.79,8.4 -1.23,3.36 -2.04,6.72 -2.44,10.08 -0.39,3.36 -0.59,7.17 -0.59,11.42 v 36.62 h -14.28 v -86.69 h 13.61 v 18.65 c 5.71,-13.78 16.41,-20.66 32.09,-20.66 z"
         id="path3868" />
      <path
         class="cls-6"
         d="m 1793.87,704.79 h -14.28 c -0.9,-10.53 -7.95,-15.79 -21.17,-15.79 -5.49,0 -9.8,1.07 -12.94,3.19 -3.14,2.13 -4.7,4.98 -4.7,8.57 0,1.01 0.11,1.99 0.34,2.94 0.22,0.95 0.64,1.79 1.26,2.52 0.61,0.73 1.18,1.37 1.68,1.93 0.5,0.56 1.34,1.09 2.52,1.6 1.18,0.5 2.07,0.92 2.69,1.26 0.61,0.34 1.74,0.7 3.36,1.09 1.62,0.39 2.77,0.67 3.44,0.84 0.67,0.17 1.99,0.48 3.95,0.92 1.96,0.45 3.22,0.73 3.78,0.84 4.14,0.9 7.25,1.62 9.32,2.18 2.07,0.56 4.93,1.6 8.57,3.11 3.64,1.51 6.41,3.08 8.32,4.7 1.9,1.62 3.61,3.86 5.12,6.72 1.51,2.86 2.27,6.08 2.27,9.66 0,8.4 -3.28,15.15 -9.83,20.24 -6.55,5.09 -15.26,7.64 -26.12,7.64 -11.76,0 -20.81,-2.58 -27.13,-7.73 -6.33,-5.15 -9.72,-12.6 -10.16,-22.34 h 14.11 c 0.78,12.21 8.62,18.31 23.52,18.31 6.38,0 11.51,-1.32 15.37,-3.95 3.86,-2.63 5.8,-6.13 5.8,-10.5 0,-2.91 -1.01,-5.32 -3.02,-7.22 -2.02,-1.9 -4.26,-3.28 -6.72,-4.12 -2.46,-0.84 -5.99,-1.82 -10.58,-2.94 -0.67,-0.11 -1.18,-0.22 -1.51,-0.34 -1.01,-0.22 -3.17,-0.7 -6.47,-1.43 -3.3,-0.73 -5.69,-1.31 -7.14,-1.76 -1.46,-0.45 -3.56,-1.15 -6.3,-2.1 -2.75,-0.95 -4.79,-1.96 -6.13,-3.02 -1.34,-1.06 -2.83,-2.41 -4.45,-4.03 -1.62,-1.62 -2.77,-3.53 -3.44,-5.71 -0.67,-2.18 -1.01,-4.67 -1.01,-7.48 0,-7.84 3,-14.05 8.99,-18.65 5.99,-4.59 14.03,-6.89 24.11,-6.89 10.08,0 18.51,2.41 24.95,7.22 6.44,4.82 9.66,11.65 9.66,20.5 z"
         id="path3870" />
      <path
         class="cls-6"
         d="m 1892.49,754.86 v 11.09 c -2.91,1.12 -6.16,1.68 -9.74,1.68 -8.18,0 -12.38,-4.25 -12.6,-12.77 -8.18,9.18 -18.65,13.78 -31.42,13.78 -8.51,0 -15.26,-2.18 -20.24,-6.55 -4.99,-4.37 -7.48,-10.36 -7.48,-17.98 0,-15.46 10.25,-24.47 30.74,-27.05 1.34,-0.22 3.3,-0.45 5.88,-0.67 9.74,-1.12 15.73,-2.41 17.98,-3.86 2.57,-1.79 3.86,-4.87 3.86,-9.24 0,-9.52 -6.55,-14.28 -19.66,-14.28 -6.72,0 -11.82,1.37 -15.29,4.12 -3.47,2.75 -5.54,7.25 -6.22,13.52 h -13.94 c 0.22,-9.29 3.53,-16.52 9.91,-21.67 6.38,-5.15 15.17,-7.73 26.38,-7.73 12.21,0 21.28,2.8 27.22,8.4 1.9,1.79 3.3,4.15 4.2,7.06 0.89,2.91 1.4,5.29 1.51,7.14 0.11,1.85 0.17,4.62 0.17,8.32 0,4.26 -0.11,10.7 -0.34,19.32 -0.23,8.63 -0.34,15.07 -0.34,19.32 0,3.14 0.42,5.35 1.26,6.64 0.84,1.29 2.38,1.93 4.62,1.93 0.9,0 2.07,-0.17 3.53,-0.5 z m -23.02,-33.6 c -1.01,0.79 -2.07,1.46 -3.19,2.02 -1.12,0.56 -2.55,1.01 -4.28,1.34 -1.74,0.34 -2.91,0.59 -3.53,0.76 -0.62,0.17 -2.1,0.39 -4.45,0.67 -2.35,0.28 -3.58,0.42 -3.7,0.42 -3.47,0.45 -5.74,0.76 -6.8,0.92 -1.07,0.17 -3.08,0.65 -6.05,1.43 -2.97,0.78 -5.07,1.68 -6.3,2.69 -1.23,1.01 -2.44,2.49 -3.61,4.45 -1.18,1.96 -1.76,4.28 -1.76,6.97 0,4.48 1.54,8.01 4.62,10.58 3.08,2.58 7.31,3.86 12.68,3.86 6.83,0 12.94,-2.02 18.31,-6.05 5.37,-4.03 8.06,-8.79 8.06,-14.28 v -15.79 z"
         id="path3872" />
      <path
         class="cls-6"
         d="m 1953.3,677.58 v 14.78 c -1.01,-0.11 -2.24,-0.17 -3.7,-0.17 -4.59,0 -8.57,0.7 -11.93,2.1 -3.36,1.4 -6.02,3.22 -7.98,5.46 -1.96,2.24 -3.56,5.04 -4.79,8.4 -1.23,3.36 -2.04,6.72 -2.44,10.08 -0.39,3.36 -0.59,7.17 -0.59,11.42 v 36.62 h -14.28 v -86.69 h 13.61 v 18.65 c 5.71,-13.78 16.41,-20.66 32.09,-20.66 z"
         id="path3874" />
      <path
         class="cls-6"
         d="m 2037.97,679.59 -37.13,97.78 c -1.46,3.92 -2.72,6.97 -3.78,9.16 -1.07,2.18 -2.58,4.59 -4.54,7.22 -1.96,2.63 -4.31,4.54 -7.06,5.71 -2.75,1.18 -5.96,1.76 -9.66,1.76 -2.8,0 -6.33,-0.5 -10.58,-1.51 v -12.77 c 4.14,1.23 7.22,1.85 9.24,1.85 4.7,0 8.06,-2.41 10.08,-7.22 l 6.72,-15.79 -34.44,-86.18 h 16.13 l 25.7,69.05 24.36,-69.05 h 14.95 z"
         id="path3876" />
    </g>
    <circle
       class="cls-1"
       cx="834.67999"
       cy="609.33002"
       r="236.67"
       id="circle3880" />
    <circle
       class="cls-4"
       cx="920.16998"
       cy="587.83002"
       r="190.94"
       id="circle3882" />
    <circle
       class="cls-2"
       cx="691.40002"
       cy="622.44"
       r="143.11"
       id="circle3884" />
    <g
       id="g3922">
      <path
         class="cls-3"
         d="m 1245.8,602.85 v 13.71 h -82.24 c 0.36,-7 1.42,-13.11 3.2,-18.33 1.78,-5.22 4.54,-9.94 8.28,-14.15 3.74,-4.21 7.39,-7.68 10.95,-10.41 3.56,-2.73 8.6,-6.11 15.13,-10.15 10.21,-6.41 16.91,-11.21 20.11,-14.42 6.64,-6.52 9.97,-13.76 9.97,-21.72 0,-7 -2.26,-12.73 -6.76,-17.18 -4.51,-4.45 -10.39,-6.67 -17.62,-6.67 -8.66,0 -14.86,3 -18.6,8.99 -3.74,5.99 -5.73,13.56 -5.96,22.69 h -15.31 v -3.38 c 0,-12.46 3.71,-22.49 11.12,-30.08 7.42,-7.59 17.24,-11.39 29.46,-11.39 12.22,0 21.54,3.32 28.66,9.97 7.12,6.65 10.68,15.55 10.68,26.7 0,4.75 -0.8,9.23 -2.4,13.44 -1.6,4.21 -3.38,7.74 -5.34,10.59 -1.96,2.85 -4.93,5.87 -8.9,9.08 -3.98,3.2 -7.27,5.67 -9.88,7.39 -2.61,1.72 -6.35,4.07 -11.21,7.03 -9.73,5.82 -16.2,10.32 -19.4,13.53 -4.51,4.51 -7.42,9.43 -8.72,14.77 h 64.79 z"
         id="path3904" />
      <path
         class="cls-3"
         d="m 1310.59,490.35 c 7.59,0 14.09,1.4 19.49,4.18 5.4,2.79 9.52,6.2 12.37,10.23 2.85,4.04 5.1,9.29 6.76,15.75 1.66,6.47 2.67,12.28 3.03,17.44 0.36,5.16 0.53,11.36 0.53,18.6 0,6.65 -0.27,12.64 -0.8,17.98 -0.53,5.34 -1.66,10.92 -3.38,16.73 -1.72,5.82 -4.07,10.65 -7.03,14.51 -2.97,3.86 -7,7.03 -12.1,9.52 -5.1,2.49 -11.16,3.74 -18.16,3.74 -7.36,0 -13.74,-1.28 -19.13,-3.83 -5.4,-2.55 -9.58,-5.72 -12.55,-9.52 -2.97,-3.8 -5.31,-8.63 -7.03,-14.51 -1.72,-5.87 -2.82,-11.45 -3.29,-16.73 -0.48,-5.28 -0.71,-11.36 -0.71,-18.24 0,-5.93 0.15,-11.09 0.45,-15.49 0.29,-4.39 0.89,-9.34 1.78,-14.86 0.89,-5.52 2.28,-10.2 4.18,-14.06 1.9,-3.85 4.33,-7.5 7.3,-10.95 2.96,-3.44 6.85,-6.05 11.66,-7.83 4.81,-1.78 10.35,-2.67 16.64,-2.67 z m 9.79,15.58 c -2.85,-1.36 -6.11,-2.05 -9.79,-2.05 -3.68,0 -6.94,0.68 -9.79,2.05 -2.85,1.37 -5.16,2.94 -6.94,4.72 -1.78,1.78 -3.32,4.42 -4.63,7.92 -1.31,3.5 -2.23,6.44 -2.76,8.81 -0.53,2.38 -0.98,5.79 -1.33,10.24 -0.36,4.45 -0.53,7.6 -0.53,9.43 v 9.17 c 0,4.15 0.06,7.6 0.18,10.32 0.12,2.73 0.41,6.29 0.89,10.68 0.47,4.39 1.3,8.04 2.49,10.95 1.18,2.91 2.67,5.82 4.45,8.72 1.78,2.91 4.24,5.1 7.39,6.59 3.14,1.49 6.79,2.23 10.95,2.23 3.56,0 6.73,-0.65 9.52,-1.96 2.79,-1.3 5.07,-2.85 6.85,-4.63 1.78,-1.78 3.29,-4.3 4.54,-7.56 1.25,-3.26 2.16,-6.11 2.76,-8.54 0.59,-2.43 1.04,-5.7 1.33,-9.79 0.29,-4.09 0.47,-7.12 0.53,-9.08 0.06,-1.96 0.09,-4.83 0.09,-8.63 v -8.9 c 0,-1.78 -0.18,-4.86 -0.53,-9.26 -0.36,-4.39 -0.8,-7.77 -1.33,-10.15 -0.53,-2.37 -1.45,-5.28 -2.76,-8.72 -1.31,-3.44 -2.85,-6.05 -4.63,-7.83 -1.78,-1.78 -4.09,-3.35 -6.94,-4.72 z"
         id="path3906" />
      <path
         class="cls-3"
         d="m 1412.76,490.35 c 7.59,0 14.09,1.4 19.49,4.18 5.4,2.79 9.52,6.2 12.37,10.23 2.85,4.04 5.1,9.29 6.76,15.75 1.66,6.47 2.67,12.28 3.03,17.44 0.36,5.16 0.53,11.36 0.53,18.6 0,6.65 -0.27,12.64 -0.8,17.98 -0.53,5.34 -1.66,10.92 -3.38,16.73 -1.72,5.82 -4.07,10.65 -7.03,14.51 -2.97,3.86 -7,7.03 -12.1,9.52 -5.1,2.49 -11.16,3.74 -18.16,3.74 -7.36,0 -13.74,-1.28 -19.13,-3.83 -5.4,-2.55 -9.58,-5.72 -12.55,-9.52 -2.97,-3.8 -5.31,-8.63 -7.03,-14.51 -1.72,-5.87 -2.82,-11.45 -3.29,-16.73 -0.48,-5.28 -0.71,-11.36 -0.71,-18.24 0,-5.93 0.15,-11.09 0.45,-15.49 0.29,-4.39 0.89,-9.34 1.78,-14.86 0.89,-5.52 2.28,-10.2 4.18,-14.06 1.9,-3.85 4.33,-7.5 7.3,-10.95 2.96,-3.44 6.85,-6.05 11.66,-7.83 4.81,-1.78 10.35,-2.67 16.64,-2.67 z m 9.79,15.58 c -2.85,-1.36 -6.11,-2.05 -9.79,-2.05 -3.68,0 -6.94,0.68 -9.79,2.05 -2.85,1.37 -5.16,2.94 -6.94,4.72 -1.78,1.78 -3.32,4.42 -4.63,7.92 -1.31,3.5 -2.23,6.44 -2.76,8.81 -0.53,2.38 -0.98,5.79 -1.33,10.24 -0.36,4.45 -0.53,7.6 -0.53,9.43 v 9.17 c 0,4.15 0.06,7.6 0.18,10.32 0.12,2.73 0.41,6.29 0.89,10.68 0.47,4.39 1.3,8.04 2.49,10.95 1.18,2.91 2.67,5.82 4.45,8.72 1.78,2.91 4.24,5.1 7.39,6.59 3.14,1.49 6.79,2.23 10.95,2.23 3.56,0 6.73,-0.65 9.52,-1.96 2.79,-1.3 5.07,-2.85 6.85,-4.63 1.78,-1.78 3.29,-4.3 4.54,-7.56 1.25,-3.26 2.16,-6.11 2.76,-8.54 0.59,-2.43 1.04,-5.7 1.33,-9.79 0.29,-4.09 0.47,-7.12 0.53,-9.08 0.06,-1.96 0.09,-4.83 0.09,-8.63 v -8.9 c 0,-1.78 -0.18,-4.86 -0.53,-9.26 -0.36,-4.39 -0.8,-7.77 -1.33,-10.15 -0.53,-2.37 -1.45,-5.28 -2.76,-8.72 -1.31,-3.44 -2.85,-6.05 -4.63,-7.83 -1.78,-1.78 -4.09,-3.35 -6.94,-4.72 z"
         id="path3908" />
      <path
         class="cls-3"
         d="m 1473.81,531.29 c 0.36,-13.05 4,-23.14 10.95,-30.26 6.94,-7.12 16.64,-10.68 29.1,-10.68 11.15,0 20.11,3.03 26.88,9.08 6.76,6.05 10.15,14 10.15,23.85 0,5.94 -1.51,11.24 -4.54,15.93 -3.03,4.69 -7.27,8.16 -12.73,10.41 7.12,1.66 12.75,5.22 16.91,10.68 4.15,5.46 6.23,12.05 6.23,19.76 0.12,11.63 -3.89,21.03 -12.01,28.21 -8.13,7.18 -18.66,10.77 -31.59,10.77 -12.93,0 -23.05,-3.53 -30.71,-10.59 -7.65,-7.06 -11.48,-16.58 -11.48,-28.57 v -2.31 h 14.95 c 0.36,9.02 2.91,15.96 7.65,20.83 4.74,4.87 11.33,7.3 19.76,7.3 8.43,0 14.62,-2.28 19.67,-6.85 5.04,-4.57 7.57,-10.47 7.57,-17.71 0,-7.24 -2.52,-13.23 -7.57,-17.62 -5.04,-4.39 -11.84,-6.59 -20.38,-6.59 -2.14,0 -4.87,0.24 -8.19,0.71 v -12.82 c 1.66,0.12 3.38,0.18 5.16,0.18 7.83,0 14.03,-1.87 18.6,-5.61 4.57,-3.74 6.85,-8.81 6.85,-15.22 0,-6.41 -1.99,-11.15 -5.96,-14.95 -3.98,-3.8 -9.29,-5.7 -15.93,-5.7 -7.6,0 -13.53,2.4 -17.8,7.21 -4.27,4.81 -6.53,11.66 -6.76,20.56 h -14.77 z"
         id="path3910" />
      <path
         class="cls-3"
         d="m 1628.32,559.6 v 14.95 h -51.8 V 559.6 Z"
         id="path3912" />
      <path
         class="cls-3"
         d="m 1726.93,602.85 v 13.71 h -82.24 c 0.36,-7 1.42,-13.11 3.2,-18.33 1.78,-5.22 4.54,-9.94 8.28,-14.15 3.74,-4.21 7.39,-7.68 10.95,-10.41 3.56,-2.73 8.6,-6.11 15.13,-10.15 10.21,-6.41 16.91,-11.21 20.11,-14.42 6.64,-6.52 9.97,-13.76 9.97,-21.72 0,-7 -2.26,-12.73 -6.76,-17.18 -4.51,-4.45 -10.39,-6.67 -17.62,-6.67 -8.66,0 -14.86,3 -18.6,8.99 -3.74,5.99 -5.73,13.56 -5.96,22.69 h -15.31 v -3.38 c 0,-12.46 3.71,-22.49 11.12,-30.08 7.42,-7.59 17.24,-11.39 29.46,-11.39 12.22,0 21.54,3.32 28.66,9.97 7.12,6.65 10.68,15.55 10.68,26.7 0,4.75 -0.8,9.23 -2.4,13.44 -1.6,4.21 -3.38,7.74 -5.34,10.59 -1.96,2.85 -4.93,5.87 -8.9,9.08 -3.98,3.2 -7.27,5.67 -9.88,7.39 -2.61,1.72 -6.35,4.07 -11.21,7.03 -9.73,5.82 -16.2,10.32 -19.4,13.53 -4.51,4.51 -7.42,9.43 -8.72,14.77 h 64.79 z"
         id="path3914" />
      <path
         class="cls-3"
         d="m 1791.72,490.35 c 7.59,0 14.09,1.4 19.49,4.18 5.4,2.79 9.52,6.2 12.37,10.23 2.85,4.04 5.1,9.29 6.76,15.75 1.66,6.47 2.67,12.28 3.03,17.44 0.36,5.16 0.53,11.36 0.53,18.6 0,6.65 -0.27,12.64 -0.8,17.98 -0.53,5.34 -1.66,10.92 -3.38,16.73 -1.72,5.82 -4.07,10.65 -7.03,14.51 -2.97,3.86 -7,7.03 -12.1,9.52 -5.1,2.49 -11.16,3.74 -18.16,3.74 -7.36,0 -13.74,-1.28 -19.13,-3.83 -5.4,-2.55 -9.58,-5.72 -12.55,-9.52 -2.97,-3.8 -5.31,-8.63 -7.03,-14.51 -1.72,-5.87 -2.82,-11.45 -3.29,-16.73 -0.48,-5.28 -0.71,-11.36 -0.71,-18.24 0,-5.93 0.15,-11.09 0.45,-15.49 0.29,-4.39 0.89,-9.34 1.78,-14.86 0.89,-5.52 2.28,-10.2 4.18,-14.06 1.9,-3.85 4.33,-7.5 7.3,-10.95 2.96,-3.44 6.85,-6.05 11.66,-7.83 4.81,-1.78 10.35,-2.67 16.64,-2.67 z m 9.79,15.58 c -2.85,-1.36 -6.11,-2.05 -9.79,-2.05 -3.68,0 -6.94,0.68 -9.79,2.05 -2.85,1.37 -5.16,2.94 -6.94,4.72 -1.78,1.78 -3.32,4.42 -4.63,7.92 -1.31,3.5 -2.23,6.44 -2.76,8.81 -0.53,2.38 -0.98,5.79 -1.33,10.24 -0.36,4.45 -0.53,7.6 -0.53,9.43 v 9.17 c 0,4.15 0.06,7.6 0.18,10.32 0.12,2.73 0.41,6.29 0.89,10.68 0.47,4.39 1.3,8.04 2.49,10.95 1.18,2.91 2.67,5.82 4.45,8.72 1.78,2.91 4.24,5.1 7.39,6.59 3.14,1.49 6.79,2.23 10.95,2.23 3.56,0 6.73,-0.65 9.52,-1.96 2.79,-1.3 5.07,-2.85 6.85,-4.63 1.78,-1.78 3.29,-4.3 4.54,-7.56 1.25,-3.26 2.16,-6.11 2.76,-8.54 0.59,-2.43 1.04,-5.7 1.33,-9.79 0.29,-4.09 0.47,-7.12 0.53,-9.08 0.06,-1.96 0.09,-4.83 0.09,-8.63 v -8.9 c 0,-1.78 -0.18,-4.86 -0.53,-9.26 -0.36,-4.39 -0.8,-7.77 -1.33,-10.15 -0.53,-2.37 -1.45,-5.28 -2.76,-8.72 -1.31,-3.44 -2.85,-6.05 -4.63,-7.83 -1.78,-1.78 -4.09,-3.35 -6.94,-4.72 z"
         id="path3916" />
      <path
         class="cls-3"
         d="m 1931.27,602.85 v 13.71 h -82.24 c 0.36,-7 1.42,-13.11 3.2,-18.33 1.78,-5.22 4.54,-9.94 8.28,-14.15 3.74,-4.21 7.39,-7.68 10.95,-10.41 3.56,-2.73 8.6,-6.11 15.13,-10.15 10.21,-6.41 16.91,-11.21 20.11,-14.42 6.64,-6.52 9.97,-13.76 9.97,-21.72 0,-7 -2.26,-12.73 -6.76,-17.18 -4.51,-4.45 -10.39,-6.67 -17.62,-6.67 -8.66,0 -14.86,3 -18.6,8.99 -3.74,5.99 -5.73,13.56 -5.96,22.69 h -15.31 v -3.38 c 0,-12.46 3.71,-22.49 11.12,-30.08 7.42,-7.59 17.24,-11.39 29.46,-11.39 12.22,0 21.54,3.32 28.66,9.97 7.12,6.65 10.68,15.55 10.68,26.7 0,4.75 -0.8,9.23 -2.4,13.44 -1.6,4.21 -3.38,7.74 -5.34,10.59 -1.96,2.85 -4.93,5.87 -8.9,9.08 -3.98,3.2 -7.27,5.67 -9.88,7.39 -2.61,1.72 -6.35,4.07 -11.21,7.03 -9.73,5.82 -16.2,10.32 -19.4,13.53 -4.51,4.51 -7.42,9.43 -8.72,14.77 h 64.79 z"
         id="path3918" />
      <path
         class="cls-3"
         d="m 1954.95,531.29 c 0.36,-13.05 4,-23.14 10.95,-30.26 6.94,-7.12 16.64,-10.68 29.1,-10.68 11.15,0 20.11,3.03 26.88,9.08 6.76,6.05 10.15,14 10.15,23.85 0,5.94 -1.51,11.24 -4.54,15.93 -3.03,4.69 -7.27,8.16 -12.73,10.41 7.12,1.66 12.75,5.22 16.91,10.68 4.15,5.46 6.23,12.05 6.23,19.76 0.12,11.63 -3.89,21.03 -12.01,28.21 -8.13,7.18 -18.66,10.77 -31.59,10.77 -12.93,0 -23.05,-3.53 -30.71,-10.59 -7.65,-7.06 -11.48,-16.58 -11.48,-28.57 v -2.31 h 14.95 c 0.36,9.02 2.91,15.96 7.65,20.83 4.74,4.87 11.33,7.3 19.76,7.3 8.43,0 14.62,-2.28 19.67,-6.85 5.04,-4.57 7.57,-10.47 7.57,-17.71 0,-7.24 -2.52,-13.23 -7.57,-17.62 -5.04,-4.39 -11.84,-6.59 -20.38,-6.59 -2.14,0 -4.87,0.24 -8.19,0.71 v -12.82 c 1.66,0.12 3.38,0.18 5.16,0.18 7.83,0 14.03,-1.87 18.6,-5.61 4.57,-3.74 6.85,-8.81 6.85,-15.22 0,-6.41 -1.99,-11.15 -5.96,-14.95 -3.98,-3.8 -9.29,-5.7 -15.93,-5.7 -7.6,0 -13.53,2.4 -17.8,7.21 -4.27,4.81 -6.53,11.66 -6.76,20.56 h -14.77 z"
         id="path3920" />
    </g>
    <path
       class="cls-6"
       d="m 543.23,796.36 v 51.66 H 242.24 c 1.3,-26.38 5.21,-49.41 11.73,-69.1 6.51,-19.67 16.61,-37.45 30.29,-53.33 13.68,-15.87 27.04,-28.95 40.07,-39.24 13.03,-10.28 31.49,-23.03 55.38,-38.24 37.35,-24.15 61.89,-42.26 73.62,-54.34 24.32,-24.59 36.48,-51.88 36.48,-81.84 0,-26.38 -8.26,-47.97 -24.76,-64.74 -16.51,-16.77 -38.01,-25.16 -64.5,-25.16 -31.71,0 -54.4,11.3 -68.08,33.88 -13.68,22.59 -20.96,51.1 -21.83,85.53 h -56.03 v -12.75 c 0,-46.96 13.57,-84.75 40.72,-113.37 27.14,-28.62 63.08,-42.93 107.82,-42.93 44.74,0 78.83,12.53 104.89,37.57 26.06,25.05 39.09,58.59 39.09,100.63 0,17.89 -2.93,34.78 -8.79,50.65 -5.86,15.88 -12.38,29.18 -19.55,39.92 -7.17,10.73 -18.03,22.14 -32.57,34.21 -14.56,12.08 -26.61,21.36 -36.16,27.84 -9.56,6.49 -23.24,15.32 -41.04,26.5 -35.62,21.92 -59.29,38.91 -71.01,50.98 -16.51,17 -27.15,35.56 -31.92,55.68 h 237.15 z"
       id="path3924" />
    <g
       aria-label="pronoide"
       transform="matrix(1.0171801,0,0,0.98755348,227.70798,4.9064921)"
       id="text22"
       style="font-size:120px;font-family:HelveticaNeueCyr-Roman, HelveticaNeueCyr;fill:#ffffff;stroke:#ffffff;stroke-width:1.01489;stroke-miterlimit:10"
       class="cls-1">
      <path
         d="m 344.6312,648.57825 v 34.80468 H 333.79135 V 592.797 h 10.83985 v 9.96093 q 3.39843,-5.85937 8.55468,-8.67187 5.21485,-2.87109 12.42188,-2.87109 11.95312,0 19.39453,9.49218 7.5,9.49219 7.5,24.96094 0,15.46875 -7.5,24.96094 -7.44141,9.49219 -19.39453,9.49219 -7.20703,0 -12.42188,-2.8125 -5.15625,-2.8711 -8.55468,-8.73047 z m 36.67968,-22.91016 q 0,-11.89453 -4.92187,-18.63281 -4.86328,-6.79688 -13.41797,-6.79688 -8.55469,0 -13.47656,6.79688 -4.86328,6.73828 -4.86328,18.63281 0,11.89453 4.86328,18.69141 4.92187,6.73828 13.47656,6.73828 8.55469,0 13.41797,-6.73828 4.92187,-6.79688 4.92187,-18.69141 z"
         style="letter-spacing:0.01em"
         id="path3824" />
      <path
         d="m 452.18182,602.87512 q -1.8164,-1.05469 -3.98437,-1.52344 -2.10938,-0.52734 -4.6875,-0.52734 -9.14063,0 -14.0625,5.97656 -4.86328,5.91797 -4.86328,17.05078 V 658.422 h -10.83985 v -65.625 h 10.83985 v 10.19531 q 3.39843,-5.97656 8.84765,-8.84766 5.44922,-2.92968 13.24219,-2.92968 1.11328,0 2.46094,0.17578 1.34765,0.11718 2.98828,0.41015 z"
         style="letter-spacing:0em"
         id="path3826" />
      <path
         d="m 482.85904,600.35559 q -8.67188,0 -13.71094,6.79688 -5.03906,6.73828 -5.03906,18.51562 0,11.77734 4.98047,18.57422 5.03906,6.73828 13.76953,6.73828 8.61328,0 13.65234,-6.79687 5.03907,-6.79688 5.03907,-18.51563 0,-11.66016 -5.03907,-18.45703 -5.03906,-6.85547 -13.65234,-6.85547 z m 0,-9.14062 q 14.0625,0 22.08984,9.14062 8.02735,9.14063 8.02735,25.3125 0,16.11328 -8.02735,25.3125 -8.02734,9.14063 -22.08984,9.14063 -14.12109,0 -22.14844,-9.14063 -7.96875,-9.19922 -7.96875,-25.3125 0,-16.17187 7.96875,-25.3125 8.02735,-9.14062 22.14844,-9.14062 z"
         style="letter-spacing:0.01em"
         id="path3828" />
      <path
         d="M 586.5981,618.81262 V 658.422 h -10.78125 v -39.25782 q 0,-9.3164 -3.63281,-13.94531 -3.63282,-4.6289 -10.89844,-4.6289 -8.73047,0 -13.76953,5.5664 -5.03906,5.56641 -5.03906,15.17578 V 658.422 h -10.83985 v -65.625 h 10.83985 v 10.19531 q 3.86718,-5.91797 9.08203,-8.84766 5.27343,-2.92968 12.1289,-2.92968 11.3086,0 17.10938,7.03125 5.80078,6.97265 5.80078,20.5664 z"
         style="letter-spacing:0.01em"
         id="path3830" />
      <path
         d="m 634.73169,600.35559 q -8.67188,0 -13.71094,6.79688 -5.03906,6.73828 -5.03906,18.51562 0,11.77734 4.98047,18.57422 5.03906,6.73828 13.76953,6.73828 8.61328,0 13.65234,-6.79687 5.03907,-6.79688 5.03907,-18.51563 0,-11.66016 -5.03907,-18.45703 -5.03906,-6.85547 -13.65234,-6.85547 z m 0,-9.14062 q 14.0625,0 22.08984,9.14062 8.02735,9.14063 8.02735,25.3125 0,16.11328 -8.02735,25.3125 -8.02734,9.14063 -22.08984,9.14063 -14.12109,0 -22.14844,-9.14063 -7.96875,-9.19922 -7.96875,-25.3125 0,-16.17187 7.96875,-25.3125 8.02735,-9.14062 22.14844,-9.14062 z"
         style="letter-spacing:0.01em"
         id="path3832" />
      <path
         d="m 683.91998,592.797 h 10.78125 v 65.625 h -10.78125 z m 0,-25.54688 h 10.78125 v 13.65235 h -10.78125 z"
         style="letter-spacing:0.01em"
         id="path3834" />
      <path
         d="m 761.6434,602.75793 v -35.50781 h 10.78125 V 658.422 H 761.6434 v -9.84375 q -3.39844,5.85937 -8.61328,8.73047 -5.15625,2.8125 -12.42187,2.8125 -11.89454,0 -19.39454,-9.49219 -7.4414,-9.49219 -7.4414,-24.96094 0,-15.46875 7.4414,-24.96094 7.5,-9.49218 19.39454,-9.49218 7.26562,0 12.42187,2.87109 5.21484,2.8125 8.61328,8.67187 z m -36.73828,22.91016 q 0,11.89453 4.86328,18.69141 4.92188,6.73828 13.47656,6.73828 8.55469,0 13.47657,-6.73828 4.92187,-6.79688 4.92187,-18.69141 0,-11.89453 -4.92187,-18.63281 -4.92188,-6.79688 -13.47657,-6.79688 -8.55468,0 -13.47656,6.79688 -4.86328,6.73828 -4.86328,18.63281 z"
         style="letter-spacing:0.01em"
         id="path3836" />
      <path
         d="m 851.96451,622.91418 v 5.27344 H 802.3942 q 0.70312,11.13281 6.67968,16.99219 6.03516,5.80078 16.75782,5.80078 6.21093,0 12.01171,-1.52344 5.85938,-1.52343 11.60157,-4.57031 v 10.19531 q -5.80078,2.46094 -11.89453,3.75 -6.09375,1.28907 -12.36329,1.28907 -15.70312,0 -24.90234,-9.14063 -9.14062,-9.14062 -9.14062,-24.72656 0,-16.11328 8.67187,-25.54688 8.73047,-9.49218 23.49609,-9.49218 13.24219,0 20.91797,8.55468 7.73438,8.4961 7.73438,23.14453 z m -10.78125,-3.16406 q -0.11719,-8.84765 -4.98047,-14.12109 -4.80469,-5.27344 -12.77344,-5.27344 -9.02344,0 -14.47265,5.09766 -5.39063,5.09765 -6.21094,14.35547 z"
         style="letter-spacing:0.01em"
         id="path3838" />
    </g>
  </g>
</svg>
