<?xml version="1.0" encoding="UTF-8" standalone="no"?>
<!-- Created with Inkscape (http://www.inkscape.org/) -->

<svg
   version="1.1"
   id="svg1"
   width="164.04167mm"
   height="210.07916mm"
   viewBox="0 0 620.00002 793.99998"
   sodipodi:docname="tecnologies.svg"
   xml:space="preserve"
   inkscape:version="1.4.2 (ebf0e940d0, 2025-05-08)"
   xmlns:inkscape="http://www.inkscape.org/namespaces/inkscape"
   xmlns:sodipodi="http://sodipodi.sourceforge.net/DTD/sodipodi-0.dtd"
   xmlns="http://www.w3.org/2000/svg"
   xmlns:svg="http://www.w3.org/2000/svg"><defs
     id="defs1" /><sodipodi:namedview
     id="namedview1"
     pagecolor="#ffffff"
     bordercolor="#000000"
     borderopacity="0.25"
     inkscape:showpageshadow="2"
     inkscape:pageopacity="0.0"
     inkscape:pagecheckerboard="0"
     inkscape:deskcolor="#d1d1d1"
     inkscape:zoom="0.50377834"
     inkscape:cx="344.3975"
     inkscape:cy="285.84"
     inkscape:window-width="1920"
     inkscape:window-height="1011"
     inkscape:window-x="0"
     inkscape:window-y="0"
     inkscape:window-maximized="1"
     inkscape:current-layer="g1"
     inkscape:document-units="mm" /><g
     inkscape:groupmode="layer"
     inkscape:label="Image"
     id="g1"><path
       id="path20"
       style="fill:#0070ac;fill-opacity:1;stroke-width:1.14852"
       d="m 160.27442,515.48328 c -24.57121,-2.35997 -41.46667,-10.66006 -47.4757,-23.32315 -1.83132,-3.85912 -1.99004,-7.98146 -1.67938,-43.59418 l 0.3432,-39.33215 3.34365,-6.03467 c 3.83124,-6.91451 8.75916,-11.06822 17.17813,-14.47875 5.49623,-2.22663 8.80188,-2.42888 48.96339,-2.99659 40.77839,-0.57644 43.34979,-0.7385 48.34032,-3.04677 7.04568,-3.25879 13.32369,-9.74896 16.98746,-17.56172 2.85452,-6.0869 3.02817,-7.52105 3.38549,-27.95084 l 0.3767,-21.53466 14.55398,0.0118 c 12.82663,0.0118 15.23574,0.32937 20.29667,2.69108 10.37916,4.84351 18.47709,16.7242 23.20886,34.05028 2.95639,10.82483 2.90437,46.75053 -0.0826,57.42574 -4.75438,16.98907 -11.73058,26.63359 -23.43385,32.39732 l -7.67713,3.78092 -50.8489,0.3426 -50.84891,0.34258 v 4.53859 4.53861 h 32.80827 32.80836 l -0.36282,19.42195 -0.36269,19.42196 -3.52319,4.3492 c -5.0753,6.26517 -15.76947,11.71429 -27.84508,14.18832 -12.32942,2.52603 -35.12583,3.63308 -48.45356,2.35307 z m 61.15845,-24.10884 c 9.89077,-10.97152 -5.96228,-26.68172 -16.39587,-16.24815 -4.15223,4.15223 -5.24386,8.36798 -3.35043,12.93896 3.42933,8.27917 13.71246,10.00253 19.7463,3.30919 z M 73.362138,447.6769 C 62.57393,445.50147 54.179989,438.09437 48.17603,425.45197 c -6.012956,-12.66157 -7.693807,-22.3855 -7.667612,-44.3568 0.01832,-15.61555 0.448598,-20.5319 2.443452,-27.93705 4.3423,-16.11932 12.58167,-27.49352 23.982858,-33.10781 5.468073,-2.69267 5.574641,-2.69831 56.874332,-3.02956 l 51.39607,-0.3318 v -4.54937 -4.54939 h -32.7327 -32.73269 v -17.4393 c 0,-15.44752 0.27946,-18.01663 2.4467,-22.49355 6.9986,-14.45727 31.87257,-21.91253 68.76127,-20.60942 31.42394,1.11017 50.422,8.74755 57.34778,23.05439 2.25625,4.66079 2.37502,6.83195 2.37502,43.40962 v 38.50351 l -3.48035,6.96472 c -3.72017,7.44478 -8.16571,11.53809 -16.92488,15.5841 -5.20907,2.40613 -7.26089,2.53511 -49.07995,3.08537 l -43.64359,0.57424 -6.55122,3.21711 c -7.5608,3.71294 -11.55856,8.00031 -15.74122,16.88194 -2.78882,5.92182 -3.01072,7.68158 -3.54915,28.13859 l -0.57425,21.82179 -11.485171,0.1801 c -6.316823,0.0987 -13.642169,-0.25485 -16.278591,-0.7865 z m 73.991512,-161.378 c 6.07437,-6.94737 0.4441,-18.90676 -8.90101,-18.90676 -3.77965,0 -8.14814,2.62115 -9.84852,5.90924 -6.5764,12.71726 9.34467,23.75403 18.74953,12.99752 z" /><path
       id="path6"
       style="fill:#0085bf;fill-opacity:1;stroke-width:1.1066"
       d="m 439.10908,561.24138 c -23.9243,-2.32775 -47.39547,-6.54936 -45.70456,-8.22045 0.48779,-0.48225 5.86666,-0.14553 11.95302,0.74841 16.33286,2.39856 54.3734,3.22841 74.69604,1.62948 37.241,-2.93008 66.83115,-11.00677 79.55764,-21.71527 4.00446,-3.36952 5.07386,-3.12572 3.57548,0.81534 -5.89245,15.49835 -53.01203,27.84511 -104.15868,27.29258 -8.8252,-0.0952 -17.78872,-0.34284 -19.91894,-0.55009 z m -11.06607,-15.52184 c -26.06095,-1.9556 -53.53659,-7.13139 -62.81418,-11.8326 -7.16762,-3.6321 -9.11535,-5.66271 -9.11535,-9.5035 0,-6.39841 10.16973,-12.14756 29.68686,-16.78294 12.6191,-2.99702 16.22775,-2.27562 6.34209,1.26775 -8.35246,2.99381 -15.42136,8.61849 -14.81151,11.78537 1.31221,6.8139 25.53111,13.20521 60.47778,15.96011 12.90317,1.01709 21.70965,1.03127 37.57211,0.0597 39.3221,-2.40731 61.62025,-7.79714 69.93973,-16.90571 2.63736,-2.88758 3.15261,-3.06928 4.40949,-1.55478 3.38424,4.07774 1.04155,9.49996 -5.9791,13.83897 -8.80107,5.43932 -33.49071,10.86951 -60.37753,13.27928 -11.71643,1.05015 -43.53262,1.27315 -55.33039,0.38785 z m 8.09483,-27.95406 c -14.86818,-2.34435 -26.90717,-7.96469 -26.90717,-12.56154 0,-2.29357 3.38886,-4.9336 8.7703,-6.83232 6.10394,-2.15356 9.0596,-2.19339 8.2606,-0.11156 -0.96263,2.50859 3.83695,4.84497 12.84962,6.25512 9.19923,1.43936 38.54459,0.74308 45.91538,-1.08946 4.04176,-1.0048 5.02665,-0.75925 11.51957,2.87175 l 7.09999,3.97052 -2.98043,1.56165 c -7.99092,4.18683 -19.81404,6.13281 -39.42446,6.48893 -10.6511,0.19343 -21.94757,-0.0554 -25.1034,-0.5531 z m -4.77501,-32.17994 c -26.46996,-3.64151 -40.61064,-10.78843 -33.2071,-16.78348 2.26036,-1.83032 8.36684,-3.96177 17.16129,-5.99007 3.25275,-0.75017 3.28021,-0.72085 1.35658,1.4532 -2.7757,3.13712 -1.41059,5.44385 4.39179,7.42091 13.74783,4.68439 54.70517,5.20571 74.66284,0.95046 l 9.58821,-2.04445 5.08586,2.91292 c 2.79729,1.60215 5.36152,3.18859 5.69837,3.52532 0.95654,0.95666 -12.43851,5.09792 -22.79911,7.04867 -10.96239,2.06414 -50.83604,3.03398 -61.93873,1.50652 z m 94.06168,-3.13159 c 0,-0.5221 3.11233,-2.86279 6.91631,-5.20161 9.45882,-5.81556 18.21796,-14.32106 21.57961,-20.95507 7.11779,-14.04628 0.36275,-28.22448 -13.44729,-28.22448 -2.19041,0 -3.98255,-0.43987 -3.98255,-0.97745 0,-1.43871 4.16582,-2.31005 11.12549,-2.32719 17.40745,-0.0431 28.01521,15.23854 21.11759,30.42163 -4.06818,8.95489 -20.15794,20.50989 -36.28541,26.05852 -7.22406,2.48545 -7.02375,2.45102 -7.02375,1.20565 z m -90.18856,-26.71109 c -28.9575,-2.19518 -51.45726,-8.45204 -51.45726,-14.30942 0,-4.51033 6.9309,-7.85272 22.7949,-10.99283 22.11522,-4.3773 32.76058,-4.08671 13.16986,0.35966 -10.9251,2.47946 -16.04582,4.82546 -16.04582,7.35119 0,6.78416 53.79299,11.17474 87.97532,7.18043 8.52088,-0.99559 18.45524,-2.50511 22.07628,-3.35433 6.23939,-1.46338 6.8031,-1.41879 10.78091,0.85185 2.30839,1.31776 4.20103,2.71219 4.20567,3.09884 0.0154,1.29993 -17.02726,5.45092 -31.0086,7.55239 -16.55286,2.48786 -45.62977,3.54059 -62.49126,2.26222 z m 39.28459,-19.22167 c 0,-0.26524 1.24006,-3.14619 2.75578,-6.40193 1.51561,-3.25576 2.76054,-7.28358 2.76652,-8.95082 0.0156,-4.48584 -3.36387,-12.4096 -9.71602,-22.77874 -6.72174,-10.97247 -8.53394,-17.99212 -6.88687,-26.67721 2.87265,-15.14725 16.14443,-28.55249 38.91012,-39.30153 14.17554,-6.6932 19.16412,-7.7447 10.07135,-2.12292 -21.69938,13.41598 -33.24925,28.49106 -32.13379,41.94189 0.47528,5.73146 1.69588,8.62922 10.81233,25.67009 6.23141,11.64806 4.1937,21.61084 -6.45827,31.57442 -4.85293,4.5394 -10.12115,8.20726 -10.12115,7.04675 z m -22.14688,-12.48518 c -27.6891,-18.41009 -38.28632,-41.38594 -28.27859,-61.31084 4.49924,-8.95799 10.72169,-15.63837 28.81507,-30.93567 18.3386,-15.5048 28.51796,-25.80278 32.90456,-33.28788 4.72797,-8.06784 6.78482,-16.89712 6.08656,-26.1289 -0.33598,-4.44279 -0.37282,-8.07791 -0.0818,-8.07791 0.29104,0 1.76549,2.70046 3.27655,6.00103 7.15788,15.63493 3.31409,33.71724 -10.88846,51.22223 -3.1627,3.89802 -12.19782,12.90981 -20.07808,20.02629 -26.04612,23.52138 -30.89936,32.67249 -26.75579,50.4497 2.32974,9.99544 7.00849,18.57906 15.0885,27.68135 8.81268,9.92783 8.80571,10.2742 -0.0886,4.3606 z" /><path
       id="path2"
       style="fill:#264e94;fill-opacity:1;stroke-width:0.831789"
       d="m 345.50729,778.69424 c -20.14366,-2.44096 -38.39965,-7.76766 -56.56158,-16.50309 -22.67579,-10.90665 -48.40922,-30.82705 -39.82268,-30.82705 0.68888,0 4.69061,1.84932 8.89264,4.10969 46.2989,24.9049 104.10077,33.04003 156.35916,22.00627 11.90065,-2.51265 26.09968,-6.71776 36.28975,-10.74727 4.02219,-1.59054 7.88202,-2.89188 8.57739,-2.89188 1.71998,0 3.33106,2.09294 2.98678,3.88029 -0.44233,2.29682 -7.65901,7.27309 -18.98639,13.09185 -15.39481,7.9083 -32.68926,13.52154 -51.58239,16.74206 -9.4868,1.61706 -36.67163,2.28807 -46.15268,1.13913 z m 118.90242,-10.50282 c 2.66081,-6.93379 7.11668,-21.3614 7.55953,-24.47634 0.45873,-3.22677 0.27157,-4.14722 -1.12732,-5.54612 -2.40213,-2.40213 -9.29373,-3.02156 -21.12284,-1.89847 -5.52398,0.52442 -10.2572,0.74003 -10.51819,0.47902 -1.99848,-1.99846 7.27331,-7.24704 16.10241,-9.11525 9.99625,-2.11515 23.01565,-1.23261 26.35144,1.78621 4.78088,4.32661 -2.1871,27.54555 -11.02726,36.74555 -3.4124,3.55124 -7.28772,4.81355 -6.21777,2.0254 z m -28.47394,-57.15855 c -3.33247,-0.6305 -7.82412,-2.02199 -9.98145,-3.09226 l -3.92254,-1.94605 -0.24946,-4.78278 c -0.29353,-5.62788 0.11613,-5.79672 7.31965,-3.0159 4.91171,1.89608 17.51098,3.03719 22.72803,2.05844 1.61608,-0.3032 4.08798,-1.62525 5.4932,-2.93788 2.0631,-1.92725 2.55492,-3.05524 2.55492,-5.85996 0,-5.45553 -2.64341,-7.45529 -15.21523,-11.51043 -5.82784,-1.87985 -12.23726,-4.54706 -14.24321,-5.92716 -7.06728,-4.86237 -9.94543,-15.17022 -6.40951,-22.9546 2.05836,-4.53132 8.21516,-9.778 13.46351,-11.47293 8.73285,-2.82043 25.7073,-1.00222 30.28955,3.24439 1.5408,1.42802 2.09634,2.79107 2.09634,5.14344 0,4.7891 -1.10445,5.39747 -6.14109,3.38279 -5.29948,-2.11988 -17.26341,-2.9852 -21.57932,-1.56083 -3.87913,1.28028 -6.38289,4.46762 -6.38289,8.12581 0,4.61585 3.14657,6.97711 14.14929,10.61818 15.45413,5.1141 19.33532,7.57336 21.99382,13.93603 1.84955,4.42661 1.65451,11.83251 -0.42481,16.1277 -5.02009,10.37007 -19.54826,15.44895 -35.5388,12.424 z m -167.36886,-1.31605 c -8.10678,-3.78165 -11.20036,-8.94504 -11.20036,-18.69444 0,-7.90106 1.72129,-11.88898 7.12975,-16.51839 5.2179,-4.46628 10.41524,-5.9601 20.29047,-5.83182 4.57484,0.0591 9.9921,0.50622 12.03838,0.99298 2.04629,0.48668 3.85876,0.74661 4.02778,0.57759 0.16901,-0.16894 0.0407,-3.15389 -0.28557,-6.6331 -1.05153,-11.22164 -4.5616,-14.20668 -16.61238,-14.12749 -5.96416,0.0391 -8.79641,0.51438 -13.93127,2.33724 -3.54483,1.2584 -6.82,2.05635 -7.27816,1.77321 -1.46486,-0.90531 -0.99198,-8.33402 0.62268,-9.78184 3.23616,-2.9016 11.95903,-5.06524 21.83443,-5.41592 8.34974,-0.29646 10.18567,-0.10653 14.44384,1.49371 2.81219,1.05688 6.19673,3.15189 7.99132,4.94648 5.2915,5.29142 5.96881,8.54762 6.58017,31.63106 0.45177,17.05689 0.77492,20.81276 1.98208,23.04077 2.58969,4.77954 1.7886,6.32475 -5.14519,9.9249 -2.70397,1.40398 -4.47443,0.34928 -7.18882,-4.28239 l -2.18351,-3.72589 -3.34386,2.86235 c -5.71581,4.89249 -10.14607,6.53494 -18.54264,6.87439 -6.27775,0.25378 -8.09022,0.0208 -11.22914,-1.4434 z m 20.87853,-10.07554 c 4.13491,-1.38442 8.25625,-4.72397 9.48888,-7.68879 0.59307,-1.42652 1.34201,-4.72149 1.66432,-7.32207 l 0.58608,-4.72838 -3.2082,-0.67824 c -1.76457,-0.37306 -6.76418,-0.67824 -11.11028,-0.67824 -6.3715,0 -8.42292,0.31509 -10.59182,1.62707 -5.97116,3.61179 -7.05789,13.54025 -1.97873,18.07849 2.23326,1.99545 3.3244,2.33682 7.46886,2.33682 2.66939,0 6.12579,-0.42604 7.68089,-0.94666 z m 51.60746,8.6407 c -1.76439,-3.33605 -20.22799,-66.00602 -19.78591,-67.15813 0.36665,-0.95539 1.87909,-1.25651 6.31162,-1.25651 5.14651,0 5.96558,0.21928 6.99133,1.87153 0.63906,1.02933 3.85692,12.74906 7.15088,26.04385 3.29388,13.29472 6.25589,24.6042 6.58228,25.13223 0.3263,0.52802 3.33282,-10.72382 6.68109,-25.00405 3.34835,-14.2802 6.46823,-26.43196 6.93319,-27.00382 1.17241,-1.44207 11.81621,-1.39216 13.26693,0.0623 0.60455,0.60613 3.88795,13.00842 7.29636,27.5607 4.1764,17.83046 6.40643,25.94754 6.83863,24.89133 0.35277,-0.86197 3.30369,-12.01285 6.55766,-24.7797 6.37698,-25.01983 7.02769,-27.1646 8.5314,-28.12075 1.84092,-1.17057 11.39723,-0.75784 11.88499,0.51331 0.43311,1.12864 -18.6481,63.6489 -20.45765,67.03002 -0.77116,1.44092 -1.73511,1.6734 -6.93837,1.6734 -3.45058,0 -6.45375,-0.411 -7.0009,-0.95814 -0.52695,-0.52694 -3.67144,-12.13039 -6.98785,-25.78541 -3.31635,-13.65506 -6.26136,-24.82737 -6.54452,-24.82737 -0.28314,0 -3.05764,10.76135 -6.16553,23.914 -3.10788,13.15263 -6.17836,24.75606 -6.82325,25.7854 -1.04513,1.66815 -1.84523,1.87152 -7.36247,1.87152 -5.04746,0 -6.33208,-0.26875 -6.95991,-1.45563 z" /><path
       style="fill:#162f70;fill-opacity:1;stroke-width:0.195735"
       d="m 347.00176,203.22846 c -0.0233,-0.0191 -2.46414,-0.0867 -5.42465,-0.15136 -2.96059,-0.0649 -5.64707,-0.1576 -5.97004,-0.20652 -0.32294,-0.0493 -1.37992,-0.14257 -2.34879,-0.208 -13.66966,-0.92281 -28.08141,-4.26125 -38.0708,-8.81885 -12.30078,-5.61223 -21.96447,-15.45985 -29.04082,-29.59392 -4.91523,-9.81745 -8.76862,-23.20392 -10.38343,-36.0711 -0.64784,-5.16239 -0.7864,-7.54058 -0.79289,-13.60372 l -0.009,-6.26351 0.62344,-1.31605 c 0.86637,-1.82884 2.14446,-3.13088 3.94848,-4.0225 l 1.47556,-0.72933 89.65752,-0.10084 89.65745,-0.10094 2.74034,-0.44798 c 5.49087,-0.89765 10.0699,-2.169875 12.83686,-3.566569 l 1.14626,-0.578674 -0.70497,-1.202889 c -3.56589,-6.084227 -5.37148,-14.080188 -4.78089,-21.171509 0.54565,-6.551721 2.00054,-11.699738 5.09998,-18.045629 1.2843,-2.629422 4.72304,-8.261189 5.23911,-8.580086 0.20375,-0.125952 4.58127,2.505547 6.14466,3.69382 5.64437,4.289958 10.21528,9.642074 13.04396,15.273064 1.49128,2.968634 3.01479,7.667473 3.68207,11.356034 0.0717,0.397467 0.11214,0.401447 1.62777,0.160268 4.7731,-0.759511 13.12236,-0.848732 17.34352,-0.185258 5.89197,0.926015 10.22505,2.575829 14.28879,5.440378 1.0765,0.758901 2.02689,1.440622 2.11196,1.515042 0.0847,0.07438 -0.15949,1.008138 -0.54348,2.07496 -1.65356,4.594418 -4.10576,8.553723 -7.41672,11.974983 -3.64773,3.769295 -6.49578,5.874415 -10.78937,7.975055 -5.74476,2.81061 -11.67613,4.14325 -19.09518,4.2902 l -3.18432,0.0631 -0.56612,1.44322 c -8.95408,22.82628 -19.23983,39.4133 -32.9395,53.1185 -13.09358,13.09885 -28.83102,22.64314 -47.77499,28.974 -9.71989,3.24821 -21.34234,5.6213 -32.96635,6.73111 -5.54653,0.52955 -6.34667,0.57953 -11.35274,0.7091 -2.42221,0.0624 -4.86965,0.13474 -5.43865,0.1602 -0.56907,0.0252 -1.05351,0.0311 -1.07658,0.0103 z M 278.80731,97.088483 c -0.71602,-0.216802 -1.40351,-0.953055 -1.52749,-1.635715 -0.0649,-0.355809 -0.0914,-5.564689 -0.0595,-11.575347 l 0.0579,-10.928467 0.63919,-0.571063 0.63926,-0.571054 h 12.49763 c 12.31013,0 12.50534,0.0086 13.0087,0.40197 0.28104,0.22113 0.60591,0.727524 0.72184,1.125524 0.14272,0.48971 0.19164,4.248113 0.15152,11.632135 l -0.0597,10.90867 -0.63986,0.639796 -0.63977,0.639776 -12.18092,0.03203 c -6.69953,0.01728 -12.3734,-0.02678 -12.60861,-0.09781 z m 31.90495,-0.122405 c -1.2614,-0.548664 -1.23599,-0.291232 -1.23599,-12.515261 0,-8.157714 0.0614,-11.194376 0.23384,-11.572926 0.4962,-1.089045 0.26841,-1.071057 13.56878,-1.071057 8.64119,0 12.38222,0.06487 12.68366,0.218622 0.23514,0.120323 0.5797,0.406548 0.76565,0.636149 0.31163,0.384685 0.33861,1.309568 0.34259,11.775641 0.009,12.597815 0.0682,11.975833 -1.28727,12.542412 -0.96117,0.401623 -24.14541,0.389083 -25.07126,-0.01384 z m 32.89813,0.09468 c -0.22734,-0.09185 -0.60165,-0.406464 -0.83186,-0.69908 -0.41675,-0.529748 -0.41849,-0.58023 -0.41414,-11.907297 0,-10.482323 0.0311,-11.407983 0.3425,-11.792756 0.18602,-0.229602 0.53058,-0.515827 0.76572,-0.636147 0.59233,-0.302914 24.70395,-0.308793 25.3682,-0.0086 0.25638,0.116881 0.61282,0.460759 0.7921,0.764272 0.29391,0.497494 0.32597,1.655607 0.32597,11.781775 0,10.065479 -0.0328,11.27728 -0.31923,11.685724 -0.70081,1.000708 -0.72598,1.002517 -13.62073,0.989199 -6.59737,-0.0081 -12.18117,-0.08761 -12.40853,-0.179456 z m 32.22328,-0.151022 c -0.37527,-0.188196 -0.79239,-0.562416 -0.92688,-0.83161 -0.18682,-0.373957 -0.24515,-3.134858 -0.24733,-11.714779 v -11.22553 l 0.66544,-0.665546 0.66557,-0.665456 h 12.56179 12.56176 l 0.55532,0.55541 c 0.37,0.369898 0.59701,0.843706 0.67999,1.419093 0.0682,0.475015 0.0979,5.591649 0.0659,11.370288 -0.0581,10.314966 -0.0667,10.516733 -0.46923,11.059182 -0.78924,1.062588 -0.44441,1.035791 -13.38905,1.03855 -11.07295,0 -12.09247,-0.02506 -12.72015,-0.339643 z m 32.55096,-0.0389 c -1.1768,-0.717581 -1.13799,-0.299194 -1.13799,-12.243224 0,-6.028725 0.0682,-11.206221 0.15206,-11.505664 0.0838,-0.299361 0.43595,-0.717412 0.78293,-0.928948 0.60964,-0.37171 1.0492,-0.384686 13.03084,-0.385465 h 12.39995 l 0.66546,0.665555 0.66553,0.665458 v 11.186331 c 0,9.771304 -0.0389,11.261292 -0.30662,11.779187 -0.5995,1.159228 -0.4821,1.149376 -13.63333,1.148517 -11.53214,0 -12.01926,-0.01556 -12.61883,-0.380979 z m -97.01511,-29.78373 c -0.80818,-0.216116 -1.2973,-0.567776 -1.5976,-1.14852 -0.25354,-0.490313 -0.29565,-2.163388 -0.29565,-11.757916 V 42.994336 l 0.66554,-0.665458 0.66547,-0.665543 h 12.4684 12.46842 l 0.66555,0.665543 0.66546,0.665458 v 11.357325 11.357238 l -0.50112,0.595616 c -0.31476,0.374046 -0.76972,0.646264 -1.22339,0.731845 -0.89375,0.168742 -23.36222,0.216286 -23.98108,0.051 z m 32.67337,-0.04577 c -0.39308,-0.09293 -0.91735,-0.422372 -1.19226,-0.749057 l -0.49059,-0.583077 V 54.478611 c 0,-7.658052 0.0674,-11.378941 0.21241,-11.696802 0.11687,-0.256394 0.46065,-0.612899 0.76418,-0.792183 0.49913,-0.294869 1.73202,-0.325992 12.92157,-0.325992 h 12.36968 l 0.66544,0.665545 0.66556,0.665458 v 11.281345 c 0,12.470314 0.0562,11.903231 -1.25242,12.580267 -0.53604,0.277239 -1.97406,0.316131 -12.28453,0.332476 -6.42267,0.01064 -11.99324,-0.05625 -12.37904,-0.147389 z m 32.50688,0.04577 c -0.81103,-0.216894 -1.29763,-0.568472 -1.60228,-1.157513 -0.26156,-0.505788 -0.29337,-2.031213 -0.24671,-11.831913 l 0.0534,-11.251257 0.54272,-0.542618 0.54262,-0.542619 12.5028,-0.05269 12.50273,-0.05355 0.60367,0.507953 c 0.33202,0.279387 0.69802,0.831779 0.81333,1.227615 0.1411,0.48418 0.19029,4.219932 0.15037,11.421898 -0.0579,10.502041 -0.0674,10.712789 -0.46846,11.254895 -0.83533,1.128203 -0.51575,1.101145 -13.23961,1.121193 -6.43871,0.01064 -11.90841,-0.03542 -12.15479,-0.101354 z M 376.28655,36.73177 c -0.34034,-0.08814 -0.8464,-0.430749 -1.12441,-0.761154 l -0.50563,-0.600889 V 24.209068 c 0,-12.325592 -0.0328,-11.993379 1.23316,-12.517686 0.426,-0.176512 3.67852,-0.23617 12.79371,-0.234612 11.91343,0 12.23588,0.01196 12.75048,0.393501 0.97555,0.723214 0.99438,0.95427 1.00623,12.349901 0.0103,11.575079 0.0103,11.588912 -1.08948,12.309867 -0.51322,0.336279 -1.2627,0.358484 -12.49554,0.369903 -6.5723,0.0083 -12.22811,-0.05971 -12.56852,-0.148172 z"
       id="path36"
       sodipodi:nodetypes="csccsssccsscccsscssssssssssssssscsssscccccsscccscsccccccccssscscscccscsscsscccccsccccccscscccccsssccccscccccsscccccccccssccsscsssscccssssssscccccsscccscscsscssscc" /></g></svg>
