<?xml version="1.0" encoding="UTF-8" standalone="no"?>
<!-- Created with Inkscape (http://www.inkscape.org/) -->

<svg
   version="1.1"
   id="svg1"
   width="210.07916mm"
   height="164.04167mm"
   viewBox="0 0 793.99999 620.00002"
   sodipodi:docname="tecnologies-responsive.svg"
   xml:space="preserve"
   inkscape:version="1.4.2 (ebf0e940d0, 2025-05-08)"
   xmlns:inkscape="http://www.inkscape.org/namespaces/inkscape"
   xmlns:sodipodi="http://sodipodi.sourceforge.net/DTD/sodipodi-0.dtd"
   xmlns="http://www.w3.org/2000/svg"
   xmlns:svg="http://www.w3.org/2000/svg"><defs
     id="defs1" /><sodipodi:namedview
     id="namedview1"
     pagecolor="#ffffff"
     bordercolor="#000000"
     borderopacity="0.25"
     inkscape:showpageshadow="2"
     inkscape:pageopacity="0.0"
     inkscape:pagecheckerboard="0"
     inkscape:deskcolor="#d1d1d1"
     inkscape:zoom="0.50377834"
     inkscape:cx="344.3975"
     inkscape:cy="285.84"
     inkscape:window-width="1920"
     inkscape:window-height="1011"
     inkscape:window-x="0"
     inkscape:window-y="0"
     inkscape:window-maximized="1"
     inkscape:current-layer="g1"
     inkscape:document-units="mm"
     showgrid="false" /><g
     inkscape:groupmode="layer"
     inkscape:label="Image"
     id="g1"><g
       id="g2"
       transform="translate(7.7885708,2.5978961)"><path
         id="path20"
         style="fill:#0070ac;fill-opacity:1;stroke-width:1.22046"
         d="m 272.62145,336.56747 c -26.11032,-2.50779 -44.06409,-11.32779 -50.44952,-24.78408 -1.94603,-4.10085 -2.11469,-8.48141 -1.78457,-46.32486 l 0.3647,-41.79587 3.55309,-6.41267 c 4.07122,-7.34763 9.30782,-11.76152 18.25415,-15.38568 5.8405,-2.36611 9.35321,-2.58103 52.03039,-3.1843 43.3327,-0.61254 46.06517,-0.78475 51.3683,-3.23761 7.48701,-3.46292 14.15826,-10.35962 18.05153,-18.66177 3.03332,-6.46817 3.21785,-7.99215 3.59755,-29.70164 l 0.4003,-22.88356 15.46562,0.0125 c 13.63007,0.0125 16.19009,0.35 21.56803,2.85964 11.02929,5.1469 19.63447,17.77178 24.66263,36.18315 3.14158,11.50288 3.0863,49.67892 -0.0878,61.02281 -5.05219,18.05325 -12.46537,28.30189 -24.90172,34.42665 l -8.15802,4.01775 -54.03401,0.36406 -54.03402,0.36404 v 4.82288 4.8229 h 34.86334 34.86344 l -0.38555,20.63852 -0.38541,20.63853 -3.74388,4.62162 c -5.39321,6.65762 -16.75725,12.44806 -29.58926,15.07706 -13.10172,2.68426 -37.32606,3.86065 -51.48863,2.50047 z m 64.98934,-25.61898 c 10.51031,-11.65877 -6.33575,-28.35303 -17.42289,-17.26592 -4.41232,4.41232 -5.57233,8.89214 -3.56029,13.74944 3.64413,8.79777 14.57139,10.62908 20.98318,3.51648 z M 180.2651,264.51379 c -11.46397,-2.3117 -20.3837,-10.18277 -26.76374,-23.61707 -6.38959,-13.45468 -8.17573,-23.7877 -8.1479,-47.13526 0.0194,-16.59368 0.4767,-21.81799 2.59651,-29.68699 4.61429,-17.12901 13.36977,-29.21568 25.48511,-35.18164 5.81059,-2.86133 5.92383,-2.86733 60.43687,-3.21933 l 54.61545,-0.35258 v -4.83434 -4.83435 H 253.70437 218.92134 V 97.12055 c 0,-16.415134 0.29697,-19.14517 2.59996,-23.902518 7.43699,-15.362855 33.86903,-23.285103 73.06839,-21.900368 33.3923,1.179709 53.58037,9.295485 60.93997,24.498487 2.39758,4.952736 2.52379,7.259895 2.52379,46.128749 v 40.91532 l -3.69836,7.40098 c -3.95319,7.91111 -8.67719,12.26082 -17.98503,16.56027 -5.53536,2.55684 -7.7157,2.6939 -52.15425,3.27863 l -46.37737,0.61021 -6.96158,3.41862 c -8.0344,3.94552 -12.28258,8.50144 -16.72723,17.93941 -2.96351,6.29275 -3.19931,8.16274 -3.77147,29.90115 l -0.61022,23.18868 -12.20458,0.19138 c -6.7125,0.10489 -14.4967,-0.27081 -17.29826,-0.83576 z M 258.89134,93.027276 c 6.45486,-7.382545 0.47192,-20.091056 -9.45856,-20.091056 -4.0164,0 -8.65853,2.785335 -10.46542,6.279387 -6.98833,13.513854 9.93001,25.241953 19.92398,13.811669 z" /><path
         id="path6"
         style="fill:#0085bf;fill-opacity:1;stroke-width:1.17592"
         d="m 621.6554,353.55173 c -25.42288,-2.47355 -50.36426,-6.9596 -48.56743,-8.73536 0.51834,-0.51246 6.23414,-0.15465 12.70174,0.79528 17.35593,2.54881 57.77928,3.43064 79.37491,1.73155 39.57372,-3.11361 71.01736,-11.69622 84.54102,-23.07548 4.2553,-3.58059 5.39168,-3.32151 3.79945,0.86641 -6.26155,16.46915 -56.33264,29.58929 -110.68305,29.00215 -9.378,-0.10116 -18.90298,-0.36431 -21.16664,-0.58455 z m -11.75923,-16.4941 c -27.69337,-2.0781 -56.89005,-7.5781 -66.74878,-12.57378 -7.61659,-3.85961 -9.68632,-6.01742 -9.68632,-10.09879 0,-6.7992 10.80675,-12.90847 31.5464,-17.8342 13.40955,-3.18475 17.24424,-2.41816 6.73935,1.34716 -8.87564,3.18134 -16.38733,9.15834 -15.73928,12.52359 1.3944,7.24071 27.13035,14.03237 64.26603,16.95983 13.71141,1.0808 23.06952,1.09587 39.92558,0.0634 41.78519,-2.5581 65.48006,-8.28554 74.32066,-17.96466 2.80257,-3.06846 3.35009,-3.26154 4.6857,-1.65217 3.59622,4.33316 1.10679,10.09502 -6.35362,14.70582 -9.35236,5.78003 -35.58853,11.55036 -64.15951,14.11108 -12.45033,1.11593 -46.25944,1.3529 -58.79621,0.41214 z m 8.60188,-29.70507 c -15.7995,-2.4912 -28.5926,-8.46359 -28.5926,-13.34838 0,-2.43724 3.60113,-5.24263 9.31966,-7.26029 6.48628,-2.28845 9.62708,-2.33078 8.77803,-0.11855 -1.02292,2.66573 4.07729,5.14846 13.65451,6.64694 9.77545,1.52952 40.95897,0.78962 48.79146,-1.15771 4.29493,-1.06773 5.34151,-0.8068 12.24114,3.05164 l 7.54472,4.21923 -3.16712,1.65947 c -8.49146,4.44908 -21.05516,6.51696 -41.89396,6.89538 -11.31827,0.20555 -23.32233,-0.0589 -26.67584,-0.58774 z m -5.07411,-34.19565 c -28.12801,-3.86961 -43.15444,-11.4642 -35.28715,-17.83478 2.40195,-1.94497 8.89093,-4.20993 18.23625,-6.36528 3.4565,-0.79716 3.48568,-0.766 1.44155,1.54423 -2.94956,3.33362 -1.49894,5.78484 4.66689,7.88575 14.60898,4.97781 58.13183,5.53178 79.33963,1.00999 l 10.1888,-2.17251 5.40443,3.09538 c 2.97251,1.70251 5.69736,3.38832 6.05531,3.74614 1.01646,1.01659 -13.21764,5.41725 -24.22722,7.49019 -11.64906,2.19344 -54.02034,3.22403 -65.81849,1.60089 z m 99.95358,-3.32775 c 0,-0.5548 3.30729,-3.04211 7.34954,-5.52743 10.05131,-6.17984 19.35911,-15.21812 22.93133,-22.26767 7.56364,-14.92612 0.38547,-29.99243 -14.28961,-29.99243 -2.32761,0 -4.23201,-0.46742 -4.23201,-1.03867 0,-1.52883 4.42676,-2.45475 11.82237,-2.47297 18.49783,-0.0458 29.77005,16.19307 22.44037,32.32721 -4.323,9.51581 -21.4206,21.7946 -38.55828,27.69079 -7.67656,2.64113 -7.46371,2.60455 -7.46371,1.28117 z m -95.83785,-28.38424 c -30.77136,-2.33268 -54.68048,-8.98146 -54.68048,-15.20574 0,-4.79285 7.36504,-8.34461 24.22274,-11.68141 23.50049,-4.65149 34.81266,-4.3427 13.99481,0.38219 -11.60944,2.63477 -17.05091,5.12772 -17.05091,7.81166 0,7.20911 57.16251,11.87471 93.48598,7.6302 9.05462,-1.05795 19.61125,-2.66203 23.45911,-3.56444 6.63022,-1.55504 7.22924,-1.50766 11.45621,0.90521 2.45299,1.4003 4.46418,2.88208 4.46911,3.29295 0.0164,1.38135 -18.09383,5.79236 -32.95094,8.02546 -17.58971,2.6437 -48.48796,3.76237 -66.40563,2.40392 z m 41.74532,-20.42569 c 0,-0.28185 1.31774,-3.34326 2.9284,-6.80294 1.61055,-3.45969 2.93346,-7.73981 2.93981,-9.51149 0.0166,-4.76682 -3.57458,-13.18692 -10.32462,-24.20557 -7.14278,-11.65977 -9.06849,-19.11912 -7.31825,-28.34823 3.05259,-16.09606 17.1557,-30.34099 41.3474,-41.76333 15.06348,-7.11246 20.36454,-8.22982 10.70221,-2.2559 -23.05861,14.25634 -35.33194,30.27571 -34.14661,44.56908 0.50505,6.09047 1.8021,9.16974 11.4896,27.27803 6.62173,12.37768 4.45638,22.96452 -6.86281,33.5522 -5.15691,4.82374 -10.75513,8.72135 -10.75513,7.48815 z m -23.53413,-13.26724 c -29.42351,-19.56327 -40.68453,-43.9783 -30.04992,-65.15127 4.78106,-9.51911 11.39328,-16.61794 30.62001,-32.87344 19.4873,-16.476001 30.30428,-27.419033 34.96565,-35.37299 5.02413,-8.573199 7.20982,-17.955534 6.46782,-27.765581 -0.35703,-4.721081 -0.39617,-8.5839 -0.0869,-8.5839 0.30927,0 1.87607,2.869613 3.48178,6.376927 7.60624,16.614282 3.52168,35.829245 -11.57049,54.430725 -3.36081,4.142189 -12.96188,13.718469 -21.33575,21.280709 -27.67762,24.99473 -32.83486,34.71906 -28.43174,53.60981 2.47567,10.62154 7.44749,19.74283 16.03363,29.41527 9.36469,10.5497 9.35728,10.91776 -0.0942,4.63374 z" /><path
         id="path2"
         style="fill:#264e94;fill-opacity:1;stroke-width:0.883891"
         d="m 526.40919,576.18821 c -21.40543,-2.59386 -40.80495,-8.25421 -60.10452,-17.53682 -24.09617,-11.58983 -51.44151,-32.75802 -42.31712,-32.75802 0.73203,0 4.98442,1.96516 9.44966,4.36712 49.199,26.46491 110.62151,35.10961 166.1533,23.38471 12.64609,-2.67004 27.73453,-7.13855 38.56289,-11.42046 4.27414,-1.69017 8.37574,-3.07303 9.11467,-3.07303 1.82772,0 3.53971,2.22404 3.17387,4.12335 -0.47004,2.44069 -8.13876,7.72867 -20.17568,13.91191 -16.35912,8.40366 -34.73687,14.36851 -54.81344,17.79076 -10.08104,1.71835 -38.9687,2.43139 -49.04363,1.21048 z m 126.35032,-11.1607 c 2.82748,-7.36812 7.56246,-22.69945 8.03305,-26.00951 0.48746,-3.42889 0.28858,-4.407 -1.19794,-5.89352 -2.55259,-2.5526 -9.87587,-3.21083 -22.44594,-2.01739 -5.87,0.55727 -10.8997,0.78639 -11.17704,0.50903 -2.12366,-2.12364 7.7289,-7.70099 17.11105,-9.68622 10.6224,-2.24764 24.45732,-1.30982 28.00206,1.8981 5.08034,4.59762 -2.3241,29.27096 -11.718,39.04724 -3.62615,3.77368 -7.74421,5.11506 -6.60724,2.15227 z M 622.502,504.28862 c -3.54121,-0.66999 -8.31421,-2.14865 -10.60668,-3.28596 l -4.16824,-2.06794 -0.26509,-5.08237 c -0.31191,-5.9804 0.12341,-6.15982 7.77815,-3.20481 5.21937,2.01485 18.60784,3.22743 24.15168,2.18738 1.71731,-0.3222 4.34405,-1.72706 5.83729,-3.12191 2.19233,-2.04797 2.71496,-3.24662 2.71496,-6.22702 0,-5.79726 -2.80899,-7.92228 -16.1683,-12.23143 -6.19288,-1.9976 -13.00378,-4.83188 -15.13538,-6.29843 -7.50997,-5.16694 -10.5684,-16.12046 -6.811,-24.39245 2.1873,-4.81515 8.72975,-10.39048 14.30685,-12.19158 9.27987,-2.99709 27.31757,-1.06499 32.18685,3.44762 1.63731,1.51747 2.22765,2.9659 2.22765,5.46562 0,5.08908 -1.17363,5.73556 -6.52576,3.59468 -5.63143,-2.25267 -18.34477,-3.17219 -22.93102,-1.6586 -4.12211,1.36048 -6.78271,4.74747 -6.78271,8.6348 0,4.90498 3.34367,7.41415 15.03559,11.28329 16.42215,5.43444 20.54646,8.04775 23.37148,14.80897 1.96541,4.70388 1.75815,12.57368 -0.45142,17.13792 -5.33454,11.01963 -20.77273,16.41665 -37.7649,13.20222 z m -177.85263,-1.39849 c -8.61458,-4.01852 -11.90194,-9.50534 -11.90194,-19.86543 0,-8.39597 1.82911,-12.63369 7.57635,-17.55308 5.54474,-4.74604 11.06764,-6.33344 21.56144,-6.19712 4.8614,0.0628 10.61799,0.53793 12.79245,1.05518 2.17446,0.51716 4.10046,0.79338 4.28007,0.61377 0.1796,-0.17952 0.0433,-3.35145 -0.30346,-7.04859 -1.11739,-11.92455 -4.84733,-15.09657 -17.65295,-15.01242 -6.33775,0.0416 -9.34741,0.5466 -14.80391,2.48364 -3.76687,1.33723 -7.2472,2.18516 -7.73406,1.88428 -1.55661,-0.96201 -1.05411,-8.85605 0.66169,-10.39456 3.43887,-3.08335 12.70813,-5.38252 23.20211,-5.75516 8.87276,-0.31503 10.82369,-0.11321 15.34858,1.58727 2.98834,1.12308 6.58489,3.34932 8.49189,5.25632 5.62295,5.62287 6.34269,9.08303 6.99234,33.61239 0.48007,18.12531 0.82346,22.11645 2.10624,24.48402 2.7519,5.07892 1.90063,6.72092 -5.46748,10.54658 -2.87334,1.49192 -4.7547,0.37116 -7.63912,-4.55064 l -2.32028,-3.95927 -3.55332,3.04164 c -6.07384,5.19895 -10.7816,6.94428 -19.70412,7.305 -6.67098,0.26967 -8.59699,0.0221 -11.93252,-1.53382 z m 22.18633,-10.70665 c 4.39392,-1.47114 8.77341,-5.01988 10.08325,-8.17041 0.63022,-1.51588 1.42607,-5.01724 1.76857,-7.78072 l 0.62279,-5.02456 -3.40915,-0.72072 c -1.8751,-0.39643 -7.18788,-0.72072 -11.80622,-0.72072 -6.7706,0 -8.95052,0.33482 -11.25527,1.72898 -6.34519,3.83803 -7.49999,14.3884 -2.10268,19.21091 2.37315,2.12044 3.53264,2.48319 7.9367,2.48319 2.8366,0 6.5095,-0.45272 8.16201,-1.00595 z m 54.84009,9.18194 c -1.87491,-3.54502 -21.49505,-70.14056 -21.02528,-71.36483 0.38962,-1.01524 1.9968,-1.33522 6.70697,-1.33522 5.46888,0 6.33926,0.23302 7.42926,1.98876 0.67909,1.09381 4.09851,13.54765 7.5988,27.67521 3.50021,14.12748 6.64776,26.14537 6.99459,26.70648 0.34674,0.56109 3.54158,-11.39555 7.09958,-26.57028 3.55809,-15.17469 6.8734,-28.08762 7.36748,-28.6953 1.24585,-1.5324 12.55636,-1.47936 14.09795,0.0662 0.64242,0.6441 4.13149,13.82325 7.7534,29.28707 4.438,18.94734 6.80772,27.57286 7.26699,26.45049 0.37487,-0.91596 3.51063,-12.76532 6.96843,-26.33187 6.77642,-26.58704 7.46789,-28.86615 9.06579,-29.8822 1.95623,-1.24389 12.11114,-0.80531 12.62945,0.54547 0.46024,1.19933 -19.81619,67.63578 -21.73909,71.22869 -0.81946,1.53118 -1.84379,1.77822 -7.37298,1.77822 -3.66672,0 -6.858,-0.43674 -7.43943,-1.01816 -0.55995,-0.55994 -3.90141,-12.89022 -7.42556,-27.40057 -3.52408,-14.5104 -6.65356,-26.38253 -6.95446,-26.38253 -0.30087,0 -3.24916,11.43543 -6.55173,25.41195 -3.30255,13.97649 -6.56536,26.30675 -7.25065,27.40056 -1.11059,1.77264 -1.96081,1.98875 -7.82364,1.98875 -5.36363,0 -6.72872,-0.28558 -7.39587,-1.54681 z" /><path
         style="fill:#162f70;fill-opacity:1;stroke-width:0.207996"
         d="m 114.56705,557.39993 c -0.0248,-0.0203 -2.61849,-0.0921 -5.76444,-0.16084 -3.14604,-0.069 -6.00079,-0.16747 -6.34399,-0.21946 -0.34317,-0.0524 -1.46636,-0.1515 -2.49592,-0.22103 -14.52591,-0.98061 -29.840395,-4.52817 -40.455508,-9.37125 -13.071285,-5.96377 -23.340296,-16.42823 -30.8599,-31.44764 -5.223114,-10.43241 -9.317875,-24.65739 -11.033835,-38.33055 -0.68842,-5.48576 -0.835659,-8.01291 -0.842555,-14.45584 l -0.0096,-6.65585 0.662491,-1.39848 c 0.920639,-1.9434 2.278787,-3.327 4.195808,-4.27447 l 1.567987,-0.77501 95.273552,-0.10716 95.27348,-0.10726 2.91199,-0.47604 c 5.83481,-0.95388 10.70066,-2.30579 13.64094,-3.78998 l 1.21806,-0.61492 -0.74913,-1.27823 c -3.78925,-6.46534 -5.70794,-14.96216 -5.08035,-22.49767 0.57982,-6.96211 2.12585,-12.4326 5.41943,-19.17598 1.36475,-2.79413 5.01889,-8.77866 5.56728,-9.11754 0.21652,-0.13384 4.86824,2.66249 6.52956,3.9252 5.99792,4.55867 10.85515,10.24604 13.86101,16.22975 1.5847,3.15458 3.20364,8.14775 3.91271,12.06736 0.0762,0.42237 0.11917,0.4266 1.72974,0.17031 5.07208,-0.80709 13.94432,-0.9019 18.42989,-0.19687 6.26104,0.98403 10.86554,2.73718 15.18382,5.78116 1.14393,0.80644 2.15385,1.53086 2.24425,1.60994 0.09,0.0791 -0.16948,1.07129 -0.57752,2.20493 -1.75714,4.88221 -4.36294,9.08953 -7.88129,12.72509 -3.87622,4.0054 -6.90267,6.24238 -11.46521,8.4746 -6.1046,2.98666 -12.4075,4.40278 -20.29127,4.55893 l -3.38379,0.0671 -0.60158,1.53362 c -9.51495,24.25609 -20.44498,41.8821 -35.00278,56.44577 -13.91375,13.91935 -30.63696,24.06148 -50.76756,30.7889 -10.32873,3.45167 -22.6792,5.97341 -35.03132,7.15273 -5.89396,0.56272 -6.74422,0.61583 -12.06386,0.75352 -2.57393,0.0663 -5.17468,0.14318 -5.77932,0.17024 -0.60472,0.0268 -1.1195,0.033 -1.14402,0.0109 z M 42.100989,444.61148 c -0.76087,-0.23038 -1.491424,-1.01275 -1.62317,-1.73817 -0.06896,-0.3781 -0.09712,-5.91326 -0.06323,-12.30042 l 0.06153,-11.61301 0.679228,-0.60683 0.679302,-0.60682 h 13.280466 c 13.081221,0 13.288658,0.01 13.823548,0.42715 0.298644,0.23498 0.643864,0.77309 0.767055,1.19602 0.15166,0.52038 0.203644,4.5142 0.161011,12.36076 l -0.06344,11.59198 -0.67994,0.67986 -0.679845,0.67986 -12.943917,0.034 c -7.11918,0.0184 -13.148454,-0.0285 -13.398397,-0.10393 z m 33.903435,-0.13007 c -1.340412,-0.58304 -1.31341,-0.30947 -1.31341,-13.2992 0,-8.66871 0.06525,-11.89558 0.248487,-12.29784 0.527281,-1.15726 0.285223,-1.13815 14.418713,-1.13815 9.182463,0 13.157826,0.069 13.478146,0.23232 0.24987,0.12786 0.61601,0.43201 0.81361,0.676 0.33115,0.40878 0.35982,1.39159 0.36405,12.51325 0.01,13.38692 0.0725,12.72598 -1.3679,13.32805 -1.02138,0.42678 -25.657852,0.41345 -26.641696,-0.0147 z m 34.958826,0.10063 c -0.24158,-0.0976 -0.63933,-0.43193 -0.88396,-0.74287 -0.44286,-0.56293 -0.44471,-0.61657 -0.44008,-12.65316 0,-11.13891 0.033,-12.12256 0.36395,-12.53143 0.19767,-0.24399 0.56381,-0.54814 0.81368,-0.676 0.62944,-0.32189 26.25138,-0.32813 26.95723,-0.01 0.27244,0.1242 0.65121,0.48962 0.84172,0.81214 0.31232,0.52866 0.34639,1.75932 0.34639,12.51978 0,10.69596 -0.0349,11.98367 -0.33923,12.4177 -0.7447,1.06339 -0.77145,1.06531 -14.47391,1.05116 -7.01062,-0.008 -12.94419,-0.0931 -13.18579,-0.1907 z m 34.24171,-0.16048 c -0.39878,-0.19999 -0.84203,-0.59765 -0.98494,-0.8837 -0.19852,-0.39738 -0.26051,-3.33122 -0.26282,-12.44858 V 419.1606 l 0.70712,-0.70724 0.70726,-0.70713 h 13.34864 13.34862 l 0.5901,0.5902 c 0.39318,0.39306 0.63441,0.89655 0.72259,1.50798 0.0725,0.50476 0.10403,5.9419 0.07,12.08251 -0.0617,10.96107 -0.0709,11.17548 -0.49862,11.75191 -0.83868,1.12915 -0.47225,1.10067 -14.22772,1.1036 -11.76655,0 -12.84993,-0.0267 -13.51693,-0.36091 z m 34.58991,-0.0413 c -1.25051,-0.76253 -1.20927,-0.31795 -1.20927,-13.01013 0,-6.40636 0.0725,-11.90817 0.16158,-12.22636 0.0891,-0.31812 0.46326,-0.76235 0.83197,-0.98714 0.64783,-0.395 1.11492,-0.40879 13.84708,-0.40961 h 13.17667 l 0.70714,0.70724 0.70722,0.70715 v 11.88702 c 0,10.38336 -0.0413,11.96669 -0.32583,12.51703 -0.63705,1.23183 -0.5123,1.22136 -14.4873,1.22045 -12.2545,0 -12.77213,-0.0166 -13.40926,-0.40485 z M 76.702854,412.73088 c -0.858803,-0.22966 -1.378561,-0.60334 -1.697671,-1.22046 -0.269422,-0.52103 -0.314169,-2.2989 -0.314169,-12.49442 v -11.88703 l 0.707228,-0.70714 0.707154,-0.70723 h 13.249407 13.249427 l 0.70724,0.70723 0.70714,0.70714 v 12.06873 12.06864 l -0.53251,0.63293 c -0.33447,0.39747 -0.81793,0.68674 -1.30002,0.77768 -0.94973,0.17931 -24.825601,0.22984 -25.483226,0.0542 z m 34.719986,-0.0487 c -0.4177,-0.0987 -0.97481,-0.44884 -1.26694,-0.79598 l -0.52132,-0.6196 v -11.93406 c 0,-8.13774 0.0716,-12.0917 0.22572,-12.42947 0.12419,-0.27245 0.4895,-0.6513 0.81205,-0.8418 0.53039,-0.31335 1.84051,-0.34643 13.73096,-0.34643 h 13.1445 l 0.70712,0.70724 0.70725,0.70715 v 11.98799 c 0,13.25144 0.0597,12.64883 -1.33087,13.36828 -0.56962,0.2946 -2.09771,0.33593 -13.05402,0.3533 -6.82498,0.0113 -12.74448,-0.0598 -13.15445,-0.15662 z m 34.54307,0.0487 c -0.86183,-0.23049 -1.37891,-0.60409 -1.70264,-1.23002 -0.27794,-0.53747 -0.31175,-2.15845 -0.26216,-12.57305 l 0.0567,-11.95602 0.57672,-0.5766 0.5766,-0.57661 13.28596,-0.056 13.28589,-0.057 0.64148,0.53977 c 0.35282,0.29689 0.74175,0.88388 0.86428,1.3045 0.14994,0.51451 0.20221,4.48427 0.15979,12.13736 -0.0615,11.15987 -0.0716,11.38382 -0.49781,11.95989 -0.88765,1.19887 -0.54805,1.17011 -14.06892,1.19142 -6.84202,0.0113 -12.65434,-0.0376 -12.91615,-0.1077 z m -0.2797,-32.25676 c -0.36166,-0.0936 -0.89942,-0.45773 -1.19485,-0.80883 l -0.5373,-0.63853 v -11.85974 c 0,-13.09765 -0.0349,-12.74463 1.31041,-13.30179 0.45268,-0.18756 3.90893,-0.25096 13.59509,-0.2493 12.65967,0 13.00232,0.0127 13.54915,0.41815 1.03666,0.76852 1.05667,1.01404 1.06926,13.12348 0.011,12.30013 0.011,12.31482 -1.15772,13.08094 -0.54537,0.35735 -1.3418,0.38094 -13.27825,0.39307 -6.98398,0.008 -12.99406,-0.0634 -13.35579,-0.15745 z"
         id="path36"
         sodipodi:nodetypes="csccsssccsscccsscssssssssssssssscsssscccccsscccscsccccccccssscscscccscsscsscccccsccccccscscccccsssccccscccccsscccccccccssccsscsssscccssssssscccccsscccscscsscssscc" /></g></g></svg>
